<svg width="160" height="176" viewBox="0 0 160 176" fill="none" xmlns="http://www.w3.org/2000/svg">
<path d="M137.003 57.1062H151.584V50.9368H137.003V57.1062Z" fill="#EBEBEB"/>
<path d="M145.135 49.3269H159.717V43.1575H145.135V49.3269Z" fill="#EBEBEB"/>
<path d="M128.866 49.3269H143.447V43.1575H128.866V49.3269Z" fill="#EBEBEB"/>
<path d="M145.135 136.669H159.717V130.5H145.135V136.669Z" fill="#EBEBEB"/>
<path d="M51.9105 86.1971C51.8914 86.3232 51.9167 86.4521 51.982 86.5617C52.0473 86.6713 52.1485 86.7548 52.2684 86.798C52.8466 86.8862 53.5514 86.98 54.3333 87.0902C56.6626 82.029 59.0414 78.0429 58.3696 79.6197C57.3435 82.0969 56.6706 84.7064 56.3708 87.3714C57.2793 87.4927 59.3994 87.7518 60.4566 87.8786C62.8905 78.8478 65.5722 72.2098 65.2583 74.2938C63.9808 82.7016 64.2066 85.4473 64.4984 88.3859C74.3716 89.5878 87.3395 91.0102 96.7392 91.8207C98.2755 86.8587 99.7127 81.4336 99.8449 81.8305C100.875 84.7802 100.853 88.9482 100.594 92.1459C103.589 92.383 105.99 92.5098 107.46 92.5098C107.46 92.5098 108.562 88.3087 108.76 86.9193C109.35 83.3644 109.316 79.7338 108.661 76.1904C107.984 72.5737 106.541 69.3208 105.192 65.9963C105.188 65.9757 105.182 65.9554 105.175 65.9356C104.28 63.7576 103.637 61.4842 103.259 59.1598C103.255 59.1416 103.255 59.1228 103.259 59.1046C103.007 57.4095 102.898 55.6962 102.934 53.9828C103.055 47.7086 100.247 42.0685 94.911 40.0286C85.7977 30.7055 73.2813 34.9839 69.7461 42.8679C68.364 46.402 66.9929 51.0166 65.7979 54.5727C65.8013 54.5786 65.8031 54.5852 65.8031 54.592C65.8031 54.5988 65.8013 54.6054 65.7979 54.6113C65.3471 56.0062 64.8119 57.3723 64.1955 58.7022C60.9191 65.0535 54.6087 68.3284 51.9105 86.1971Z" fill="#999999"/>
<path d="M97.1078 41.8807C100.527 44.1467 102.477 47.2397 102.614 51.8378C102.702 54.5173 102.614 57.1251 103.369 59.6998C104.123 62.3572 105.489 64.5956 106.904 66.8285C109.145 70.3791 110.621 73.8635 110.615 78.3624C110.61 82.8612 109.932 88.2863 108.121 92.4158C108.121 92.4434 108.077 92.4158 108.088 92.4158C109.63 88.1981 110.191 82.2548 109.877 77.7008C109.531 72.6947 107.196 69.3977 104.85 65.4447C102.96 62.3067 101.915 58.7317 101.816 55.0686C101.75 52.7971 101.992 50.454 101.331 48.2707C100.549 45.6684 98.6771 43.9096 96.8049 42.3384C96.5571 42.1123 96.849 41.7098 97.1078 41.8807Z" fill="#999999"/>
<path d="M57.4678 65.2791C60.3202 61.9215 63.2331 59.0932 65.1164 54.8038C66.8289 50.8949 67.9798 46.7213 69.7143 42.8234C69.7143 42.7572 69.83 42.7903 69.8024 42.8619C67.0492 49.8087 65.9919 56.943 61.1792 62.6051C58.5581 65.6816 55.9645 68.5209 54.0813 72.2975C52.1556 76.2804 50.9512 80.5739 50.5241 84.9782C50.5241 85.1325 50.3203 85.1105 50.3203 84.9782C50.3176 77.775 52.8481 70.8009 57.4678 65.2791Z" fill="#999999"/>
<path d="M29.7377 150.841C29.7377 150.841 56.3177 158.008 60.712 157.236C65.1062 156.464 79.9408 136.473 83.2337 129.223C86.5266 121.973 91.9946 85.9049 90.9428 81.9354C89.8911 77.9658 84.3901 77.9106 79.748 88.1433C75.106 98.3761 64.1315 120.87 62.1767 122.723C60.2219 124.575 27.5957 148.922 29.7377 150.841Z" fill="#EFF2F1"/>
<path d="M58.4028 154.865C54.3279 152.732 49.3666 147.555 45.9855 147.015C45.1585 146.852 44.3013 146.961 43.5407 147.325C42.7801 147.688 42.1565 148.287 41.762 149.032C41.762 149.032 40.2092 145.576 37.0594 145.592C35.446 145.592 34.0364 148.194 34.0364 148.194C34.0364 148.194 32.6652 145.476 29.8734 145.664C27.6433 145.813 26.5695 148.393 26.5695 148.393C26.5695 148.393 24.0475 146.397 21.8229 147.29C17.3185 149.071 16.5696 168.241 23.5079 171.483C26.7402 172.993 26.6686 168.301 26.6686 168.301C26.6686 168.301 28.3977 175.028 32.3403 175.281C36.283 175.535 35.826 169.448 35.826 169.448C35.826 169.448 37.5605 175.948 41.6739 175.8C45.958 175.651 44.4602 169.636 44.4602 169.636C44.4602 169.636 47.1805 174.013 50.3027 173.175C55.4623 171.797 49.9172 161.421 51.0846 157.247H57.5658L58.4028 154.865Z" fill="#EFF2F1"/>
<path d="M52.5228 150.786C56.5591 152.473 61.1625 146.094 65.3145 147.577C70.6998 149.501 65.7219 156.156 57.5613 157.236H51.0801L52.5228 150.786Z" fill="#EFF2F1"/>
<path d="M26.3321 148.773C26.3321 148.76 26.3268 148.748 26.3175 148.738C26.3083 148.729 26.2956 148.724 26.2825 148.724C26.2694 148.724 26.2568 148.729 26.2475 148.738C26.2382 148.748 26.2329 148.76 26.2329 148.773C24.4543 155.02 24.4048 162.43 26.6349 168.572C26.7065 168.77 27.0699 168.743 27.0314 168.506C25.9411 161.713 25.5116 155.616 26.3321 148.773Z" fill="#999999"/>
<path d="M33.9965 148.084C33.9965 148.007 33.8808 147.99 33.8588 148.084C32.0582 154.535 32.2068 162.876 35.6374 169.658C35.753 169.889 36.0944 169.977 35.9788 169.702C34.057 165.026 33.2255 154.253 33.9965 148.084Z" fill="#999999"/>
<path d="M44.8578 170.038C41.8458 163.422 41.2566 156.492 41.6751 149.291C41.6751 149.198 41.5484 149.198 41.5209 149.291C40.359 152.759 40.5737 157.374 41.0418 160.952C41.408 164.273 42.6363 167.439 44.6045 170.137C44.7036 170.253 44.9239 170.181 44.8578 170.038Z" fill="#999999"/>
<path d="M65.6342 147.07C62.991 146.188 60.2763 148.305 58.0517 149.49C57.3396 149.914 56.5892 150.271 55.8105 150.554C54.0484 151.106 52.7434 150.753 51.9559 150.262C50.7225 149.474 46.8734 145.625 44.0926 146.904C43.1333 147.354 42.3118 148.053 41.7138 148.928C40.8658 147.384 39.781 145.702 37.9032 145.394C37.4895 145.323 37.0656 145.342 36.6594 145.447C36.2532 145.553 35.8739 145.743 35.5465 146.006C35.1965 146.276 34.8852 146.593 34.6214 146.949C34.3599 147.268 34.1448 147.622 33.9826 148.002C33.9819 147.989 33.9819 147.976 33.9826 147.963L33.922 147.847L33.8064 147.61C33.6492 147.292 33.4258 147.012 33.1511 146.789C33.0988 146.735 33.0362 146.693 32.9671 146.665C32.898 146.636 32.8238 146.622 32.7491 146.623C32.7374 146.623 32.7262 146.628 32.718 146.636C32.7097 146.644 32.7051 146.656 32.7051 146.667C32.7051 146.679 32.7097 146.69 32.718 146.699C32.7262 146.707 32.7374 146.711 32.7491 146.711C32.8781 146.773 32.9828 146.876 33.0465 147.004C33.1346 147.136 33.2172 147.274 33.3108 147.401C33.4044 147.527 33.4925 147.66 33.5861 147.787L33.7238 147.991L33.7844 148.095C33.8108 148.129 33.8403 148.16 33.8725 148.189C33.8802 148.199 33.8901 148.208 33.9016 148.213C33.9131 148.219 33.9257 148.222 33.9385 148.222C33.9514 148.222 33.964 148.219 33.9755 148.213C33.987 148.208 33.9969 148.199 34.0046 148.189C34.2879 147.937 34.5444 147.656 34.77 147.351C35.0475 147.028 35.3554 146.733 35.6896 146.469C36.007 146.223 36.3726 146.047 36.7626 145.952C37.1525 145.857 37.5581 145.845 37.9528 145.918C39.6378 146.248 40.7061 147.748 41.6036 149.088C41.6036 149.088 41.6036 149.088 41.6312 149.088C41.6036 149.132 41.6642 149.17 41.6973 149.137C42.6223 148.327 43.5034 147.417 44.7809 147.23C46.1575 147.026 47.4626 147.687 48.6025 148.382C49.1734 148.718 49.7249 149.086 50.2544 149.485C50.7225 149.849 51.1685 150.256 51.6696 150.587C53.8116 151.938 56.1574 150.891 56.7411 150.642C57.8922 150.123 59.0087 149.53 60.0836 148.867C61.1639 148.142 62.3826 147.648 63.6628 147.417C64.2506 147.33 64.8507 147.394 65.4073 147.602C65.9638 147.811 66.4586 148.157 66.8456 148.608C67.2476 149.126 67.7597 150.097 66.7079 152.307C66.7079 152.307 66.7079 152.352 66.741 152.335C67.2916 151.762 69.0427 148.211 65.6342 147.07Z" fill="#999999"/>
<path d="M88.8537 115.434L63.7715 111.42C63.7715 111.42 75.7537 87.6635 82.9508 80.7719C90.0542 73.9684 93.5123 80.9373 92.466 91.4456C91.3097 103.095 88.8537 115.434 88.8537 115.434Z" fill="#999999"/>
<path d="M88.039 110.759C87.3341 110.593 86.6128 110.488 85.9079 110.329C85.2031 110.169 84.5258 110.069 83.832 109.965C82.4168 109.744 80.9961 109.546 79.5809 109.353C76.7836 108.967 73.9863 108.542 71.178 108.25C69.5811 108.074 67.9952 107.831 66.3928 107.699C66.3432 107.699 66.3377 107.776 66.3928 107.787C69.1736 108.438 72.0039 108.89 74.8233 109.38C77.6426 109.871 80.4179 110.268 83.2263 110.571C84.0137 110.659 84.8066 110.759 85.5941 110.797C86.3815 110.836 87.2185 110.913 88.0279 110.924C88.0498 110.925 88.0714 110.918 88.088 110.904C88.1045 110.889 88.1146 110.869 88.116 110.847C88.1175 110.825 88.1102 110.803 88.0957 110.787C88.0813 110.77 88.0609 110.76 88.039 110.759Z" fill="#999999"/>
<path d="M74.8891 157.457H141.314C141.314 157.457 113.705 88.8492 99.6685 78.826C95.456 75.8157 88.7436 75.4794 84.2172 81.522C80.5058 86.484 70.2031 106.194 69.735 113.284C69.267 120.374 74.8231 127.382 74.8231 127.382L74.8891 157.457Z" fill="#CCCCCC"/>
<path d="M96.8848 110.968C97.0555 110.924 97.2207 110.902 97.3859 110.869C97.5315 110.836 97.6827 110.836 97.8283 110.87C97.9739 110.903 98.1102 110.969 98.227 111.062C98.3439 111.155 98.4383 111.273 98.5033 111.408C98.5684 111.542 98.6024 111.69 98.6028 111.84C98.5986 111.973 98.6289 112.104 98.6907 112.222C98.7524 112.34 98.8436 112.44 98.9552 112.512C99.0802 112.591 99.2214 112.64 99.3682 112.655C99.5368 112.68 99.704 112.713 99.8693 112.755C99.7041 112.799 99.5389 112.821 99.3682 112.854C99.1837 112.891 98.9926 112.873 98.8176 112.804C98.6313 112.725 98.4727 112.592 98.362 112.422C98.2512 112.252 98.1932 112.053 98.1953 111.851C98.1922 111.718 98.1557 111.588 98.0893 111.474C98.0229 111.359 97.9287 111.263 97.8154 111.194C97.6844 111.123 97.54 111.08 97.3914 111.068C97.2207 111.035 97.0555 111.013 96.8848 110.968Z" fill="white"/>
<path d="M71.4766 110.968C71.6418 110.924 71.807 110.902 71.9722 110.869C72.1178 110.836 72.269 110.836 72.4146 110.87C72.5602 110.903 72.6965 110.969 72.8133 111.062C72.9302 111.155 73.0246 111.273 73.0896 111.408C73.1547 111.542 73.1887 111.69 73.1891 111.84C73.1861 111.973 73.2174 112.105 73.2801 112.223C73.3428 112.341 73.4347 112.44 73.547 112.512C73.6712 112.592 73.8128 112.642 73.96 112.655C74.1252 112.689 74.2904 112.705 74.4556 112.755C74.2904 112.799 74.1252 112.821 73.96 112.854C73.7755 112.89 73.5846 112.873 73.4094 112.804C73.2244 112.723 73.067 112.589 72.9565 112.42C72.846 112.251 72.7872 112.053 72.7871 111.851C72.784 111.718 72.7475 111.588 72.6811 111.474C72.6147 111.359 72.5205 111.263 72.4072 111.194C72.2765 111.122 72.132 111.079 71.9832 111.068C71.807 111.035 71.6418 111.013 71.4766 110.968Z" fill="white"/>
<path d="M106.113 144.015C106.278 143.971 106.449 143.949 106.614 143.916C106.76 143.885 106.911 143.887 107.056 143.921C107.2 143.956 107.336 144.022 107.452 144.115C107.568 144.209 107.662 144.327 107.726 144.461C107.791 144.596 107.825 144.743 107.826 144.892C107.824 145.025 107.856 145.156 107.919 145.274C107.981 145.391 108.073 145.491 108.184 145.564C108.309 145.641 108.45 145.688 108.597 145.702C108.762 145.735 108.933 145.757 109.098 145.801C108.933 145.851 108.762 145.873 108.597 145.906C108.412 145.941 108.221 145.922 108.046 145.851C107.86 145.771 107.701 145.638 107.589 145.469C107.478 145.299 107.418 145.1 107.418 144.897C107.417 144.765 107.382 144.635 107.315 144.521C107.249 144.407 107.153 144.312 107.038 144.247C106.911 144.172 106.767 144.129 106.62 144.12C106.449 144.087 106.278 144.065 106.113 144.015Z" fill="white"/>
<path d="M117.6 112.754C117.765 112.705 117.936 112.688 118.101 112.655C118.246 112.622 118.397 112.622 118.542 112.655C118.688 112.689 118.824 112.755 118.94 112.848C119.057 112.941 119.151 113.059 119.215 113.194C119.279 113.329 119.313 113.476 119.312 113.626C119.31 113.759 119.342 113.89 119.405 114.008C119.467 114.126 119.558 114.225 119.67 114.298C119.794 114.378 119.936 114.426 120.083 114.436C120.248 114.475 120.419 114.491 120.584 114.541C120.419 114.585 120.248 114.607 120.083 114.64C119.899 114.677 119.707 114.66 119.532 114.59C119.346 114.51 119.187 114.377 119.075 114.208C118.964 114.038 118.904 113.84 118.905 113.637C118.904 113.504 118.868 113.373 118.801 113.258C118.735 113.143 118.639 113.047 118.525 112.98C118.396 112.908 118.253 112.865 118.106 112.854C117.936 112.799 117.765 112.799 117.6 112.754Z" fill="white"/>
<path d="M88.2305 95.9447C88.4012 95.9006 88.5664 95.8785 88.7316 95.8455C88.915 95.8052 89.1062 95.8186 89.2822 95.8841C89.4734 95.9555 89.6383 96.0833 89.7554 96.2507C89.8724 96.4181 89.9359 96.617 89.9375 96.8213C89.937 96.9543 89.9694 97.0854 90.0319 97.2027C90.0944 97.3201 90.1849 97.4202 90.2954 97.4939C90.4219 97.5684 90.5626 97.6153 90.7084 97.6318C90.8791 97.6649 91.0443 97.6869 91.2095 97.731C91.0443 97.7806 90.8791 97.7972 90.7084 97.8358C90.5233 97.8678 90.3329 97.8487 90.1578 97.7806C89.9688 97.7 89.8085 97.5644 89.6975 97.3913C89.5866 97.2183 89.5301 97.0159 89.5355 96.8103C89.533 96.6784 89.4968 96.5493 89.4302 96.4354C89.3637 96.3215 89.2691 96.2266 89.1556 96.1597C89.0261 96.0839 88.8811 96.0386 88.7316 96.0274C88.5664 96.0109 88.4012 95.9943 88.2305 95.9447Z" fill="white"/>
<path d="M106.311 95.564C106.476 95.5199 106.641 95.4978 106.812 95.4648C106.995 95.4261 107.186 95.4394 107.362 95.5034C107.553 95.5759 107.718 95.7038 107.836 95.8708C107.954 96.0378 108.019 96.2362 108.023 96.4406C108.021 96.574 108.052 96.7058 108.115 96.8235C108.177 96.9412 108.269 97.0409 108.381 97.1132C108.506 97.1909 108.647 97.2381 108.794 97.2511C108.959 97.2842 109.124 97.3062 109.295 97.3503C109.124 97.3999 108.959 97.422 108.794 97.4551C108.609 97.49 108.418 97.4709 108.243 97.3999C108.057 97.32 107.898 97.187 107.786 97.0174C107.675 96.8479 107.615 96.6492 107.616 96.4461C107.614 96.3141 107.578 96.1848 107.511 96.0709C107.444 95.9569 107.35 95.862 107.236 95.7956C107.108 95.7208 106.965 95.6774 106.817 95.6688C106.647 95.6425 106.478 95.6076 106.311 95.564Z" fill="white"/>
<path d="M94.6094 78.1919C94.7746 78.1478 94.9453 78.1258 95.1105 78.0927C95.2559 78.0595 95.4068 78.0596 95.5522 78.093C95.6975 78.1263 95.8335 78.1921 95.9499 78.2853C96.0663 78.3786 96.1603 78.497 96.2247 78.6316C96.2891 78.7663 96.3223 78.9137 96.3219 79.063C96.3189 79.1965 96.3502 79.3285 96.4129 79.4463C96.4756 79.5641 96.5675 79.6637 96.6798 79.7357C96.8044 79.8152 96.9458 79.8643 97.0928 79.879C97.258 79.9121 97.4287 79.9286 97.5939 79.9782C97.4287 80.0223 97.258 80.0444 97.0928 80.0775C96.9083 80.1145 96.7171 80.0973 96.5422 80.0279C96.3557 79.9479 96.1968 79.8149 96.0852 79.6454C95.9736 79.4758 95.9142 79.2771 95.9144 79.0741C95.9134 78.9411 95.8778 78.8107 95.8112 78.6957C95.7446 78.5806 95.6492 78.4849 95.5345 78.418C95.4059 78.3457 95.263 78.3024 95.116 78.2912C94.9453 78.2581 94.7746 78.236 94.6094 78.1919Z" fill="white"/>
<path d="M83.8008 124.796C83.966 124.752 84.1312 124.73 84.2964 124.697C84.4798 124.656 84.671 124.67 84.847 124.735C85.0383 124.806 85.2039 124.932 85.3219 125.099C85.4398 125.265 85.5047 125.463 85.5078 125.667C85.5048 125.801 85.5361 125.933 85.5988 126.05C85.6615 126.168 85.7534 126.268 85.8657 126.34C85.9899 126.42 86.1316 126.469 86.2787 126.483C86.4439 126.516 86.6091 126.538 86.7743 126.582C86.6091 126.632 86.4439 126.648 86.2787 126.682C86.0942 126.717 85.9033 126.7 85.7281 126.632C85.5431 126.551 85.3857 126.417 85.2752 126.248C85.1647 126.078 85.1059 125.88 85.1058 125.678C85.1027 125.546 85.0662 125.416 84.9998 125.301C84.9334 125.187 84.8392 125.091 84.7259 125.022C84.5949 124.951 84.4505 124.907 84.3019 124.895C84.1312 124.862 83.966 124.846 83.8008 124.796Z" fill="white"/>
<path d="M103.523 155.08C103.689 155.031 103.859 155.009 104.025 154.976C104.17 154.945 104.321 154.946 104.466 154.981C104.611 155.015 104.746 155.082 104.862 155.175C104.978 155.269 105.072 155.387 105.136 155.521C105.201 155.655 105.235 155.802 105.236 155.952C105.234 156.085 105.266 156.216 105.329 156.334C105.392 156.451 105.483 156.551 105.594 156.624C105.718 156.703 105.86 156.751 106.007 156.762C106.172 156.795 106.343 156.817 106.508 156.861C106.343 156.911 106.172 156.933 106.007 156.966C105.822 157.001 105.631 156.982 105.456 156.911C105.269 156.832 105.11 156.699 104.998 156.529C104.887 156.359 104.828 156.16 104.828 155.957C104.828 155.825 104.792 155.695 104.725 155.581C104.659 155.467 104.563 155.372 104.449 155.307C104.321 155.232 104.178 155.188 104.03 155.18C103.843 155.147 103.672 155.125 103.523 155.08Z" fill="white"/>
<path d="M93.8047 138.805C93.9699 138.761 94.1351 138.739 94.3003 138.706C94.4839 138.668 94.6744 138.681 94.8509 138.744C95.0427 138.816 95.2084 138.943 95.3264 139.111C95.4443 139.278 95.5089 139.477 95.5117 139.682C95.5092 139.815 95.5408 139.947 95.6034 140.065C95.666 140.182 95.7577 140.282 95.8696 140.354C95.9942 140.433 96.1359 140.48 96.2826 140.492C96.4478 140.525 96.613 140.547 96.7837 140.591C96.613 140.641 96.4478 140.658 96.2826 140.696C96.0975 140.727 95.9073 140.708 95.732 140.641C95.547 140.56 95.3896 140.426 95.2791 140.257C95.1686 140.087 95.1098 139.89 95.1097 139.687C95.1062 139.556 95.0695 139.427 95.0031 139.313C94.9367 139.199 94.8427 139.104 94.7298 139.037C94.6016 138.959 94.4556 138.915 94.3058 138.91C94.1626 138.871 93.9699 138.855 93.8047 138.805Z" fill="white"/>
<path d="M75.8496 141.766C76.0203 141.716 76.1855 141.694 76.3507 141.661C76.4963 141.63 76.6471 141.632 76.7919 141.666C76.9368 141.701 77.0722 141.767 77.1882 141.861C77.3042 141.954 77.398 142.072 77.4627 142.207C77.5274 142.341 77.5613 142.488 77.5622 142.637C77.5607 142.77 77.5927 142.902 77.6552 143.019C77.7178 143.137 77.8089 143.237 77.9201 143.31C78.0444 143.389 78.1862 143.436 78.3331 143.448C78.5038 143.481 78.669 143.503 78.8342 143.547C78.669 143.59 78.5018 143.625 78.3331 143.652C78.148 143.686 77.9569 143.667 77.7824 143.596C77.5955 143.517 77.4362 143.384 77.3246 143.215C77.2129 143.045 77.1537 142.846 77.1547 142.643C77.1538 142.511 77.1188 142.382 77.0532 142.268C76.9875 142.154 76.8935 142.059 76.7802 141.992C76.6503 141.918 76.5053 141.875 76.3562 141.865C76.1855 141.832 76.0203 141.81 75.8496 141.766Z" fill="white"/>
<path d="M102.07 125.193C102.236 125.149 102.401 125.127 102.566 125.094C102.712 125.063 102.863 125.065 103.008 125.099C103.153 125.134 103.289 125.2 103.405 125.293C103.522 125.387 103.616 125.505 103.681 125.639C103.746 125.773 103.781 125.92 103.783 126.07C103.78 126.203 103.812 126.335 103.875 126.453C103.937 126.57 104.029 126.67 104.141 126.742C104.265 126.821 104.407 126.868 104.554 126.88C104.719 126.913 104.884 126.935 105.049 126.979C104.884 127.029 104.719 127.046 104.554 127.084C104.369 127.118 104.178 127.099 104.003 127.029C103.818 126.948 103.661 126.814 103.55 126.645C103.44 126.475 103.381 126.277 103.381 126.075C103.377 125.943 103.341 125.815 103.274 125.701C103.208 125.587 103.114 125.492 103.001 125.425C102.872 125.348 102.726 125.305 102.577 125.298C102.423 125.259 102.236 125.243 102.07 125.193Z" fill="white"/>
<path d="M125.025 147.472C125.191 147.428 125.361 147.406 125.526 147.373C125.71 147.333 125.901 147.346 126.077 147.411C126.268 147.483 126.433 147.611 126.55 147.778C126.667 147.945 126.731 148.144 126.732 148.349C126.732 148.482 126.764 148.613 126.827 148.73C126.889 148.847 126.98 148.948 127.09 149.021C127.217 149.096 127.358 149.143 127.503 149.159C127.674 149.192 127.839 149.214 128.004 149.258C127.839 149.308 127.674 149.325 127.503 149.363C127.357 149.39 127.206 149.384 127.062 149.346C126.919 149.307 126.785 149.237 126.672 149.14C126.558 149.044 126.468 148.923 126.407 148.787C126.346 148.651 126.316 148.503 126.319 148.354C126.319 148.222 126.283 148.092 126.216 147.978C126.15 147.864 126.054 147.769 125.939 147.704C125.812 147.627 125.669 147.582 125.521 147.571C125.361 147.533 125.191 147.533 125.025 147.472Z" fill="white"/>
<path d="M115.914 133.871C116.079 133.827 116.25 133.804 116.415 133.771C116.561 133.74 116.712 133.742 116.856 133.777C117.001 133.811 117.137 133.877 117.253 133.971C117.369 134.064 117.462 134.183 117.527 134.317C117.592 134.451 117.626 134.598 117.627 134.747C117.624 134.881 117.656 135.012 117.718 135.13C117.781 135.248 117.873 135.348 117.985 135.42C118.108 135.5 118.25 135.547 118.398 135.558C118.563 135.591 118.733 135.613 118.899 135.657C118.733 135.707 118.563 135.729 118.398 135.762C118.212 135.797 118.021 135.778 117.847 135.707C117.66 135.627 117.501 135.494 117.389 135.325C117.277 135.155 117.218 134.956 117.219 134.753C117.218 134.621 117.183 134.491 117.116 134.377C117.049 134.262 116.954 134.168 116.839 134.102C116.712 134.027 116.568 133.984 116.421 133.975C116.25 133.942 116.079 133.92 115.914 133.871Z" fill="white"/>
<path d="M135.287 153.691C135.458 153.647 135.623 153.625 135.788 153.592C135.934 153.561 136.085 153.563 136.229 153.597C136.374 153.632 136.51 153.698 136.626 153.792C136.742 153.885 136.835 154.003 136.9 154.138C136.965 154.272 136.999 154.419 137 154.568C136.998 154.701 137.03 154.833 137.093 154.95C137.155 155.068 137.246 155.168 137.358 155.241C137.482 155.32 137.624 155.367 137.771 155.379C137.941 155.412 138.106 155.434 138.272 155.478C138.107 155.521 137.939 155.556 137.771 155.583C137.586 155.617 137.394 155.598 137.22 155.527C137.033 155.448 136.874 155.315 136.763 155.146C136.653 154.976 136.595 154.776 136.598 154.574C136.594 154.442 136.557 154.313 136.491 154.199C136.425 154.086 136.331 153.991 136.218 153.923C136.088 153.849 135.943 153.806 135.794 153.796C135.623 153.763 135.463 153.741 135.287 153.691Z" fill="white"/>
<path d="M89.7567 105.334C89.6741 105.482 89.5695 105.615 89.4759 105.758C89.3959 105.885 89.2885 105.991 89.1617 106.071C89.0348 106.15 88.8918 106.2 88.7432 106.216C88.5947 106.232 88.4443 106.215 88.3033 106.165C88.1622 106.116 88.0342 106.035 87.9285 105.929C87.8367 105.833 87.7215 105.762 87.5941 105.723C87.4667 105.684 87.3315 105.679 87.2017 105.708C87.0579 105.741 86.9238 105.807 86.8107 105.901C86.6745 106.003 86.533 106.097 86.3867 106.183C86.4748 106.034 86.5739 105.901 86.6676 105.758C86.7756 105.6 86.9265 105.475 87.1026 105.4C87.2887 105.326 87.4921 105.309 87.6878 105.351C87.8835 105.392 88.0629 105.489 88.2039 105.631C88.2993 105.723 88.4168 105.789 88.545 105.823C88.6732 105.857 88.8079 105.857 88.9362 105.824C89.0792 105.785 89.2111 105.713 89.3217 105.615C89.4979 105.521 89.6301 105.416 89.7567 105.334Z" fill="white"/>
<path d="M83.1102 94.1693C83.0276 94.3181 82.923 94.4504 82.8294 94.5938C82.7494 94.7202 82.642 94.827 82.5152 94.9063C82.3884 94.9855 82.2454 95.0352 82.0968 95.0516C81.9482 95.068 81.7978 95.0508 81.6568 95.0011C81.5157 94.9514 81.3877 94.8706 81.2821 94.7647C81.1905 94.6678 81.0754 94.5965 80.9479 94.5578C80.8204 94.5191 80.6851 94.5144 80.5552 94.5442C80.4114 94.5764 80.2773 94.6425 80.1642 94.7371C80.0281 94.8384 79.8865 94.9323 79.7402 95.0183C79.8283 94.8695 79.9275 94.7371 80.0211 94.5938C80.1291 94.4354 80.28 94.311 80.4561 94.2354C80.6422 94.1622 80.8456 94.1451 81.0413 94.1862C81.2371 94.2273 81.4164 94.325 81.5574 94.467C81.6526 94.5595 81.77 94.6259 81.8983 94.6597C82.0266 94.6935 82.1614 94.6936 82.2898 94.66C82.4327 94.6209 82.5646 94.5492 82.6752 94.4504C82.8294 94.3567 82.9616 94.252 83.1102 94.1693Z" fill="white"/>
<path d="M116.741 124.768C116.652 124.922 116.553 125.055 116.46 125.193C116.355 125.353 116.208 125.48 116.036 125.562C115.853 125.642 115.651 125.665 115.455 125.63C115.259 125.595 115.078 125.502 114.934 125.364C114.842 125.268 114.726 125.198 114.599 125.16C114.472 125.121 114.337 125.115 114.208 125.143C114.064 125.175 113.93 125.242 113.817 125.336C113.673 125.43 113.541 125.534 113.393 125.617C113.475 125.468 113.58 125.336 113.673 125.193C113.779 125.034 113.928 124.91 114.103 124.834C114.289 124.763 114.492 124.747 114.688 124.788C114.883 124.829 115.062 124.926 115.204 125.066C115.298 125.158 115.415 125.225 115.542 125.259C115.67 125.292 115.804 125.292 115.931 125.259C116.075 125.221 116.209 125.151 116.322 125.055C116.476 124.961 116.608 124.856 116.741 124.768Z" fill="white"/>
<path d="M99.9227 88.584C99.8401 88.7329 99.7355 88.8652 99.6419 89.0086C99.5389 89.1665 99.394 89.2925 99.2234 89.3725C99.0375 89.4565 98.8307 89.4831 98.6295 89.4487C98.4284 89.4143 98.2421 89.3206 98.0946 89.1795C98.0024 89.0834 97.8873 89.0122 97.7602 88.9727C97.6331 88.9332 97.4981 88.9265 97.3677 88.9534C97.2243 88.9868 97.0905 89.0529 96.9767 89.1464C96.8336 89.2401 96.7014 89.3449 96.5527 89.4331C96.6353 89.2787 96.74 89.1464 96.8336 89.0031C96.9403 88.8447 97.0917 88.7219 97.2686 88.6502C97.4547 88.577 97.6581 88.5598 97.8538 88.601C98.0496 88.6421 98.229 88.7397 98.3699 88.8818C98.4663 88.9781 98.5858 89.0481 98.7169 89.0848C98.8481 89.1214 98.9865 89.1237 99.1188 89.0913C99.2608 89.05 99.3923 88.9785 99.5042 88.8818C99.6694 88.7715 99.7741 88.6667 99.9227 88.584Z" fill="white"/>
<path d="M88.2606 80.3365C88.178 80.4854 88.0734 80.6177 87.9798 80.761C87.8758 80.9195 87.7313 81.047 87.5613 81.1304C87.3748 81.2138 87.1677 81.2394 86.9665 81.2041C86.7654 81.1687 86.5794 81.0739 86.4324 80.9319C86.3406 80.8355 86.2254 80.7645 86.098 80.7258C85.9707 80.6872 85.8355 80.6822 85.7056 80.7114C85.5614 80.7426 85.4271 80.8089 85.3146 80.9044C85.1715 80.9981 85.0393 81.1029 84.8906 81.1856C84.9732 81.0367 85.0779 80.9044 85.1715 80.761C85.2781 80.6013 85.4294 80.4766 85.6065 80.4027C85.7926 80.3294 85.996 80.3123 86.1917 80.3534C86.3874 80.3946 86.5668 80.4922 86.7078 80.6342C86.8026 80.7272 86.9201 80.7939 87.0485 80.8277C87.1769 80.8616 87.3118 80.8614 87.4402 80.8272C87.5831 80.7881 87.715 80.7164 87.8256 80.6177C87.9798 80.524 88.1064 80.4192 88.2606 80.3365Z" fill="white"/>
<path d="M99.2672 99.0815C99.3168 99.2469 99.3333 99.4179 99.3718 99.5833C99.4059 99.7673 99.3927 99.9571 99.3333 100.135C99.2606 100.325 99.1326 100.489 98.9658 100.606C98.7989 100.723 98.6008 100.788 98.3972 100.791C98.2641 100.789 98.1326 100.821 98.0151 100.883C97.8977 100.946 97.798 101.037 97.7254 101.149C97.6454 101.273 97.5981 101.415 97.5877 101.563C97.5492 101.728 97.5326 101.899 97.4831 102.064C97.439 101.899 97.417 101.728 97.384 101.563C97.3464 101.377 97.3656 101.185 97.439 101.011C97.5177 100.824 97.6502 100.664 97.8198 100.552C97.9895 100.44 98.1885 100.381 98.3917 100.383C98.5236 100.381 98.653 100.345 98.7669 100.279C98.8808 100.212 98.9754 100.117 99.0414 100.002C99.1136 99.8735 99.1568 99.7305 99.1681 99.5833C99.2011 99.4179 99.2231 99.2469 99.2672 99.0815Z" fill="white"/>
<path d="M95.2964 128.451C95.3404 128.616 95.3624 128.787 95.3955 128.953C95.4266 129.098 95.4248 129.249 95.3904 129.394C95.3559 129.539 95.2896 129.675 95.1962 129.791C95.1029 129.907 94.9849 130.001 94.8507 130.066C94.7166 130.131 94.5697 130.165 94.4208 130.166C94.2876 130.163 94.156 130.195 94.0384 130.257C93.9209 130.32 93.8212 130.412 93.749 130.524C93.6715 130.649 93.6244 130.791 93.6114 130.937C93.5783 131.103 93.5563 131.274 93.5123 131.439C93.4627 131.274 93.4407 131.103 93.4076 130.937C93.3727 130.752 93.3918 130.561 93.4627 130.386C93.5425 130.199 93.6754 130.04 93.8447 129.929C94.0141 129.817 94.2125 129.757 94.4153 129.758C94.5474 129.757 94.677 129.721 94.791 129.654C94.905 129.588 94.9995 129.492 95.0651 129.377C95.1398 129.249 95.1831 129.106 95.1917 128.958C95.2248 128.787 95.2633 128.616 95.2964 128.451Z" fill="white"/>
<path d="M133.81 142.058C133.859 142.223 133.881 142.389 133.914 142.554C133.945 142.7 133.943 142.851 133.909 142.997C133.875 143.142 133.808 143.278 133.715 143.394C133.622 143.511 133.504 143.605 133.37 143.671C133.236 143.736 133.089 143.771 132.94 143.772C132.806 143.77 132.675 143.802 132.557 143.864C132.44 143.927 132.34 144.019 132.268 144.131C132.187 144.254 132.14 144.397 132.13 144.544C132.097 144.71 132.075 144.875 132.031 145.041C131.981 144.875 131.959 144.71 131.926 144.544C131.893 144.359 131.912 144.168 131.981 143.993C132.062 143.807 132.195 143.649 132.365 143.539C132.534 143.428 132.732 143.369 132.934 143.37C133.066 143.366 133.194 143.33 133.308 143.263C133.421 143.197 133.516 143.103 133.584 142.99C133.658 142.86 133.701 142.714 133.71 142.565C133.749 142.389 133.771 142.223 133.81 142.058Z" fill="white"/>
<path d="M115.97 103.15C116.014 103.316 116.036 103.481 116.069 103.652C116.108 103.836 116.094 104.027 116.03 104.203C115.958 104.395 115.83 104.56 115.663 104.678C115.497 104.795 115.298 104.861 115.094 104.865C114.961 104.863 114.829 104.894 114.712 104.957C114.594 105.02 114.495 105.111 114.423 105.223C114.345 105.349 114.298 105.49 114.285 105.637C114.252 105.802 114.23 105.968 114.186 106.139C114.136 105.968 114.12 105.802 114.081 105.637C114.054 105.49 114.06 105.34 114.098 105.195C114.137 105.051 114.207 104.918 114.303 104.804C114.4 104.691 114.521 104.6 114.656 104.539C114.792 104.478 114.94 104.448 115.089 104.452C115.221 104.45 115.35 104.413 115.464 104.347C115.577 104.28 115.672 104.185 115.739 104.071C115.815 103.944 115.859 103.8 115.865 103.652C115.904 103.481 115.92 103.316 115.97 103.15Z" fill="white"/>
<path d="M115.97 150.29C116.014 150.455 116.036 150.62 116.069 150.786C116.1 150.932 116.098 151.083 116.064 151.228C116.029 151.374 115.963 151.509 115.87 151.626C115.776 151.743 115.658 151.837 115.524 151.902C115.39 151.968 115.243 152.003 115.094 152.004C114.961 152.002 114.829 152.033 114.712 152.096C114.594 152.159 114.495 152.25 114.422 152.363C114.344 152.487 114.297 152.629 114.285 152.776C114.252 152.941 114.23 153.107 114.186 153.272C114.136 153.107 114.12 152.941 114.081 152.776C114.05 152.591 114.069 152.4 114.136 152.225C114.217 152.04 114.351 151.882 114.52 151.771C114.689 151.661 114.887 151.602 115.089 151.602C115.22 151.598 115.349 151.561 115.462 151.495C115.576 151.428 115.671 151.334 115.738 151.221C115.816 151.093 115.86 150.947 115.865 150.797C115.904 150.637 115.92 150.471 115.97 150.29Z" fill="white"/>
<path d="M125.027 123.302C125.077 123.467 125.093 123.638 125.126 123.803C125.159 123.949 125.159 124.1 125.126 124.246C125.093 124.391 125.027 124.527 124.934 124.644C124.841 124.761 124.722 124.855 124.588 124.919C124.453 124.984 124.306 125.017 124.157 125.016C124.024 125.014 123.892 125.046 123.775 125.109C123.657 125.172 123.558 125.263 123.485 125.375C123.405 125.499 123.358 125.641 123.347 125.788C123.309 125.954 123.292 126.125 123.243 126.29C123.199 126.125 123.177 125.954 123.144 125.788C123.106 125.603 123.125 125.411 123.199 125.237C123.277 125.05 123.409 124.891 123.577 124.779C123.746 124.667 123.944 124.608 124.146 124.608C124.279 124.607 124.409 124.572 124.524 124.505C124.639 124.438 124.734 124.343 124.801 124.228C124.873 124.099 124.917 123.956 124.928 123.809C124.961 123.638 124.999 123.467 125.027 123.302Z" fill="white"/>
<path d="M79.1276 129.504C79.1772 129.67 79.1937 129.835 79.2268 130.001C79.2598 130.146 79.2596 130.298 79.2263 130.444C79.193 130.589 79.1274 130.726 79.0344 130.843C78.9413 130.96 78.8232 131.054 78.6888 131.119C78.5543 131.185 78.407 131.219 78.2576 131.219C78.1243 131.216 77.9925 131.247 77.8748 131.31C77.7572 131.373 77.6577 131.465 77.5858 131.577C77.505 131.701 77.4576 131.843 77.4482 131.991C77.4096 132.156 77.3931 132.322 77.3435 132.487C77.2995 132.322 77.2774 132.156 77.2444 131.991C77.2082 131.806 77.2274 131.614 77.2995 131.44C77.3786 131.254 77.5107 131.096 77.6791 130.985C77.8476 130.874 78.045 130.816 78.2466 130.817C78.379 130.813 78.5084 130.777 78.6229 130.71C78.7375 130.644 78.8334 130.55 78.9019 130.436C78.9748 130.306 79.0181 130.161 79.0285 130.012C79.0616 129.835 79.0836 129.67 79.1276 129.504Z" fill="white"/>
<path d="M80.0175 103.15C80.059 103.316 80.092 103.483 80.1166 103.652C80.1573 103.835 80.1459 104.026 80.0835 104.203C80.0111 104.395 79.8833 104.56 79.7165 104.678C79.5497 104.795 79.3516 104.861 79.1474 104.865C79.0142 104.862 78.8823 104.893 78.7647 104.956C78.647 105.019 78.5475 105.111 78.4756 105.223C78.3957 105.347 78.3484 105.49 78.338 105.637C78.2994 105.802 78.2829 105.968 78.2334 106.139C78.1893 105.968 78.1673 105.802 78.1342 105.637C78.0973 105.452 78.1145 105.261 78.1838 105.086C78.2636 104.899 78.3965 104.74 78.5658 104.628C78.7352 104.516 78.9336 104.457 79.1364 104.457C79.269 104.455 79.3988 104.419 79.5135 104.352C79.6282 104.286 79.724 104.191 79.7917 104.077C79.8639 103.948 79.9071 103.805 79.9184 103.658C79.9514 103.481 79.9734 103.316 80.0175 103.15Z" fill="white"/>
<path d="M89.6198 86.0205C89.6638 86.1859 89.6859 86.3513 89.7189 86.5222C89.7576 86.706 89.7442 86.897 89.6803 87.0736C89.6079 87.2647 89.4802 87.4298 89.3134 87.5477C89.1466 87.6656 88.9484 87.7308 88.7442 87.7351C88.6111 87.7326 88.4794 87.7642 88.3619 87.827C88.2443 87.8897 88.1447 87.9814 88.0724 88.0935C87.9949 88.2187 87.9478 88.3603 87.9348 88.507C87.9017 88.6724 87.8797 88.8378 87.8357 89.0087C87.7861 88.8378 87.7696 88.6724 87.731 88.507C87.6974 88.3217 87.7164 88.1306 87.7861 87.9557C87.8674 87.7705 88.0007 87.6129 88.1699 87.5023C88.339 87.3917 88.5367 87.3327 88.7387 87.3327C88.8706 87.3307 88.9997 87.2946 89.1136 87.228C89.2274 87.1613 89.3221 87.0663 89.3885 86.9523C89.4654 86.8256 89.509 86.6814 89.5152 86.5333C89.5537 86.3348 89.5702 86.1859 89.6198 86.0205Z" fill="white"/>
<path d="M87.0436 112.501C87.0877 112.672 87.1097 112.837 87.1427 113.003C87.1737 113.149 87.1719 113.3 87.1375 113.445C87.103 113.591 87.0368 113.726 86.9435 113.843C86.8503 113.96 86.7324 114.054 86.5983 114.119C86.4642 114.185 86.3172 114.219 86.1681 114.221C86.0349 114.219 85.9032 114.25 85.7857 114.313C85.6681 114.376 85.5685 114.467 85.4963 114.58C85.4178 114.704 85.3706 114.846 85.3586 114.993C85.3256 115.158 85.3035 115.324 85.2595 115.489C85.2099 115.324 85.1879 115.158 85.1549 114.993C85.1212 114.808 85.1403 114.617 85.2099 114.442C85.2912 114.256 85.4245 114.099 85.5937 113.988C85.7628 113.878 85.9605 113.819 86.1626 113.819C86.2941 113.815 86.4226 113.778 86.5362 113.712C86.6498 113.645 86.7447 113.551 86.8123 113.438C86.8861 113.308 86.9295 113.163 86.939 113.014C86.972 112.837 87.0051 112.672 87.0436 112.501Z" fill="white"/>
<path d="M110.189 116.063C110.233 116.228 110.255 116.399 110.288 116.564C110.319 116.71 110.317 116.861 110.283 117.006C110.248 117.151 110.182 117.287 110.089 117.403C109.995 117.519 109.877 117.613 109.743 117.678C109.609 117.743 109.462 117.777 109.313 117.777C109.18 117.776 109.049 117.808 108.932 117.871C108.814 117.933 108.714 118.024 108.641 118.136C108.565 118.261 108.518 118.403 108.504 118.549C108.471 118.715 108.449 118.886 108.405 119.051C108.355 118.886 108.339 118.715 108.3 118.549C108.265 118.364 108.284 118.173 108.355 117.998C108.435 117.811 108.568 117.652 108.737 117.54C108.906 117.429 109.105 117.369 109.308 117.369C109.44 117.368 109.569 117.333 109.683 117.266C109.797 117.199 109.892 117.104 109.957 116.989C110.034 116.862 110.078 116.718 110.084 116.57C110.134 116.399 110.134 116.228 110.189 116.063Z" fill="white"/>
<path d="M88.7946 145.802C88.8387 145.973 88.8607 146.138 88.8937 146.303C88.9267 146.449 88.9266 146.601 88.8933 146.746C88.86 146.892 88.7944 147.029 88.7013 147.146C88.6083 147.263 88.4902 147.357 88.3557 147.422C88.2213 147.487 88.0739 147.521 87.9246 147.522C87.7911 147.518 87.6589 147.549 87.541 147.612C87.4232 147.674 87.3238 147.767 87.2528 147.88C87.1734 148.003 87.1243 148.143 87.1096 148.288C87.0851 148.457 87.052 148.625 87.0105 148.79C86.9664 148.625 86.9444 148.459 86.9114 148.288C86.8747 148.104 86.8919 147.912 86.9609 147.737C87.0404 147.55 87.1733 147.392 87.3429 147.281C87.5125 147.17 87.711 147.112 87.9136 147.114C88.0459 147.111 88.1754 147.074 88.2899 147.008C88.4044 146.941 88.5004 146.847 88.5688 146.734C88.6402 146.602 88.6833 146.458 88.6955 146.309C88.7285 146.138 88.7506 145.973 88.7946 145.802Z" fill="white"/>
<path d="M106.217 107.654C106.305 107.506 106.41 107.373 106.503 107.23C106.605 107.071 106.75 106.944 106.922 106.866C107.104 106.786 107.305 106.762 107.501 106.797C107.697 106.831 107.879 106.922 108.023 107.059C108.116 107.155 108.232 107.226 108.36 107.266C108.488 107.305 108.624 107.312 108.755 107.285C108.897 107.251 109.029 107.185 109.141 107.092C109.284 106.993 109.416 106.894 109.57 106.805C109.482 106.96 109.378 107.092 109.284 107.235C109.178 107.392 109.029 107.515 108.854 107.588C108.668 107.66 108.465 107.677 108.27 107.635C108.074 107.594 107.895 107.498 107.753 107.357C107.658 107.266 107.541 107.201 107.414 107.167C107.287 107.133 107.154 107.132 107.026 107.164C106.884 107.205 106.753 107.277 106.641 107.373C106.503 107.467 106.371 107.572 106.217 107.654Z" fill="white"/>
<path d="M92.7188 119.9C92.8013 119.751 92.906 119.619 92.9996 119.475C93.0796 119.349 93.187 119.242 93.3138 119.163C93.4406 119.084 93.5836 119.034 93.7322 119.017C93.8808 119.001 94.0312 119.018 94.1722 119.068C94.3132 119.118 94.4413 119.198 94.5469 119.304C94.6384 119.401 94.7536 119.473 94.8811 119.511C95.0086 119.55 95.1439 119.555 95.2738 119.525C95.4176 119.493 95.5516 119.427 95.6647 119.332C95.8009 119.231 95.9425 119.137 96.0887 119.051C96.0006 119.2 95.9015 119.332 95.8079 119.475C95.7237 119.599 95.613 119.702 95.4839 119.777C95.3548 119.852 95.2105 119.897 95.0617 119.91C94.9129 119.922 94.7632 119.9 94.6236 119.847C94.4841 119.794 94.3582 119.71 94.2551 119.602C94.1607 119.51 94.0443 119.444 93.9169 119.41C93.7896 119.376 93.6557 119.376 93.5282 119.409C93.3862 119.45 93.2547 119.522 93.1427 119.619C92.9996 119.712 92.8674 119.817 92.7188 119.9Z" fill="white"/>
<path d="M83.5703 137.94C83.6584 137.786 83.763 137.653 83.8566 137.515C83.9367 137.389 84.0441 137.282 84.1709 137.203C84.2977 137.124 84.4407 137.074 84.5893 137.058C84.7379 137.041 84.8883 137.058 85.0293 137.108C85.1703 137.158 85.2984 137.238 85.404 137.344C85.4964 137.44 85.6117 137.51 85.7389 137.549C85.8661 137.588 86.001 137.593 86.1308 137.565C86.2747 137.533 86.4087 137.467 86.5218 137.372C86.658 137.271 86.7995 137.177 86.9458 137.091C86.8577 137.24 86.7586 137.372 86.665 137.515C86.5813 137.639 86.4712 137.742 86.3425 137.817C86.2139 137.892 86.07 137.937 85.9216 137.95C85.7732 137.962 85.6239 137.94 85.4848 137.887C85.3457 137.834 85.2202 137.75 85.1176 137.642C85.0225 137.55 84.905 137.483 84.7767 137.449C84.6484 137.416 84.5136 137.416 84.3853 137.449C84.2426 137.486 84.1106 137.556 83.9998 137.653C83.8567 137.752 83.7025 137.852 83.5703 137.94Z" fill="white"/>
<path d="M87.5215 156.679C87.6096 156.53 87.7142 156.398 87.8078 156.255C87.9092 156.095 88.0546 155.969 88.2263 155.891C88.4088 155.813 88.6101 155.789 88.8056 155.823C89.0011 155.858 89.1825 155.948 89.3276 156.084C89.4195 156.18 89.5345 156.252 89.6617 156.291C89.7889 156.331 89.9241 156.337 90.0545 156.31C90.1986 156.275 90.3325 156.207 90.4455 156.111C90.5831 156.018 90.7153 155.918 90.8695 155.83C90.7813 155.984 90.6822 156.117 90.5886 156.255C90.4808 156.413 90.3299 156.538 90.1536 156.613C89.9673 156.685 89.7642 156.701 89.5688 156.66C89.3734 156.619 89.194 156.522 89.0523 156.381C88.9571 156.291 88.8406 156.225 88.7136 156.192C88.5865 156.158 88.453 156.157 88.3254 156.188C88.1834 156.23 88.052 156.301 87.94 156.398C87.8078 156.492 87.6757 156.596 87.5215 156.679Z" fill="white"/>
<path d="M105.225 136.082C105.307 135.933 105.412 135.8 105.505 135.657C105.608 135.499 105.753 135.373 105.924 135.293C106.11 135.209 106.317 135.183 106.518 135.217C106.719 135.251 106.905 135.345 107.053 135.486C107.145 135.583 107.26 135.654 107.387 135.694C107.514 135.733 107.649 135.74 107.78 135.712C107.923 135.678 108.056 135.612 108.171 135.519C108.308 135.426 108.44 135.321 108.595 135.233C108.507 135.387 108.407 135.519 108.314 135.663C108.207 135.821 108.056 135.944 107.879 136.015C107.693 136.089 107.489 136.106 107.293 136.065C107.098 136.024 106.918 135.926 106.777 135.784C106.681 135.693 106.564 135.628 106.436 135.594C106.308 135.561 106.174 135.559 106.045 135.591C105.903 135.632 105.772 135.704 105.66 135.8C105.505 135.894 105.373 135.999 105.225 136.082Z" fill="white"/>
<path d="M117.406 143.547C117.489 143.398 117.593 143.265 117.687 143.122C117.791 142.965 117.936 142.84 118.106 142.758C118.288 142.68 118.489 142.657 118.685 142.691C118.88 142.725 119.062 142.816 119.207 142.951C119.299 143.047 119.414 143.118 119.541 143.158C119.668 143.197 119.803 143.204 119.934 143.177C120.077 143.144 120.211 143.078 120.325 142.984C120.468 142.89 120.6 142.786 120.749 142.697C120.666 142.852 120.561 142.984 120.468 143.128C120.362 143.287 120.211 143.41 120.033 143.48C119.847 143.554 119.643 143.571 119.448 143.53C119.252 143.488 119.073 143.391 118.932 143.249C118.835 143.158 118.718 143.093 118.59 143.059C118.462 143.025 118.328 143.024 118.199 143.056C118.057 143.097 117.926 143.169 117.814 143.265C117.687 143.359 117.555 143.464 117.406 143.547Z" fill="white"/>
<path d="M96.918 149.214C97.0006 149.065 97.1052 148.933 97.1988 148.79C97.3002 148.63 97.4456 148.504 97.6173 148.426C97.8032 148.342 98.01 148.315 98.2112 148.35C98.4123 148.384 98.5986 148.478 98.7461 148.619C98.838 148.715 98.953 148.787 99.0803 148.826C99.2075 148.866 99.3427 148.872 99.473 148.845C99.6171 148.81 99.7511 148.742 99.864 148.646C100.002 148.553 100.134 148.453 100.288 148.365C100.2 148.52 100.101 148.652 100.007 148.79C99.9008 148.95 99.7494 149.074 99.5721 149.148C99.386 149.221 99.1826 149.238 98.9869 149.197C98.7911 149.156 98.6118 149.059 98.4708 148.917C98.3745 148.826 98.257 148.761 98.1291 148.727C98.0012 148.693 97.8669 148.692 97.7384 148.724C97.5964 148.765 97.465 148.836 97.353 148.933C97.1988 149.027 97.0666 149.132 96.918 149.214Z" fill="white"/>
<path d="M123.348 156.68C123.436 156.531 123.535 156.398 123.628 156.255C123.731 156.097 123.876 155.971 124.047 155.891C124.233 155.807 124.44 155.781 124.641 155.815C124.842 155.849 125.028 155.943 125.176 156.084C125.268 156.18 125.383 156.251 125.51 156.291C125.637 156.33 125.772 156.337 125.903 156.31C126.046 156.277 126.18 156.211 126.294 156.117C126.437 156.018 126.569 155.919 126.718 155.831C126.635 155.985 126.53 156.117 126.437 156.261C126.331 156.417 126.181 156.54 126.007 156.613C125.821 156.686 125.618 156.703 125.422 156.662C125.227 156.62 125.047 156.523 124.906 156.382C124.811 156.292 124.694 156.227 124.567 156.193C124.44 156.159 124.307 156.158 124.179 156.189C124.035 156.229 123.901 156.3 123.788 156.398C123.623 156.492 123.491 156.597 123.348 156.68Z" fill="white"/>
<path d="M126.328 136.506C126.411 136.352 126.515 136.219 126.609 136.076C126.713 135.919 126.858 135.793 127.027 135.712C127.213 135.628 127.42 135.601 127.621 135.636C127.822 135.67 128.009 135.764 128.156 135.905C128.248 136.001 128.364 136.072 128.491 136.112C128.618 136.151 128.753 136.158 128.883 136.131C129.027 136.098 129.16 136.032 129.274 135.938C129.417 135.844 129.549 135.74 129.698 135.651C129.616 135.806 129.511 135.938 129.417 136.081C129.312 136.241 129.16 136.364 128.982 136.434C128.796 136.507 128.593 136.525 128.397 136.483C128.201 136.442 128.022 136.345 127.881 136.203C127.786 136.112 127.669 136.047 127.542 136.014C127.415 135.98 127.282 135.979 127.154 136.01C127.01 136.05 126.876 136.121 126.763 136.219C126.609 136.318 126.477 136.423 126.328 136.506Z" fill="white"/>
<path d="M78.0566 151.8C78.1447 151.646 78.2439 151.513 78.3375 151.37C78.4418 151.213 78.5863 151.088 78.756 151.006C78.9419 150.922 79.1487 150.896 79.3498 150.93C79.551 150.964 79.7373 151.058 79.8848 151.199C79.977 151.295 80.092 151.366 80.2192 151.406C80.3463 151.445 80.4813 151.452 80.6117 151.425C80.7551 151.392 80.8889 151.326 81.0026 151.232C81.1458 151.138 81.278 151.034 81.4266 150.946C81.344 151.1 81.2394 151.232 81.1458 151.376C81.0411 151.534 80.8915 151.656 80.7163 151.728C80.5301 151.801 80.3268 151.818 80.1313 151.777C79.9357 151.735 79.7563 151.638 79.615 151.497C79.5198 151.406 79.4031 151.341 79.2759 151.309C79.1487 151.276 79.0152 151.276 78.8881 151.309C78.7433 151.345 78.6092 151.415 78.4972 151.513C78.3375 151.607 78.1943 151.712 78.0566 151.8Z" fill="white"/>
<path d="M76.543 120.325C76.6256 120.176 76.7302 120.043 76.8238 119.9C76.9278 119.742 77.0723 119.614 77.2423 119.531C77.4288 119.447 77.6359 119.422 77.837 119.457C78.0382 119.492 78.2242 119.587 78.3711 119.729C78.463 119.826 78.5782 119.897 78.7056 119.935C78.8329 119.974 78.9681 119.979 79.098 119.95C79.2431 119.921 79.378 119.855 79.489 119.757C79.6321 119.663 79.7643 119.558 79.913 119.476C79.8271 119.622 79.7333 119.764 79.6321 119.9C79.5263 120.058 79.3772 120.183 79.2026 120.259C79.0164 120.331 78.8131 120.348 78.6176 120.307C78.422 120.266 78.2426 120.168 78.1013 120.027C78.0067 119.935 77.8902 119.87 77.763 119.836C77.6357 119.802 77.502 119.801 77.3745 119.834C77.2302 119.874 77.0967 119.945 76.9835 120.044C76.8293 120.137 76.6972 120.242 76.543 120.325Z" fill="white"/>
<path d="M94.5104 78.3293C94.3067 79.3603 89.6592 86.1472 84.9896 86.0865C83.4698 86.059 83.2275 77.7449 83.2275 77.7449L83.0678 77.1384L80.8652 68.6038L90.7384 61.7838L92.1701 60.8796C92.1701 60.8796 92.6162 63.2559 93.1503 66.2165C93.1503 66.3544 93.1999 66.4922 93.2219 66.6411C93.2439 66.7899 93.2935 66.9608 93.3155 67.1207C93.4036 67.5618 93.4862 68.0139 93.5633 68.466C93.6239 68.8078 93.6789 69.1386 93.7285 69.5025C93.778 69.8663 93.8331 70.2192 93.8937 70.6051C94.2747 73.1628 94.4807 75.7435 94.5104 78.3293Z" fill="#EFF2F1"/>
<path d="M93.1503 66.2165C92.3616 68.6603 91.0512 70.903 89.3102 72.789C87.5691 74.675 85.4391 76.1591 83.0678 77.1384L80.8652 68.6038L90.7384 61.7838L92.1702 60.8796C92.1702 60.8796 92.6162 63.2559 93.1503 66.2165Z" fill="#999999"/>
<path d="M68.7611 55.9293C68.3537 71.3996 77.5716 73.3899 80.8755 73.4726C83.8986 73.5498 94.2068 73.4285 96.2112 58.085C98.2156 42.7414 91.1562 37.6857 84.251 37.1344C77.3458 36.583 69.1686 40.4589 68.7611 55.9293Z" fill="#EFF2F1"/>
<path d="M71.106 51.2482C71.4694 51.1876 71.7888 51.0773 72.1412 50.9836C72.5175 50.9376 72.869 50.7713 73.1434 50.5094C73.2136 50.41 73.249 50.2901 73.2441 50.1684C73.2391 50.0467 73.194 49.9301 73.1159 49.8368C72.9325 49.6767 72.7099 49.5683 72.4709 49.5227C72.2318 49.4772 71.985 49.4962 71.7557 49.5777C71.2678 49.67 70.8319 49.9413 70.5333 50.3385C70.4707 50.4332 70.4368 50.544 70.4356 50.6575C70.4343 50.771 70.4658 50.8824 70.5263 50.9785C70.5868 51.0745 70.6736 51.151 70.7764 51.1989C70.8792 51.2467 70.9937 51.2639 71.106 51.2482Z" fill="#999999"/>
<path d="M81.439 53.5087C81.0836 53.4696 80.7306 53.4107 80.3817 53.3323C80.0045 53.322 79.6409 53.1884 79.3465 52.9519C79.2676 52.8592 79.2215 52.7429 79.2155 52.6212C79.2095 52.4995 79.244 52.3793 79.3135 52.2792C79.4818 52.1031 79.694 51.9749 79.9282 51.9081C80.1624 51.8412 80.4102 51.838 80.6461 51.8988C81.1405 51.9497 81.5981 52.1837 81.9291 52.5549C82.0013 52.643 82.0462 52.7504 82.0583 52.8638C82.0703 52.9771 82.049 53.0916 81.9969 53.1929C81.9448 53.2943 81.8642 53.3782 81.7651 53.4343C81.666 53.4904 81.5526 53.5163 81.439 53.5087Z" fill="#999999"/>
<path d="M73.3872 56.2818C73.3872 56.2432 73.3101 56.3369 73.3101 56.3811C73.4148 57.4286 73.3597 58.647 72.4346 59.0605C72.4016 59.0605 72.4346 59.1267 72.4346 59.1212C73.591 58.8786 73.6515 57.2577 73.3872 56.2818Z" fill="#999999"/>
<path d="M72.3733 55.2451C70.6773 55.2451 70.7709 58.6303 72.3458 58.6468C73.9206 58.6634 73.7885 55.2617 72.3733 55.2451Z" fill="#999999"/>
<path d="M71.674 55.4933C71.4097 55.6807 71.1564 56.0115 70.8315 56.0446C70.5067 56.0777 70.1763 55.7193 69.9285 55.372C69.9285 55.3389 69.8789 55.372 69.8789 55.4106C69.8789 56.0611 70.1157 56.7338 70.7379 56.8385C71.3602 56.9433 71.7126 56.3699 71.8392 55.7358C71.8778 55.598 71.7787 55.4161 71.674 55.4933Z" fill="#999999"/>
<path d="M80.2977 65.2851C80.0389 65.5222 79.7746 65.8365 79.3891 65.8751C79.0047 65.8495 78.6297 65.7444 78.2878 65.5663C78.2803 65.5627 78.2718 65.5615 78.2636 65.5631C78.2554 65.5647 78.2479 65.569 78.2423 65.5752C78.2367 65.5814 78.2333 65.5893 78.2326 65.5976C78.2318 65.606 78.2338 65.6143 78.2383 65.6214C78.3818 65.8348 78.5807 66.005 78.8135 66.1138C79.0463 66.2226 79.3043 66.2658 79.5598 66.2389C79.7775 66.1927 79.976 66.0816 80.1294 65.9202C80.2827 65.7588 80.3836 65.5547 80.4189 65.3348C80.3968 65.2741 80.3363 65.2521 80.2977 65.2851Z" fill="#999999"/>
<path d="M75.0339 61.0562C75.0339 61.0562 74.9128 62.633 74.9513 63.3718C76.3935 63.2925 77.8397 63.4187 79.2464 63.7467C79.5768 63.8349 79.5548 63.5647 79.1804 63.3663C78.0649 62.7844 76.8011 62.5501 75.5516 62.6936C75.4855 62.4897 75.7883 60.2678 75.6727 60.2678C75.1034 60.3515 74.5478 60.5109 74.0207 60.7419C74.1859 57.4339 74.8798 54.2142 74.9954 50.9337C74.997 50.9097 74.9898 50.8859 74.9752 50.8668C74.9606 50.8477 74.9395 50.8345 74.9159 50.8298C74.8924 50.8251 74.8678 50.8291 74.847 50.8411C74.8262 50.8532 74.8104 50.8724 74.8027 50.8951C73.8335 54.2417 73.5582 58.0239 73.2994 61.4201C73.2663 61.8391 74.7476 61.1995 75.0339 61.0562Z" fill="#999999"/>
<path d="M82.385 56.3373C81.7665 56.0945 81.0901 56.0408 80.4412 56.1829C80.0933 56.262 79.7642 56.4081 79.472 56.6129C79.1709 56.8381 78.9243 57.1283 78.7507 57.462L78.4258 58.0629L79.0921 57.9913C79.5606 57.9416 80.0332 57.9416 80.5017 57.9913C80.9908 58.0341 81.4608 58.201 81.8674 58.4764C81.6011 57.9894 81.1541 57.6269 80.6229 57.4675C80.1052 57.2962 79.5577 57.2343 79.015 57.2856L79.3564 57.8369C79.6413 57.3584 80.0801 56.991 80.6009 56.7949C81.1743 56.5688 81.7736 56.4151 82.385 56.3373Z" fill="#999999"/>
<path d="M80.4735 59.0768C79.975 58.9597 79.4951 58.7741 79.0473 58.5255C78.9427 58.4593 78.5407 58.1561 78.5627 58.0679C78.6196 57.8115 78.7084 57.5633 78.8271 57.3291C78.6419 57.5373 78.5014 57.7812 78.4141 58.0458C78.4448 58.1916 78.5071 58.3288 78.5966 58.4479C78.686 58.5669 78.8004 58.6649 78.9317 58.735C79.4052 58.9868 79.9381 59.1049 80.4735 59.0768Z" fill="#999999"/>
<path d="M76.8184 63.2617C76.8184 63.2617 77.7765 64.64 78.8778 64.8054C80.1443 65.0039 80.293 63.8626 78.8778 63.2121C78.1619 62.8758 76.8184 63.2617 76.8184 63.2617Z" fill="#999999"/>
<path d="M78.8716 64.8332C78.3916 64.7335 77.9502 64.4982 77.5996 64.1551C77.8639 63.7637 78.4696 63.3281 79.8297 64.0614C80.028 64.5245 79.6756 64.9325 78.8716 64.8332Z" fill="#CCCCCC"/>
<path d="M96.1191 58.4543C93.5751 58.7741 92.7271 53.4427 92.7271 53.4427C92.7271 53.4427 87.54 53.7073 85.464 46.3195C85.7216 48.5514 86.625 50.6594 88.0631 52.3841C88.0631 52.3841 78.8617 51.8328 74.6382 44.3733C74.6382 44.3733 76.3672 48.2051 77.876 49.5227C77.876 49.5227 73.9829 48.6406 71.962 45.6083C71.962 45.6083 70.5743 50.1127 69.4014 51.3973C69.4014 51.3973 68.9995 35.348 83.9167 36.3294C83.9167 36.3294 93.2337 36.4948 96.9286 43.6952C100.623 50.8956 96.1191 58.4543 96.1191 58.4543Z" fill="#999999"/>
<path d="M93.7385 59.204C93.7385 59.204 96.8167 54.1814 99.0744 55.251C101.332 56.3206 99.2175 63.4658 96.7121 64.574C96.4005 64.739 96.0588 64.8392 95.7076 64.8684C95.3564 64.8976 95.0028 64.8553 94.6684 64.744C94.3339 64.6327 94.0254 64.4548 93.7615 64.2209C93.4976 63.987 93.2837 63.702 93.1328 63.3831L93.7385 59.204Z" fill="#EFF2F1"/>
<path d="M98.4198 57.2852C98.4583 57.2852 98.4693 57.3348 98.4198 57.3513C96.6632 58.1893 95.8207 59.915 95.259 61.6903C95.7546 60.9901 96.4594 60.5876 97.39 61.139C97.4396 61.1665 97.3901 61.2437 97.346 61.2382C97.0243 61.1556 96.6849 61.1754 96.3749 61.295C96.065 61.4146 95.8001 61.6279 95.617 61.9053C95.3086 62.3675 95.0537 62.8632 94.8571 63.3829C94.78 63.5483 94.4881 63.4821 94.5377 63.2947C94.5345 63.2801 94.5345 63.2651 94.5377 63.2506C94.3835 60.9736 95.9694 57.6656 98.4198 57.2852Z" fill="#999999"/>
<path d="M95.2631 63.769C95.271 63.9117 95.321 64.0489 95.4069 64.1632C95.4927 64.2775 95.6105 64.3637 95.7453 64.4108C95.8801 64.458 96.0258 64.4641 96.1641 64.4283C96.3023 64.3925 96.4269 64.3164 96.5219 64.2096C96.6169 64.1029 96.6781 63.9703 96.6978 63.8287C96.7175 63.6871 96.6948 63.5428 96.6326 63.4142C96.5703 63.2855 96.4713 63.1782 96.3481 63.1059C96.2249 63.0336 96.083 62.9996 95.9404 63.0081C95.8459 63.013 95.7533 63.0367 95.6679 63.0777C95.5826 63.1187 95.5062 63.1762 95.4432 63.247C95.3802 63.3178 95.3318 63.4003 95.3009 63.4899C95.27 63.5795 95.2572 63.6744 95.2631 63.769Z" fill="white"/>
<path d="M96.995 62.5724C96.9995 62.664 97.0311 62.7523 97.0858 62.8259C97.1405 62.8996 97.2159 62.9553 97.3022 62.986C97.3886 63.0167 97.4822 63.021 97.571 62.9984C97.6598 62.9757 97.74 62.9272 97.8012 62.8589C97.8624 62.7906 97.902 62.7057 97.9149 62.6148C97.9278 62.5239 97.9135 62.4313 97.8737 62.3486C97.834 62.2659 97.7706 62.1969 97.6916 62.1504C97.6126 62.1039 97.5215 62.0819 97.43 62.0872C97.3695 62.09 97.3101 62.1049 97.2554 62.1309C97.2006 62.1568 97.1516 62.1935 97.1111 62.2386C97.0706 62.2838 97.0395 62.3365 97.0196 62.3938C96.9996 62.4511 96.9913 62.5118 96.995 62.5724Z" fill="white"/>
<path d="M46.8859 92.6614L38.8887 94.5217L44.6411 119.311L52.6383 117.451L46.8859 92.6614Z" fill="#EBEBEB"/>
<path d="M27.3906 26.8625C20.7091 28.4189 14.6384 31.9238 9.94605 36.9339C5.25366 41.9441 2.15019 48.2348 1.02794 55.0106C-0.0943072 61.7865 0.815051 68.7434 3.64107 75.0019C6.4671 81.2603 11.0829 86.5395 16.905 90.1719C22.7271 93.8043 29.4941 95.6269 36.3506 95.4093C43.2071 95.1918 49.8453 92.9438 55.426 88.9496C61.0067 84.9553 65.2794 79.3942 67.7039 72.9691C70.1284 66.544 70.596 59.5434 69.0475 52.8523C68.0185 48.4062 66.1245 44.2066 63.4737 40.4938C60.8228 36.781 57.4672 33.6276 53.5985 31.2139C49.7298 28.8002 45.4239 27.1736 40.927 26.4269C36.4301 25.6803 31.8303 25.8283 27.3906 26.8625ZM41.4432 87.4373C36.1642 88.6667 30.6395 88.301 25.568 86.3863C20.4966 84.4716 16.1062 81.094 12.9522 76.6807C9.79824 72.2675 8.02235 67.0168 7.84917 61.5929C7.676 56.169 9.11332 50.8155 11.9793 46.2095C14.8454 41.6036 19.0113 37.9522 23.9503 35.7171C28.8892 33.482 34.3793 32.7637 39.726 33.653C45.0728 34.5423 50.036 36.9993 53.9879 40.7132C57.9398 44.427 60.7028 49.231 61.9275 54.5173C63.569 61.6024 62.3333 69.05 58.4921 75.2232C54.6509 81.3963 48.5186 85.7896 41.4432 87.4373Z" fill="#A6A6A6"/>
<path d="M49.6134 110.436L44.2497 111.684C42.3924 112.116 41.2365 113.974 41.6681 115.833L48.5284 145.397C48.9599 147.256 50.8154 148.413 52.6727 147.981L58.0364 146.734C59.8938 146.302 61.0496 144.444 60.6181 142.584L53.7578 113.021C53.3263 111.161 51.4707 110.004 49.6134 110.436Z" fill="#999999"/>
<g opacity="0.3">
<path d="M61.9274 54.5066C63.1515 59.7909 62.7831 65.3199 60.8689 70.3945C58.9547 75.4692 55.5806 79.8616 51.1733 83.0164C46.766 86.1712 41.5234 87.9467 36.1082 88.1185C30.6931 88.2903 25.3488 86.8506 20.7508 83.9814C16.1529 81.1123 12.5079 76.9425 10.2767 71.9994C8.04548 67.0562 7.32828 61.5617 8.21577 56.2105C9.10325 50.8592 11.5556 45.8917 15.2626 41.9358C18.9697 37.9799 23.7651 35.2134 29.0424 33.9861C32.5475 33.1702 36.1788 33.0538 39.7288 33.6437C43.2788 34.2335 46.6779 35.518 49.7319 37.4237C52.7858 39.3294 55.4348 41.819 57.5274 44.7502C59.62 47.6813 61.1151 50.9967 61.9274 54.5066Z" fill="white"/>
<path d="M62.5988 62.2358C62.1944 69.4567 58.9597 76.2259 53.5979 81.0719C48.236 85.918 41.1804 88.4492 33.9648 88.1154L62.5988 62.2358Z" fill="#EBEBEB"/>
<path d="M49.9939 37.5974L10.7708 73.0425C9.79502 71.0961 9.05555 69.0397 8.56823 66.9172C7.99747 64.4855 7.76767 61.986 7.88542 59.4908L36.8443 33.3191C41.521 33.5946 46.0488 35.0677 49.9939 37.5974Z" fill="#EBEBEB"/>
<path d="M61.1738 51.8768L23.8119 85.6348C22.1792 84.8836 20.6244 83.9732 19.1699 82.9168L58.9546 46.97C59.8587 48.526 60.6022 50.1701 61.1738 51.8768Z" fill="#EBEBEB"/>
<path d="M53.0068 39.8358L12.6659 76.2788C12.4787 76.0031 12.2914 75.7275 12.1152 75.4463L52.2248 39.2073C52.5002 39.4058 52.759 39.6097 53.0068 39.8358Z" fill="#EBEBEB"/>
<path d="M27.7107 34.3333L9.81445 50.4983C10.1173 49.7319 10.4587 48.9821 10.8332 48.2544L25.3869 35.0996C26.1413 34.8184 26.9177 34.5593 27.7107 34.3333Z" fill="#EBEBEB"/>
</g>
<path d="M105.245 88.7056C110.201 106.646 112.58 124.658 109.838 133.948C108.087 139.869 103.863 143.872 101.176 145.195C94.893 148.305 74.0508 143.894 60.4716 141.159C57.1347 140.487 65.0035 113.565 68.357 114.993C73.3129 117.094 88.4834 119.928 88.9019 120.065C89.7994 120.374 91.6551 100.907 92.9657 89.494C94.7773 73.5936 102.387 78.3461 105.245 88.7056Z" fill="#EFF2F1"/>
<path d="M34.3793 109.866C32.9036 112.275 34.8198 114.48 34.8198 114.48C33.5618 115.11 32.5642 116.162 32.0005 117.452C31.1139 119.768 34.3518 122.177 34.3518 122.177C33.1833 123.102 32.3214 124.359 31.8793 125.783C31.2516 128.087 34.1756 130.982 34.1756 130.982C33.5718 132.425 33.5072 134.038 33.9939 135.525C35.4531 139.445 41.703 140.729 45.6677 141.589C49.6324 142.449 61.6807 141.148 64.0045 141.137L69.7037 115.704C69.7037 115.704 53.0134 106.8 48.2282 106.459C44.1589 106.183 36.0368 107.164 34.3793 109.866Z" fill="#EFF2F1"/>
<path d="M35.0832 114.111C39.4885 113.389 43.8166 113.995 48.1943 114.354C48.2147 114.354 48.2343 114.362 48.2488 114.376C48.2633 114.391 48.2714 114.41 48.2714 114.431C48.2714 114.451 48.2633 114.471 48.2488 114.485C48.2343 114.5 48.2147 114.508 48.1943 114.508C43.8386 114.1 39.4609 114.558 35.1053 114.326C35.08 114.324 35.0563 114.312 35.0383 114.294C35.0203 114.277 35.009 114.253 35.0064 114.228C35.0038 114.202 35.0101 114.177 35.0241 114.156C35.0381 114.134 35.059 114.119 35.0832 114.111Z" fill="#999999"/>
<path d="M34.5099 121.863C35.5199 121.792 36.5347 121.857 37.5275 122.055C38.5884 122.195 39.6475 122.353 40.7048 122.53C42.823 122.897 44.9301 123.303 47.0263 123.748C47.1199 123.748 47.1144 123.913 47.0263 123.897C44.9118 123.55 42.7972 123.235 40.6772 122.976C39.6145 122.844 38.5517 122.728 37.4834 122.612C36.4729 122.571 35.47 122.418 34.4934 122.155C34.4634 122.143 34.4379 122.122 34.4206 122.094C34.4033 122.067 34.3949 122.035 34.3967 122.003C34.3986 121.97 34.4105 121.939 34.4308 121.914C34.4511 121.889 34.4788 121.871 34.5099 121.863Z" fill="#999999"/>
<path d="M34.2625 130.993C35.1215 130.844 36.1237 131.152 36.9717 131.312C37.9354 131.494 38.8935 131.665 39.8572 131.836C41.7845 132.178 43.7117 132.514 45.65 132.79C45.7437 132.79 45.7326 132.955 45.65 132.939C43.6787 132.674 41.7074 132.432 39.7415 132.15C38.7779 132.013 37.8087 131.864 36.8451 131.715C36.0246 131.588 34.9894 131.522 34.257 131.092C34.2479 131.087 34.2404 131.079 34.2354 131.07C34.2304 131.061 34.228 131.051 34.2286 131.04C34.2292 131.03 34.2327 131.02 34.2387 131.012C34.2447 131.003 34.2529 130.997 34.2625 130.993Z" fill="#999999"/>
<path d="M39.8179 107.231C37.819 107.49 35.5283 107.931 34.2342 109.635C33.636 110.357 33.3418 111.284 33.4138 112.22C33.5276 113.094 33.9685 113.892 34.6472 114.453C33.8483 114.711 33.1382 115.189 32.5986 115.833C32.0589 116.476 31.7116 117.259 31.5966 118.092C31.5631 118.509 31.6157 118.928 31.7512 119.324C31.8866 119.719 32.1021 120.082 32.3841 120.391C32.6594 120.716 32.9732 121.003 33.2761 121.301C33.579 121.598 33.9149 121.852 34.2287 122.111C33.8893 122.377 33.5708 122.668 33.2761 122.982C32.9456 123.3 32.6485 123.651 32.3896 124.03C31.8536 124.78 31.551 125.672 31.5195 126.593C31.5654 127.509 31.8837 128.391 32.4336 129.124C32.8807 129.882 33.5113 130.516 34.2673 130.966C34.2767 130.97 34.2875 130.971 34.2977 130.969C34.3079 130.966 34.3168 130.96 34.3227 130.951C34.3287 130.942 34.3314 130.932 34.3303 130.921C34.3293 130.911 34.3245 130.901 34.3169 130.894C33.7226 130.351 33.2188 129.716 32.8246 129.014C32.3483 128.265 32.0873 127.399 32.0702 126.511C32.1431 125.669 32.4272 124.859 32.8962 124.157C33.1294 123.776 33.383 123.407 33.6561 123.054C33.928 122.765 34.1818 122.459 34.416 122.139C34.416 122.139 33.7607 121.444 33.5294 121.146C33.2981 120.849 33.0724 120.529 32.8631 120.204C32.4198 119.586 32.2234 118.825 32.3125 118.07C32.4424 117.365 32.7623 116.709 33.2376 116.173C33.7001 115.622 34.3003 115.186 34.7849 114.646C34.8023 114.617 34.8137 114.586 34.8184 114.552C34.8231 114.519 34.8211 114.486 34.8124 114.453C33.7111 112.733 33.8488 111.101 35.0272 109.827C35.6275 109.21 36.3298 108.701 37.1032 108.322C37.9931 107.917 38.9137 107.584 39.8564 107.324C39.895 107.319 39.8784 107.225 39.8179 107.231Z" fill="#999999"/>
<path d="M76.3264 144.275C75.1535 143.911 73.9145 143.723 72.7141 143.459C71.5137 143.194 70.3023 142.946 69.0908 142.703C67.8794 142.461 66.6184 142.218 65.3849 141.987C64.1515 141.755 63.0006 141.496 61.8002 141.353C60.6412 141.24 59.473 141.266 58.32 141.43C57.1563 141.562 55.9889 141.656 54.8179 141.711C52.4585 141.825 50.0941 141.773 47.742 141.557C45.0808 141.309 42.4449 140.839 39.8621 140.151C39.8071 140.151 39.7906 140.217 39.8621 140.233C44.3401 141.73 49.0344 142.475 53.7551 142.439C54.9225 142.439 56.0954 142.367 57.2573 142.251C58.4182 142.086 59.5874 141.987 60.7594 141.953C61.9986 142.035 63.2289 142.22 64.4378 142.505C65.6547 142.731 66.8662 142.962 68.0831 143.177C69.4598 143.42 70.8364 143.668 72.2185 143.883C73.6007 144.098 74.9718 144.407 76.3264 144.506C76.4255 144.484 76.431 144.302 76.3264 144.275Z" fill="#999999"/>
<path d="M93.4302 121.179C91.6682 120.578 89.8069 120.203 87.9953 119.768C86.1836 119.332 84.35 118.913 82.5273 118.5C79.0472 117.711 75.523 117.044 72.0649 116.079C71.1563 115.826 70.2587 115.528 69.3722 115.23C68.9262 115.07 68.4911 114.894 68.0561 114.679C67.6211 114.464 67.12 114.331 66.6905 114.127C66.6409 114.094 66.6024 114.172 66.652 114.205C66.9989 114.42 67.3182 114.679 67.6762 114.888C68.0341 115.098 68.4691 115.307 68.8766 115.495C69.6215 115.836 70.3844 116.136 71.1618 116.393C72.7807 116.945 74.4657 117.325 76.1177 117.711C79.752 118.544 83.3918 119.365 87.0371 120.154C88.0614 120.374 89.0911 120.595 90.1208 120.799C91.1505 121.003 92.2739 121.256 93.3642 121.377C93.39 121.385 93.4176 121.382 93.4412 121.369C93.4649 121.356 93.4828 121.335 93.4912 121.31C93.4997 121.284 93.4981 121.256 93.4868 121.232C93.4754 121.208 93.4552 121.189 93.4302 121.179Z" fill="#999999"/>
<path d="M87.6973 114.508L112.884 117.938C112.884 117.938 108.281 91.7217 103.385 83.0382C98.5561 74.4705 93.2258 80.1327 91.1939 90.4977C88.9142 101.987 87.6973 114.508 87.6973 114.508Z" fill="#999999"/>
<path d="M110.999 114.138C110.294 113.973 109.573 113.868 108.868 113.714C108.163 113.56 107.486 113.455 106.792 113.345C105.377 113.124 103.956 112.926 102.535 112.733C99.738 112.347 96.9462 111.922 94.1378 111.63C92.5409 111.454 90.9496 111.216 89.3527 111.079C89.341 111.079 89.3298 111.083 89.3215 111.092C89.3132 111.1 89.3086 111.111 89.3086 111.123C89.3086 111.134 89.3132 111.146 89.3215 111.154C89.3298 111.162 89.341 111.167 89.3527 111.167C92.1335 111.817 94.9693 112.303 97.7887 112.76C100.608 113.218 103.383 113.648 106.192 113.957C106.979 114.039 107.767 114.144 108.559 114.183C109.352 114.221 110.184 114.293 110.993 114.309C111.016 114.31 111.038 114.302 111.054 114.286C111.071 114.271 111.081 114.249 111.081 114.227C111.082 114.204 111.074 114.182 111.058 114.165C111.043 114.149 111.021 114.139 110.999 114.138Z" fill="#999999"/>
<path d="M124.796 19.0228C124.473 22.1243 123.295 25.0749 121.394 27.5452C119.494 30.0155 116.945 31.9084 114.032 33.0126C111.119 34.1168 107.957 34.3889 104.899 33.7985C101.841 33.2081 99.0067 31.7784 96.7128 29.669L88.2988 30.9095L92.5113 23.6264C91.5453 21.2559 91.1319 18.6961 91.3026 16.1416C91.4733 13.5871 92.2235 11.1052 93.4962 8.88468C94.769 6.66414 96.5307 4.76343 98.6474 3.32711C100.764 1.89079 103.18 0.956685 105.712 0.595828C108.243 0.23497 110.824 0.45687 113.257 1.24465C115.69 2.03242 117.911 3.36533 119.752 5.142C121.593 6.91867 123.006 9.09231 123.882 11.4976C124.757 13.9029 125.074 16.4766 124.807 19.0228H124.796Z" fill="white"/>
<path d="M124.797 19.0227C124.474 22.1266 123.3 25.0805 121.405 27.5574C120.474 28.8041 119.36 29.9026 118.101 30.8157C115.599 32.6959 112.629 33.8517 109.516 34.1568C108.74 34.2294 107.959 34.2442 107.181 34.2009C106.401 34.1838 105.624 34.1026 104.857 33.9583C101.757 33.3897 98.8755 31.9674 96.537 29.8509L96.7353 29.9115L88.3378 31.2017L87.7266 31.2954L88.0349 30.7441L92.2199 23.4499V23.7366C90.9972 20.724 90.661 17.4239 91.2508 14.2261C91.8407 11.0283 93.3321 8.06622 95.5489 5.68958C97.7657 3.31294 100.615 1.62096 103.762 0.813393C106.908 0.00582734 110.219 0.116393 113.304 1.13204C115.734 1.95862 117.949 3.31867 119.786 5.11265C121.619 6.89952 123.023 9.08022 123.891 11.49C124.759 13.8998 125.069 16.4756 124.797 19.0227ZM124.797 19.0227C125.062 16.4896 124.743 13.9293 123.865 11.5388C122.987 9.14826 121.573 6.99133 119.732 5.23395C117.89 3.47657 115.671 2.16558 113.244 1.40188C110.817 0.638185 108.247 0.442132 105.733 0.828805C103.237 1.20516 100.86 2.14808 98.7837 3.58546C96.7273 5.03527 95.0116 6.91679 93.7562 9.09878C92.516 11.2812 91.7856 13.7165 91.6197 16.222C91.467 18.7238 91.8714 21.2284 92.8036 23.5547L92.8642 23.7091L92.7871 23.8469L88.5525 31.1134L88.2497 30.6669L96.6692 29.487H96.7848L96.8674 29.5642C99.1166 31.6689 101.906 33.1062 104.923 33.7157C105.675 33.87 106.437 33.9641 107.203 33.9969C107.97 34.0493 108.739 34.0493 109.505 33.9969C111.04 33.8771 112.55 33.5431 113.993 33.0045C115.447 32.4747 116.815 31.7315 118.051 30.7992C118.673 30.343 119.265 29.8476 119.824 29.3161C120.369 28.7688 120.88 28.1888 121.355 27.5794C123.272 25.1015 124.463 22.1391 124.797 19.0227Z" fill="#999999"/>
<path d="M112.639 16.988C112.639 17.8653 112.544 18.626 112.352 19.27C112.166 19.9093 111.909 20.439 111.582 20.859C111.256 21.279 110.868 21.5917 110.42 21.797C109.977 22.0023 109.501 22.105 108.992 22.105C108.479 22.105 108.001 22.0023 107.557 21.797C107.119 21.5917 106.736 21.279 106.409 20.859C106.083 20.439 105.826 19.9093 105.639 19.27C105.453 18.626 105.359 17.8653 105.359 16.988C105.359 16.1107 105.453 15.35 105.639 14.706C105.826 14.062 106.083 13.53 106.409 13.11C106.736 12.6853 107.119 12.3703 107.557 12.165C108.001 11.9597 108.479 11.857 108.992 11.857C109.501 11.857 109.977 11.9597 110.42 12.165C110.868 12.3703 111.256 12.6853 111.582 13.11C111.909 13.53 112.166 14.062 112.352 14.706C112.544 15.35 112.639 16.1107 112.639 16.988ZM111.344 16.988C111.344 16.2227 111.279 15.581 111.148 15.063C111.022 14.5403 110.85 14.1203 110.63 13.803C110.416 13.4857 110.166 13.2593 109.881 13.124C109.597 12.984 109.3 12.914 108.992 12.914C108.684 12.914 108.388 12.984 108.103 13.124C107.819 13.2593 107.569 13.4857 107.354 13.803C107.14 14.1203 106.967 14.5403 106.836 15.063C106.71 15.581 106.647 16.2227 106.647 16.988C106.647 17.7533 106.71 18.395 106.836 18.913C106.967 19.431 107.14 19.8487 107.354 20.166C107.569 20.4833 107.819 20.712 108.103 20.852C108.388 20.9873 108.684 21.055 108.992 21.055C109.3 21.055 109.597 20.9873 109.881 20.852C110.166 20.712 110.416 20.4833 110.63 20.166C110.85 19.8487 111.022 19.431 111.148 18.913C111.279 18.395 111.344 17.7533 111.344 16.988Z" fill="#CCCCCC"/>
</svg>
