<svg width="306" height="123" viewBox="0 0 306 123" fill="none" xmlns="http://www.w3.org/2000/svg">
<g clip-path="url(#clip0_828_2000)">
<rect width="306" height="123" rx="10" fill="#E1EBF3"/>
<path d="M30.7501 84.6011C30.7501 99.7889 18.438 112.101 3.25013 112.101C-11.9377 112.101 -24.2499 99.7889 -24.2499 84.6011C-24.2499 69.4132 -39.4378 21 -24.25 21C-9.06217 21 30.7501 69.4132 30.7501 84.6011Z" fill="#97D8C4"/>
<path d="M346.242 100.293C346.242 132.602 303.809 202.793 271.5 202.793C239.191 202.793 213 176.602 213 144.293C213 111.984 224.191 69.0036 256.5 69.0036C288.809 69.0036 346.242 67.9843 346.242 100.293Z" fill="#24164c"/>
<circle cx="101" cy="-11" r="52" fill="#F18902"/>
<circle cx="275.5" cy="29.5" r="14.5" fill="white"/>
<path d="M271 30.25C271.69 30.25 272.25 29.6904 272.25 29C272.25 28.3096 271.69 27.75 271 27.75C270.31 27.75 269.75 28.3096 269.75 29C269.75 29.6904 270.31 30.25 271 30.25Z" fill="black"/>
<path d="M276 30.25C276.69 30.25 277.25 29.6904 277.25 29C277.25 28.3096 276.69 27.75 276 27.75C275.31 27.75 274.75 28.3096 274.75 29C274.75 29.6904 275.31 30.25 276 30.25Z" fill="black"/>
<path d="M281 30.25C281.69 30.25 282.25 29.6904 282.25 29C282.25 28.3096 281.69 27.75 281 27.75C280.31 27.75 279.75 28.3096 279.75 29C279.75 29.6904 280.31 30.25 281 30.25Z" fill="black"/>
</g>
<defs>
<clipPath id="clip0_828_2000">
<rect width="306" height="123" rx="10" fill="white"/>
</clipPath>
</defs>
</svg>
