<svg width="12" height="7" viewBox="0 0 12 7" fill="none" xmlns="http://www.w3.org/2000/svg">
<path d="M11.8337 1.47527C11.8341 1.59977 11.8067 1.72277 11.7533 1.83526C11.7 1.94774 11.6221 2.04684 11.5254 2.12527L6.52539 6.15027C6.37628 6.27284 6.18925 6.33984 5.99623 6.33984C5.80321 6.33984 5.61617 6.27284 5.46706 6.15027L0.467059 1.9836C0.296879 1.84216 0.189858 1.6389 0.169542 1.41854C0.149225 1.19819 0.217277 0.978785 0.358726 0.808604C0.500175 0.638423 0.703434 0.531403 0.923789 0.511087C1.14414 0.490771 1.36355 0.558822 1.53373 0.700271L6.00039 4.42527L10.4671 0.825271C10.5894 0.723368 10.7383 0.658637 10.8963 0.638738C11.0542 0.618838 11.2146 0.644602 11.3584 0.712982C11.5021 0.781362 11.6233 0.889495 11.7076 1.02459C11.7918 1.15968 11.8356 1.31608 11.8337 1.47527Z" fill="#323232"/>
</svg>
