<svg width="12" height="7" viewBox="0 0 12 7" fill="none" xmlns="http://www.w3.org/2000/svg">
<path d="M0.166274 5.52473C0.165851 5.40023 0.193327 5.27723 0.246684 5.16474C0.300041 5.05226 0.377924 4.95316 0.474607 4.87473L5.47461 0.84973C5.62372 0.727161 5.81075 0.660156 6.00377 0.660156C6.19679 0.660156 6.38383 0.727161 6.53294 0.84973L11.5329 5.0164C11.7031 5.15785 11.8101 5.3611 11.8305 5.58146C11.8508 5.80181 11.7827 6.02122 11.6413 6.1914C11.4998 6.36158 11.2966 6.4686 11.0762 6.48891C10.8559 6.50923 10.6365 6.44118 10.4663 6.29973L5.99961 2.57473L1.53294 6.17473C1.41062 6.27663 1.26167 6.34136 1.10371 6.36126C0.945754 6.38116 0.785401 6.3554 0.641628 6.28702C0.497855 6.21864 0.376678 6.1105 0.292437 5.97541C0.208195 5.84032 0.164413 5.68392 0.166274 5.52473Z" fill="#323232"/>
</svg>
