<svg width="24" height="24" viewBox="0 0 24 24" fill="none" xmlns="http://www.w3.org/2000/svg">
<path d="M13.8297 19C13.6803 19.0005 13.5327 18.9676 13.3977 18.9035C13.2627 18.8395 13.1438 18.7461 13.0497 18.63L8.21968 12.63C8.07259 12.4511 7.99219 12.2267 7.99219 11.995C7.99219 11.7634 8.07259 11.539 8.21968 11.36L13.2197 5.36003C13.3894 5.15581 13.6333 5.02739 13.8978 5.00301C14.1622 4.97863 14.4255 5.06029 14.6297 5.23003C14.8339 5.39977 14.9623 5.64368 14.9867 5.90811C15.0111 6.17253 14.9294 6.43581 14.7597 6.64003L10.2897 12L14.6097 17.36C14.732 17.5068 14.8096 17.6856 14.8335 17.8751C14.8574 18.0647 14.8265 18.2571 14.7444 18.4296C14.6624 18.6021 14.5326 18.7475 14.3705 18.8486C14.2084 18.9497 14.0207 19.0023 13.8297 19Z" fill="#323232"/>
</svg>
