<svg width="20" height="20" viewBox="0 0 20 20" fill="none" xmlns="http://www.w3.org/2000/svg">
<path d="M3.31513 8.20033C3.34865 7.78266 3.53826 7.39295 3.8462 7.1088C4.15413 6.82465 4.55779 6.66691 4.9768 6.66699H15.0251C15.4441 6.66691 15.8478 6.82465 16.1557 7.1088C16.4637 7.39295 16.6533 7.78266 16.6868 8.20033L17.356 16.5337C17.3744 16.763 17.3451 16.9936 17.27 17.2111C17.1949 17.4286 17.0756 17.6281 16.9196 17.7972C16.7635 17.9663 16.5742 18.1012 16.3635 18.1936C16.1528 18.2859 15.9252 18.3336 15.6951 18.3337H4.3068C4.07674 18.3336 3.84918 18.2859 3.63845 18.1936C3.42772 18.1012 3.23839 17.9663 3.08238 17.7972C2.92637 17.6281 2.80705 17.4286 2.73194 17.2111C2.65683 16.9936 2.62756 16.763 2.64597 16.5337L3.31513 8.20033V8.20033Z" stroke="#999999" stroke-width="1.3" stroke-linecap="round" stroke-linejoin="round"/>
<path d="M13.3346 9.16699V5.00033C13.3346 4.11627 12.9834 3.26842 12.3583 2.6433C11.7332 2.01818 10.8854 1.66699 10.0013 1.66699C9.11725 1.66699 8.2694 2.01818 7.64428 2.6433C7.01916 3.26842 6.66797 4.11627 6.66797 5.00033V9.16699" stroke="#999999" stroke-width="1.3" stroke-linecap="round" stroke-linejoin="round"/>
</svg>
