<svg width="50" height="38" viewBox="0 0 50 38" fill="none" xmlns="http://www.w3.org/2000/svg">
<path d="M49.8891 7.08449C49.8937 6.47261 49.7272 5.87163 49.4084 5.34938C49.0895 4.82713 48.631 4.40441 48.0847 4.12893C47.5668 3.85082 46.9807 3.72513 46.3942 3.76642C45.8078 3.80772 45.2451 4.01431 44.7713 4.36226L37.4447 9.04449V3.44448C37.4447 2.61937 37.1169 1.82804 36.5334 1.2446C35.95 0.661151 35.1587 0.333374 34.3335 0.333374H6.33355C4.68331 0.333374 3.10067 0.988927 1.93377 2.15582C0.766882 3.32271 0.111328 4.90536 0.111328 6.5556V31.4445C0.111328 33.0947 0.766882 34.6774 1.93377 35.8443C3.10067 37.0112 4.68331 37.6667 6.33355 37.6667H34.3335C35.1587 37.6667 35.95 37.3389 36.5334 36.7555C37.1169 36.172 37.4447 35.3807 37.4447 34.5556V28.9556L44.6624 33.6223C45.1453 33.992 45.7229 34.2174 46.3286 34.2725C46.9342 34.3275 47.5431 34.21 48.0847 33.9334C48.6407 33.6533 49.1056 33.2208 49.4251 32.6865C49.7446 32.1521 49.9055 31.538 49.8891 30.9156V7.08449ZM46.6691 31.0867C46.5758 31.0867 46.498 31.0867 46.3735 30.9934L34.3335 23.3089V34.5556H6.33355C5.50843 34.5556 4.71711 34.2278 4.13366 33.6444C3.55022 33.0609 3.22244 32.2696 3.22244 31.4445V6.5556C3.22244 5.73048 3.55022 4.93916 4.13366 4.35571C4.71711 3.77226 5.50843 3.44448 6.33355 3.44448H34.3335V14.6912L46.4669 6.91337C46.4962 6.89189 46.5316 6.8803 46.568 6.8803C46.6044 6.8803 46.6398 6.89189 46.6691 6.91337C46.7031 6.92656 46.732 6.95027 46.7516 6.98106C46.7712 7.01184 46.7805 7.04808 46.778 7.08449V30.9156C46.7805 30.952 46.7712 30.9882 46.7516 31.019C46.732 31.0498 46.7031 31.0735 46.6691 31.0867Z" fill="#323232"/>
</svg>
