<svg width="29" height="29" viewBox="0 0 29 29" fill="none" xmlns="http://www.w3.org/2000/svg">
<path d="M9.82422 14.9502C9.91251 17.3514 11.9588 19.3486 14.4192 19.4347L9.82422 14.9502Z" fill="white"/>
<path d="M5.0348 24.1088H19.2086L16.8222 21.7797H5.0348V10.2755L2.82026 8.11413C2.7076 8.38613 2.64928 8.67666 2.64844 8.97005V21.7797C2.64844 23.0642 3.71872 24.1088 5.0348 24.1088ZM24.1257 6.64101H21.0401L17.8102 3.48867C17.6996 3.38032 17.5681 3.29439 17.4233 3.23583C17.2786 3.17727 17.1233 3.14724 16.9666 3.14746L14.5803 3.14746L12.1939 3.14746C12.0372 3.1473 11.882 3.17737 11.7372 3.23592C11.5925 3.29447 11.461 3.38037 11.3503 3.48867L8.12037 6.64101H7.91514L4.6852 3.48867L2.99804 5.13529L24.4753 26.0966L26.1625 24.45L25.4155 23.721C25.7507 23.5134 26.0269 23.2267 26.2185 22.8874C26.4102 22.5481 26.5111 22.1672 26.5121 21.7797V8.97005C26.5121 7.68558 25.4418 6.64101 24.1257 6.64101ZM16.87 15.3807L13.9777 12.5568C14.1722 12.5032 14.3726 12.4636 14.5803 12.4636C15.851 12.4636 16.9666 13.5524 16.9666 14.7926C16.9666 14.9953 16.9272 15.1909 16.87 15.3807ZM18.6621 17.1287C19.1067 16.4262 19.3457 15.6183 19.353 14.7926C19.353 12.268 17.1671 10.1346 14.5803 10.1346C13.7104 10.1346 12.8955 10.3908 12.1855 10.8088L9.70492 8.38779L12.6879 5.4765H16.4726L19.7026 8.62884C19.8132 8.73719 19.9447 8.82312 20.0895 8.88168C20.2342 8.94024 20.3895 8.97027 20.5462 8.97005L24.1257 8.96888V21.7797H23.4265L18.6621 17.1287Z" fill="white"/>
</svg>
