<svg width="28" height="28" viewBox="0 0 28 28" fill="none" xmlns="http://www.w3.org/2000/svg">
<path d="M14.0007 9.33301C11.4713 9.33301 9.33398 11.4703 9.33398 13.9997C9.33398 16.529 11.4713 18.6663 14.0007 18.6663C16.53 18.6663 18.6673 16.529 18.6673 13.9997C18.6673 11.4703 16.53 9.33301 14.0007 9.33301ZM14.0007 16.333C12.7582 16.333 11.6673 15.2422 11.6673 13.9997C11.6673 12.7572 12.7582 11.6663 14.0007 11.6663C15.2432 11.6663 16.334 12.7572 16.334 13.9997C16.334 15.2422 15.2432 16.333 14.0007 16.333Z" fill="white"/>
<path d="M23.334 5.83301H20.317L17.1588 2.67484C17.0507 2.56629 16.9221 2.48021 16.7805 2.42154C16.639 2.36287 16.4872 2.33279 16.334 2.33301H11.6673C11.5141 2.33279 11.3623 2.36287 11.2208 2.42154C11.0792 2.48021 10.9506 2.56629 10.8425 2.67484L7.68432 5.83301H4.66732C3.38048 5.83301 2.33398 6.87951 2.33398 8.16634V20.9997C2.33398 22.2865 3.38048 23.333 4.66732 23.333H23.334C24.6208 23.333 25.6673 22.2865 25.6673 20.9997V8.16634C25.6673 6.87951 24.6208 5.83301 23.334 5.83301ZM4.66732 20.9997V8.16634H8.16732C8.47765 8.16634 8.77398 8.04384 8.99215 7.82451L12.1503 4.66634H15.851L19.0092 7.82451C19.1173 7.93306 19.2459 8.01914 19.3874 8.07781C19.529 8.13648 19.6808 8.16656 19.834 8.16634H23.334L23.3363 20.9997H4.66732Z" fill="white"/>
</svg>
