<svg width="30" height="30" viewBox="0 0 30 30" fill="none" xmlns="http://www.w3.org/2000/svg">
<path d="M26.5625 9.14994C26.789 9.14995 27.0079 9.23002 27.1787 9.37535C27.3494 9.52068 27.4604 9.72143 27.4913 9.94048L27.5 10.0649V20.4347C27.5001 21.4474 27.1031 22.4218 26.3904 23.1579C25.6778 23.894 24.7035 24.3361 23.6675 24.3935L23.4375 24.3996H7.57625L8.47625 25.2779C8.63484 25.433 8.73114 25.6385 8.74766 25.857C8.76417 26.0755 8.6998 26.2925 8.56625 26.4686L8.475 26.5711C8.31627 26.7261 8.10582 26.8203 7.88194 26.8366C7.65805 26.853 7.43559 26.7904 7.255 26.6602L7.15 26.5711L4.65 24.1312L4.57 24.0433C4.56706 24.0393 4.56415 24.0352 4.56125 24.0311L4.64875 24.1312C4.50617 23.9909 4.41373 23.8095 4.38513 23.6139C4.35653 23.4184 4.39331 23.219 4.49 23.0454C4.53331 22.9694 4.58715 22.8996 4.65 22.838L7.15 20.3981C7.3175 20.2359 7.54151 20.1413 7.77733 20.1332C8.01314 20.1251 8.24341 20.204 8.42219 20.3543C8.60097 20.5046 8.71509 20.7152 8.7418 20.944C8.7685 21.1728 8.70581 21.4031 8.56625 21.5888L8.475 21.6912L7.575 22.5696H23.4375C23.9867 22.5696 24.5158 22.3679 24.9196 22.0047C25.3235 21.6415 25.5726 21.1433 25.6175 20.6091L25.625 20.4347V10.0649C25.625 9.82225 25.7238 9.58952 25.8996 9.41793C26.0754 9.24634 26.3139 9.14994 26.5625 9.14994ZM22.745 2.61944L22.85 2.7085L25.35 5.14844C25.382 5.17926 25.4116 5.21228 25.4388 5.24725L25.3513 5.14844C25.5254 5.31946 25.6235 5.5505 25.6244 5.79158C25.6254 6.03267 25.529 6.26442 25.3563 6.43673L25.35 6.44161L22.85 8.88155C22.6825 9.04375 22.4585 9.13834 22.2227 9.14645C21.9869 9.15455 21.7566 9.07557 21.5778 8.92527C21.399 8.77497 21.2849 8.5644 21.2582 8.33558C21.2315 8.10677 21.2942 7.87654 21.4338 7.69085L21.525 7.58838L22.4225 6.71H6.5625C6.01351 6.71002 5.4846 6.9115 5.08076 7.27445C4.67692 7.63741 4.42767 8.13529 4.3825 8.66927L4.375 8.84495V19.2147C4.37493 19.4465 4.28469 19.6697 4.12253 19.8391C3.96037 20.0085 3.73838 20.1115 3.5014 20.1273C3.26442 20.1431 3.03014 20.0705 2.84588 19.9242C2.66162 19.7779 2.54113 19.5688 2.50875 19.3391L2.5 19.2147V8.84495C2.49993 7.8322 2.89694 6.85782 3.60959 6.12169C4.32224 5.38556 5.29649 4.94348 6.3325 4.88614L6.5625 4.88004H22.4237L21.5238 4.00166C21.3652 3.84659 21.2689 3.64112 21.2523 3.42262C21.2358 3.20412 21.3002 2.98708 21.4338 2.81097L21.525 2.7085C21.6837 2.55354 21.8942 2.45932 22.1181 2.44298C22.342 2.42664 22.5644 2.48925 22.745 2.61944ZM15 9.75992C16.3261 9.75992 17.5979 10.2741 18.5355 11.1892C19.4732 12.1044 20 13.3456 20 14.6398C20 15.934 19.4732 17.1752 18.5355 18.0904C17.5979 19.0056 16.3261 19.5197 15 19.5197C13.6739 19.5197 12.4021 19.0056 11.4645 18.0904C10.5268 17.1752 10 15.934 10 14.6398C10 13.3456 10.5268 12.1044 11.4645 11.1892C12.4021 10.2741 13.6739 9.75992 15 9.75992ZM15 11.5899C14.1712 11.5899 13.3763 11.9112 12.7903 12.4832C12.2042 13.0552 11.875 13.8309 11.875 14.6398C11.875 15.4487 12.2042 16.2245 12.7903 16.7964C13.3763 17.3684 14.1712 17.6897 15 17.6897C15.8288 17.6897 16.6237 17.3684 17.2097 16.7964C17.7958 16.2245 18.125 15.4487 18.125 14.6398C18.125 13.8309 17.7958 13.0552 17.2097 12.4832C16.6237 11.9112 15.8288 11.5899 15 11.5899Z" fill="white"/>
</svg>
