<svg width="24" height="24" viewBox="0 0 24 24" fill="none" xmlns="http://www.w3.org/2000/svg">
<path d="M12.7498 3.94006C13.7498 3.22006 14.9098 2.86006 16.2198 2.86006C16.9398 2.86006 17.7298 3.05006 18.5898 3.45006C19.4498 3.84006 20.1298 4.30006 20.6298 4.83006C21.6598 6.11006 22.0898 7.60006 21.9398 9.30006C21.7798 11.0001 21.2198 12.3301 20.2498 13.2701L12.6598 20.8601C12.4698 21.0501 12.2298 21.1401 11.9498 21.1401C11.6698 21.1401 11.4398 21.0501 11.2498 20.8601C11.1574 20.769 11.0849 20.6597 11.0367 20.5393C10.9885 20.4188 10.9658 20.2897 10.9698 20.1601C10.9698 19.8801 11.0598 19.6401 11.2498 19.4501L15.8398 14.8601C16.0898 14.6401 16.0898 14.4101 15.8398 14.1601C15.5898 13.9101 15.3598 13.9101 15.1398 14.1601L10.5498 18.7501C10.4572 18.8433 10.3464 18.9163 10.2242 18.9645C10.102 19.0127 9.97108 19.035 9.8398 19.0301C9.5598 19.0301 9.3298 18.9401 9.1398 18.7501C9.04745 18.659 8.9749 18.5497 8.92672 18.4293C8.87854 18.3088 8.85576 18.1797 8.8598 18.0501C8.8598 17.7701 8.9498 17.5301 9.1398 17.3401L13.7298 12.7501C13.9998 12.5001 13.9998 12.2501 13.7298 12.0001C13.4998 11.7501 13.2798 11.7501 13.0298 12.0001L8.4398 16.6401C8.3462 16.7318 8.23514 16.8039 8.11318 16.852C7.99123 16.9001 7.86086 16.9232 7.7298 16.9201C7.4498 16.9201 7.2098 16.8301 6.9998 16.6401C6.7998 16.4501 6.6998 16.2201 6.6998 15.9401C6.6998 15.6601 6.8098 15.4101 7.0298 15.1901L11.6298 10.5901C11.8798 10.3401 11.8798 10.1101 11.6298 9.89006C11.3798 9.67006 11.1398 9.67006 10.9198 9.89006L6.2798 14.5001C6.0598 14.7001 5.8298 14.8101 5.5798 14.8101C5.2998 14.8101 5.0598 14.7101 4.8798 14.5001C4.6898 14.3001 4.5898 14.0601 4.5898 13.7801C4.5898 13.5001 4.6898 13.2701 4.8798 13.0801C7.9398 10.0001 9.8298 8.14006 10.5498 7.45006L14.1098 10.9701C14.4998 11.3401 14.9498 11.5301 15.4998 11.5301C16.1998 11.5301 16.7498 11.2501 17.1598 10.6901C17.4398 10.2801 17.5398 9.83006 17.4598 9.33006C17.3798 8.83006 17.1698 8.41006 16.8298 8.06006L12.7498 3.94006ZM14.8098 10.2701L10.5498 6.00006L3.4698 13.0801C2.6298 12.2301 2.1498 10.9301 2.0398 9.16006C1.9298 7.40006 2.4098 5.87006 3.4698 4.59006C4.6598 3.41006 6.0798 2.81006 7.7298 2.81006C9.3898 2.81006 10.7998 3.41006 11.9498 4.59006L16.2198 8.86006C16.4098 9.05006 16.4998 9.28006 16.4998 9.56006C16.4998 9.84006 16.4098 10.0801 16.2198 10.2701C16.0298 10.4501 15.7998 10.5501 15.4998 10.5501C15.2298 10.5501 14.9998 10.4501 14.8098 10.2701Z" fill="black"/>
</svg>
