<svg width="100" height="100" viewBox="0 0 100 100" fill="none" xmlns="http://www.w3.org/2000/svg">
<g clip-path="url(#clip0_1042_5491)">
<path d="M50 93.75C38.3968 93.75 27.2688 89.1406 19.0641 80.9359C10.8594 72.7312 6.25 61.6032 6.25 50C6.25 38.3968 10.8594 27.2688 19.0641 19.0641C27.2688 10.8594 38.3968 6.25 50 6.25C61.6032 6.25 72.7312 10.8594 80.9359 19.0641C89.1406 27.2688 93.75 38.3968 93.75 50C93.75 61.6032 89.1406 72.7312 80.9359 80.9359C72.7312 89.1406 61.6032 93.75 50 93.75ZM50 100C63.2608 100 75.9785 94.7322 85.3553 85.3553C94.7322 75.9785 100 63.2608 100 50C100 36.7392 94.7322 24.0215 85.3553 14.6447C75.9785 5.26784 63.2608 0 50 0C36.7392 0 24.0215 5.26784 14.6447 14.6447C5.26784 24.0215 0 36.7392 0 50C0 63.2608 5.26784 75.9785 14.6447 85.3553C24.0215 94.7322 36.7392 100 50 100Z" fill="#F4B942"/>
<path d="M32.8451 36.1625C32.8365 36.3643 32.8693 36.5658 32.9415 36.7545C33.0137 36.9432 33.1237 37.1151 33.2648 37.2597C33.4059 37.4043 33.5751 37.5185 33.7619 37.5953C33.9488 37.6721 34.1493 37.7098 34.3513 37.7063H39.5076C40.3701 37.7063 41.0576 37 41.1701 36.1438C41.7326 32.0437 44.5451 29.0563 49.5576 29.0563C53.8451 29.0563 57.7701 31.2 57.7701 36.3562C57.7701 40.325 55.4326 42.15 51.7388 44.925C47.5326 47.9813 44.2013 51.55 44.4388 57.3438L44.4576 58.7C44.4641 59.1101 44.6317 59.5011 44.924 59.7887C45.2163 60.0764 45.61 60.2375 46.0201 60.2375H51.0888C51.5032 60.2375 51.9007 60.0729 52.1937 59.7799C52.4867 59.4868 52.6513 59.0894 52.6513 58.675V58.0187C52.6513 53.5312 54.3576 52.225 58.9638 48.7312C62.7701 45.8375 66.7388 42.625 66.7388 35.8813C66.7388 26.4375 58.7638 21.875 50.0326 21.875C42.1138 21.875 33.4388 25.5625 32.8451 36.1625ZM42.5763 72.1812C42.5763 75.5125 45.2326 77.975 48.8888 77.975C52.6951 77.975 55.3138 75.5125 55.3138 72.1812C55.3138 68.7312 52.6888 66.3063 48.8826 66.3063C45.2326 66.3063 42.5763 68.7312 42.5763 72.1812Z" fill="#F4B942"/>
</g>
<defs>
<clipPath id="clip0_1042_5491">
<rect width="100" height="100" fill="white"/>
</clipPath>
</defs>
</svg>
