<svg width="15" height="15" viewBox="0 0 15 15" fill="none" xmlns="http://www.w3.org/2000/svg">
<path d="M1.31751 13.934L1.31635 13.934C1.28166 13.9339 1.24737 13.9267 1.21565 13.9126C1.18393 13.8986 1.15548 13.8781 1.1321 13.8525L1.13213 13.8525L1.12762 13.8477C1.1044 13.8229 1.08668 13.7935 1.07562 13.7613C1.06458 13.7293 1.06044 13.6952 1.06346 13.6614C1.06346 13.6614 1.06347 13.6613 1.06347 13.6613L1.23078 11.8216L9.23772 3.81749L11.1833 5.76252L3.1787 13.7657L1.33845 13.9331L1.33786 13.9331C1.33108 13.9337 1.32429 13.934 1.31751 13.934ZM11.7123 1.34305L11.7125 1.34285C11.7357 1.31961 11.7633 1.30117 11.7936 1.28859L11.6022 0.826701L11.7936 1.28859C11.824 1.27601 11.8565 1.26953 11.8894 1.26953C11.9222 1.26953 11.9547 1.27601 11.9851 1.28859C12.0154 1.30117 12.043 1.31961 12.0662 1.34285L12.0664 1.34305L13.6572 2.9338L13.6574 2.934C13.6806 2.95722 13.6991 2.98479 13.7116 3.01514C13.7242 3.04549 13.7307 3.07802 13.7307 3.11087C13.7307 3.14372 13.7242 3.17626 13.7116 3.20661C13.6991 3.23695 13.6806 3.26453 13.6574 3.28775L13.6572 3.28794L12.42 4.52514L10.4751 2.58025L11.7123 1.34305Z" stroke="#323232"/>
</svg>
