<svg width="10" height="10" viewBox="0 0 10 10" fill="none" xmlns="http://www.w3.org/2000/svg">
<path d="M1.21097 9.28958C1.1416 9.28946 1.07302 9.2749 1.00957 9.24684C0.946134 9.21878 0.889227 9.17782 0.842471 9.12658C0.794871 9.07577 0.758548 9.01547 0.735886 8.94963C0.713223 8.8838 0.704733 8.81392 0.710971 8.74458L0.833471 7.39758L6.49247 1.74058L8.26097 3.50858L2.60347 9.16508L1.25647 9.28758C1.24135 9.28897 1.22616 9.28964 1.21097 9.28958ZM8.61397 3.15508L6.84597 1.38708L7.90647 0.326575C7.95291 0.280087 8.00805 0.243207 8.06875 0.218045C8.12945 0.192883 8.19451 0.179932 8.26022 0.179932C8.32593 0.179932 8.39099 0.192883 8.45169 0.218045C8.51239 0.243207 8.56753 0.280087 8.61397 0.326575L9.67447 1.38708C9.72096 1.43351 9.75784 1.48866 9.783 1.54936C9.80816 1.61005 9.82112 1.67512 9.82112 1.74083C9.82112 1.80653 9.80816 1.8716 9.783 1.9323C9.75784 1.99299 9.72096 2.04814 9.67447 2.09458L8.61447 3.15458L8.61397 3.15508Z" fill="white"/>
</svg>
