<svg width="11" height="11" viewBox="0 0 11 11" fill="none" xmlns="http://www.w3.org/2000/svg">
<path d="M1.39538 10.1471C1.32023 10.147 1.24593 10.1312 1.1772 10.1008C1.10847 10.0704 1.04683 10.026 0.996173 9.97052C0.944606 9.91547 0.905257 9.85015 0.880706 9.77883C0.856155 9.70751 0.846957 9.63181 0.853715 9.55668L0.986423 8.09743L7.11701 1.96902L9.03288 3.88435L2.90392 10.0122L1.44467 10.1449C1.42829 10.1464 1.41184 10.1472 1.39538 10.1471ZM9.4153 3.50139L7.49997 1.58606L8.64884 0.437184C8.69915 0.386822 8.75889 0.346869 8.82464 0.31961C8.8904 0.292351 8.96089 0.27832 9.03207 0.27832C9.10325 0.27832 9.17374 0.292351 9.2395 0.31961C9.30525 0.346869 9.36499 0.386822 9.4153 0.437184L10.5642 1.58606C10.6145 1.63637 10.6545 1.69611 10.6817 1.76186C10.709 1.82762 10.723 1.8981 10.723 1.96929C10.723 2.04047 10.709 2.11096 10.6817 2.17671C10.6545 2.24247 10.6145 2.30221 10.5642 2.35252L9.41584 3.50085L9.4153 3.50139Z" fill="#24164C"/>
</svg>
