<svg width="13" height="13" viewBox="0 0 13 13" fill="none" xmlns="http://www.w3.org/2000/svg">
<path d="M10.8173 0.76866C10.7554 0.706676 10.6819 0.657503 10.601 0.623953C10.52 0.590404 10.4333 0.573135 10.3457 0.573135C10.258 0.573135 10.1713 0.590404 10.0904 0.623953C10.0094 0.657503 9.93591 0.706676 9.87399 0.76866L8.81355 1.82911L9.1671 2.18266M10.8173 0.76866L11.1709 4.18644L10.8173 3.83289M10.8173 0.76866L12.2313 2.18266L10.8173 0.76866ZM9.1671 2.18266L8.81355 2.53621L10.4638 4.18644L10.4644 4.18584L10.4644 4.18577L10.8173 3.83289M9.1671 2.18266L10.8173 3.83289M9.1671 2.18266L10.2275 1.12221L10.2277 1.12202C10.2432 1.10652 10.2616 1.09423 10.2818 1.08584L10.0909 0.62523L10.2818 1.08584C10.3021 1.07745 10.3238 1.07314 10.3457 1.07314C10.3676 1.07314 10.3893 1.07745 10.4095 1.08584C10.4297 1.09423 10.4481 1.10652 10.4636 1.12202L10.4638 1.12221L11.8778 2.53621L11.878 2.53641C11.8935 2.55189 11.9058 2.57027 11.9141 2.5905L12.3711 2.40106L11.9141 2.59051C11.9225 2.61074 11.9269 2.63242 11.9269 2.65433C11.9269 2.67623 11.9225 2.69792 11.9141 2.71815C11.9058 2.73838 11.8935 2.75676 11.878 2.77224L11.8778 2.77244L10.8173 3.83289M0.948661 12.2193L0.947526 12.2193C0.924404 12.2193 0.901541 12.2144 0.880392 12.2051C0.859248 12.1957 0.840279 12.1821 0.824693 12.165L0.824725 12.165L0.820217 12.1602C0.80493 12.1438 0.793263 12.1245 0.785984 12.1033C0.778723 12.0822 0.775992 12.0598 0.777967 12.0376C0.777972 12.0376 0.777977 12.0375 0.777982 12.0375L0.924873 10.4223L7.98865 3.36099L9.63947 5.01135L2.5778 12.0718L0.962042 12.2187L0.96144 12.2188C0.957217 12.2192 0.952953 12.2193 0.948661 12.2193Z" stroke="#24164C"/>
</svg>
