<svg width="22" height="23" viewBox="0 0 22 23" fill="none" xmlns="http://www.w3.org/2000/svg">
<path d="M6.27 16.23C6.47167 16.4317 6.72833 16.5325 7.04 16.5325C7.35167 16.5325 7.60833 16.4317 7.81 16.23L11 13.04L14.2175 16.2575C14.4192 16.4592 14.6714 16.5552 14.9743 16.5457C15.2764 16.5369 15.5283 16.4317 15.73 16.23C15.9317 16.0283 16.0325 15.7717 16.0325 15.46C16.0325 15.1483 15.9317 14.8917 15.73 14.69L12.54 11.5L15.7575 8.2825C15.9592 8.08083 16.0552 7.82857 16.0457 7.5257C16.0369 7.22357 15.9317 6.97167 15.73 6.77C15.5283 6.56833 15.2717 6.4675 14.96 6.4675C14.6483 6.4675 14.3917 6.56833 14.19 6.77L11 9.96L7.7825 6.7425C7.58083 6.54083 7.32893 6.4444 7.0268 6.4532C6.72393 6.46273 6.47167 6.56833 6.27 6.77C6.06833 6.97167 5.9675 7.22833 5.9675 7.54C5.9675 7.85167 6.06833 8.10833 6.27 8.31L9.46 11.5L6.2425 14.7175C6.04083 14.9192 5.94477 15.1711 5.9543 15.4732C5.9631 15.7761 6.06833 16.0283 6.27 16.23ZM11 22.5C9.47833 22.5 8.04833 22.2111 6.71 21.6332C5.37167 21.0561 4.2075 20.2725 3.2175 19.2825C2.2275 18.2925 1.44393 17.1283 0.8668 15.79C0.288933 14.4517 0 13.0217 0 11.5C0 9.97833 0.288933 8.54833 0.8668 7.21C1.44393 5.87167 2.2275 4.7075 3.2175 3.7175C4.2075 2.7275 5.37167 1.94357 6.71 1.3657C8.04833 0.788567 9.47833 0.5 11 0.5C12.5217 0.5 13.9517 0.788567 15.29 1.3657C16.6283 1.94357 17.7925 2.7275 18.7825 3.7175C19.7725 4.7075 20.5561 5.87167 21.1332 7.21C21.7111 8.54833 22 9.97833 22 11.5C22 13.0217 21.7111 14.4517 21.1332 15.79C20.5561 17.1283 19.7725 18.2925 18.7825 19.2825C17.7925 20.2725 16.6283 21.0561 15.29 21.6332C13.9517 22.2111 12.5217 22.5 11 22.5Z" fill="#D82B2B"/>
</svg>
