<svg width="18" height="14" viewBox="0 0 18 14" fill="none" xmlns="http://www.w3.org/2000/svg">
<path d="M16.7141 6.13508C17.1091 6.65175 17.1091 7.34925 16.7141 7.86508C15.4699 9.48925 12.4849 12.8334 8.99993 12.8334C5.51493 12.8334 2.52993 9.48925 1.28576 7.86508C1.09358 7.61769 0.989258 7.31335 0.989258 7.00008C0.989258 6.68682 1.09358 6.38247 1.28576 6.13508C2.52993 4.51091 5.51493 1.16675 8.99993 1.16675C12.4849 1.16675 15.4699 4.51091 16.7141 6.13508V6.13508Z" stroke="#999999" stroke-linecap="round" stroke-linejoin="round"/>
<path d="M9 9.5C10.3807 9.5 11.5 8.38071 11.5 7C11.5 5.61929 10.3807 4.5 9 4.5C7.61929 4.5 6.5 5.61929 6.5 7C6.5 8.38071 7.61929 9.5 9 9.5Z" stroke="#999999" stroke-linecap="round" stroke-linejoin="round"/>
</svg>
