<svg width="20" height="20" viewBox="0 0 20 20" fill="none" xmlns="http://www.w3.org/2000/svg">
<path d="M6.60093 13.731C5.25688 12.7767 4.19329 11.5354 3.59229 10.7515C3.42423 10.5352 3.33301 10.269 3.33301 9.99502C3.33301 9.72104 3.42423 9.45486 3.59229 9.23849C4.67992 7.81867 7.28935 4.89526 10.3359 4.89526C11.7025 4.89526 12.9803 5.48315 14.073 6.26044" stroke="#999999" stroke-linecap="round" stroke-linejoin="round"/>
<path d="M11.8874 8.45533C11.6851 8.24966 11.444 8.08607 11.1782 7.97401C10.9123 7.86195 10.6269 7.80364 10.3385 7.80243C10.05 7.80122 9.76408 7.85714 9.49731 7.96697C9.23054 8.0768 8.98815 8.23836 8.78413 8.44233C8.58011 8.64631 8.41849 8.88866 8.3086 9.1554C8.19871 9.42215 8.14272 9.70801 8.14386 9.9965C8.145 10.285 8.20325 10.5704 8.31525 10.8363C8.42724 11.1021 8.59077 11.3432 8.7964 11.5456M4.50781 15.8225L16.1636 4.16675M8.87872 14.8784C9.35165 15.0192 9.84225 15.0918 10.3357 15.094C13.3822 15.094 15.9916 12.1706 17.0793 10.7508C17.2473 10.5342 17.3384 10.2679 17.3383 9.99377C17.3381 9.71967 17.2468 9.45341 17.0785 9.237C16.6963 8.73834 16.2862 8.26164 15.8503 7.80917" stroke="#999999" stroke-linecap="round" stroke-linejoin="round"/>
</svg>
