<svg width="18" height="18" viewBox="0 0 18 18" fill="none" xmlns="http://www.w3.org/2000/svg">
<path d="M7.62774 3.75004C7.73979 3.74966 7.8505 3.77439 7.95173 3.82241C8.05297 3.87043 8.14215 3.94052 8.21274 4.02754L11.8352 8.52754C11.9456 8.66174 12.0059 8.83007 12.0059 9.00379C12.0059 9.17751 11.9456 9.34584 11.8352 9.48004L8.08524 13.98C7.95794 14.1332 7.77501 14.2295 7.57669 14.2478C7.37837 14.2661 7.18091 14.2048 7.02774 14.0775C6.87458 13.9502 6.77826 13.7673 6.75998 13.569C6.74169 13.3707 6.80294 13.1732 6.93024 13.02L10.2827 9.00004L7.04274 4.98004C6.95103 4.86995 6.89277 4.73589 6.87486 4.59373C6.85695 4.45157 6.88014 4.30725 6.94168 4.17786C7.00323 4.04846 7.10055 3.9394 7.22213 3.86358C7.34371 3.78777 7.48447 3.74836 7.62774 3.75004Z" fill="#24164C"/>
</svg>
