<svg width="14" height="14" viewBox="0 0 14 14" fill="none" xmlns="http://www.w3.org/2000/svg">
<path d="M12.4 6.39458C12.6765 6.75625 12.6765 7.2445 12.4 7.60558C11.529 8.7425 9.43955 11.0834 7.00005 11.0834C4.56055 11.0834 2.47105 8.7425 1.60013 7.60558C1.4656 7.43241 1.39258 7.21937 1.39258 7.00008C1.39258 6.7808 1.4656 6.56775 1.60013 6.39458C2.47105 5.25766 4.56055 2.91675 7.00005 2.91675C9.43955 2.91675 11.529 5.25766 12.4 6.39458V6.39458Z" stroke="#7546f6" stroke-linecap="round" stroke-linejoin="round"/>
<path d="M7 8.75C7.9665 8.75 8.75 7.9665 8.75 7C8.75 6.0335 7.9665 5.25 7 5.25C6.0335 5.25 5.25 6.0335 5.25 7C5.25 7.9665 6.0335 8.75 7 8.75Z" stroke="#7546f6" stroke-linecap="round" stroke-linejoin="round"/>
</svg>
