<svg width="14" height="10" viewBox="0 0 14 10" fill="none" xmlns="http://www.w3.org/2000/svg">
<path d="M12.4 4.39446C12.6765 4.75613 12.6765 5.24438 12.4 5.60546C11.529 6.74238 9.43955 9.08329 7.00005 9.08329C4.56055 9.08329 2.47105 6.74238 1.60013 5.60546C1.4656 5.43229 1.39258 5.21925 1.39258 4.99996C1.39258 4.78067 1.4656 4.56763 1.60013 4.39446C2.47105 3.25754 4.56055 0.916626 7.00005 0.916626C9.43955 0.916626 11.529 3.25754 12.4 4.39446V4.39446Z" stroke="#24164C" stroke-linecap="round" stroke-linejoin="round"/>
<path d="M7 6.75C7.9665 6.75 8.75 5.9665 8.75 5C8.75 4.0335 7.9665 3.25 7 3.25C6.0335 3.25 5.25 4.0335 5.25 5C5.25 5.9665 6.0335 6.75 7 6.75Z" stroke="#24164C" stroke-linecap="round" stroke-linejoin="round"/>
</svg>
