<svg width="23" height="21" viewBox="0 0 23 21" fill="none" xmlns="http://www.w3.org/2000/svg">
<mask id="path-1-inside-1_677_1208" fill="white">
<path d="M22.1079 10.3292L12.0518 0.280376C11.9794 0.207827 11.8933 0.15027 11.7987 0.110999C11.704 0.0717277 11.6025 0.0515137 11.5 0.0515137C11.3975 0.0515137 11.296 0.0717277 11.2013 0.110999C11.1067 0.15027 11.0206 0.207827 10.9482 0.280376L0.89209 10.3292C0.599121 10.6222 0.433105 11.0201 0.433105 11.4352C0.433105 12.297 1.13379 12.9977 1.99561 12.9977H3.05518V20.1681C3.05518 20.6002 3.4043 20.9493 3.83643 20.9493H9.9375V15.4806H12.6719V20.9493H19.1636C19.5957 20.9493 19.9448 20.6002 19.9448 20.1681V12.9977H21.0044C21.4194 12.9977 21.8174 12.8341 22.1104 12.5387C22.7183 11.9283 22.7183 10.9396 22.1079 10.3292Z"/>
</mask>
<path d="M12.0518 0.280376L11.344 0.986791L11.3449 0.98774L12.0518 0.280376ZM10.9482 0.280376L11.6551 0.987741L11.656 0.98679L10.9482 0.280376ZM0.89209 10.3292L0.185241 9.62184L0.184983 9.6221L0.89209 10.3292ZM3.05518 12.9977H4.05518V11.9977H3.05518V12.9977ZM9.9375 20.9493V21.9493H10.9375V20.9493H9.9375ZM9.9375 15.4806V14.4806H8.9375V15.4806H9.9375ZM12.6719 15.4806H13.6719V14.4806H12.6719V15.4806ZM12.6719 20.9493H11.6719V21.9493H12.6719V20.9493ZM19.9448 12.9977V11.9977H18.9448V12.9977H19.9448ZM22.1104 12.5387L21.4018 11.833L21.4003 11.8345L22.1104 12.5387ZM22.8148 9.62184L12.7586 -0.426989L11.3449 0.98774L21.4011 11.0366L22.8148 9.62184ZM12.7596 -0.426039C12.5943 -0.591652 12.3979 -0.723044 12.1818 -0.812693L11.4155 1.03469C11.3888 1.02358 11.3644 1.00731 11.344 0.98679L12.7596 -0.426039ZM12.1818 -0.812693C11.9657 -0.902342 11.734 -0.948486 11.5 -0.948486V1.05151C11.471 1.05151 11.4423 1.0458 11.4155 1.03469L12.1818 -0.812693ZM11.5 -0.948486C11.266 -0.948486 11.0343 -0.902342 10.8182 -0.812693L11.5845 1.03469C11.5577 1.0458 11.529 1.05151 11.5 1.05151V-0.948486ZM10.8182 -0.812693C10.6021 -0.723045 10.4057 -0.591654 10.2404 -0.426039L11.656 0.98679C11.6356 1.00731 11.6112 1.02358 11.5845 1.03469L10.8182 -0.812693ZM10.2414 -0.426989L0.185241 9.62184L1.59894 11.0366L11.6551 0.98774L10.2414 -0.426989ZM0.184983 9.6221C-0.294327 10.1014 -0.566895 10.7532 -0.566895 11.4352H1.43311C1.43311 11.287 1.49257 11.1429 1.5992 11.0363L0.184983 9.6221ZM-0.566895 11.4352C-0.566895 12.8493 0.581504 13.9977 1.99561 13.9977V11.9977C1.68607 11.9977 1.43311 11.7447 1.43311 11.4352H-0.566895ZM1.99561 13.9977H3.05518V11.9977H1.99561V13.9977ZM2.05518 12.9977V20.1681H4.05518V12.9977H2.05518ZM2.05518 20.1681C2.05518 21.1525 2.85201 21.9493 3.83643 21.9493V19.9493C3.95658 19.9493 4.05518 20.0479 4.05518 20.1681H2.05518ZM3.83643 21.9493H9.9375V19.9493H3.83643V21.9493ZM10.9375 20.9493V15.4806H8.9375V20.9493H10.9375ZM9.9375 16.4806H12.6719V14.4806H9.9375V16.4806ZM11.6719 15.4806V20.9493H13.6719V15.4806H11.6719ZM12.6719 21.9493H19.1636V19.9493H12.6719V21.9493ZM19.1636 21.9493C20.148 21.9493 20.9448 21.1525 20.9448 20.1681H18.9448C18.9448 20.0479 19.0434 19.9493 19.1636 19.9493V21.9493ZM20.9448 20.1681V12.9977H18.9448V20.1681H20.9448ZM19.9448 13.9977H21.0044V11.9977H19.9448V13.9977ZM21.0044 13.9977C21.6828 13.9977 22.3373 13.7299 22.8204 13.2428L21.4003 11.8345C21.2974 11.9382 21.1561 11.9977 21.0044 11.9977V13.9977ZM22.8189 13.2444C23.8157 12.2436 23.8157 10.6227 22.815 9.6221L21.4008 11.0363C21.6209 11.2564 21.6209 11.6131 21.4018 11.833L22.8189 13.2444Z" fill="#323232" mask="url(#path-1-inside-1_677_1208)"/>
</svg>
