<svg width="23" height="21" viewBox="0 0 23 21" fill="none" xmlns="http://www.w3.org/2000/svg">
<path d="M22.1079 10.3294L12.0518 0.28062C11.9794 0.208071 11.8933 0.150514 11.7987 0.111243C11.704 0.0719718 11.6025 0.0517578 11.5 0.0517578C11.3975 0.0517578 11.296 0.0719718 11.2013 0.111243C11.1067 0.150514 11.0206 0.208071 10.9482 0.28062L0.89209 10.3294C0.599121 10.6224 0.433105 11.0204 0.433105 11.4354C0.433105 12.2972 1.13379 12.9979 1.99561 12.9979H3.05518V20.1683C3.05518 20.6004 3.4043 20.9496 3.83643 20.9496H9.9375V15.4808H12.6719V20.9496H19.1636C19.5957 20.9496 19.9448 20.6004 19.9448 20.1683V12.9979H21.0044C21.4194 12.9979 21.8174 12.8343 22.1104 12.5389C22.7183 11.9286 22.7183 10.9398 22.1079 10.3294V10.3294Z" fill="#201444"/>
</svg>
