<svg width="254" height="93" viewBox="0 0 254 93" fill="none" xmlns="http://www.w3.org/2000/svg">
<g clip-path="url(#clip0_2494_1996)">
<rect width="254" height="93" rx="20" fill="#E1EBF3"/>
<path fill-rule="evenodd" clip-rule="evenodd" d="M241.001 -21.2372C250.508 -21.0172 260.981 -30.5627 268.257 -24.4352C275.492 -18.3422 270.104 -6.60947 269.588 2.83874C269.12 11.4197 271.068 20.8019 265.434 27.2878C259.556 34.0539 249.931 35.0237 241.001 35.7475C230.971 36.5604 218.337 39.6233 212.26 31.5978C206.193 23.5845 216.05 12.8921 216.084 2.83874C216.117 -7.13925 205.281 -18.7951 212.454 -25.7262C219.658 -32.6863 230.99 -21.4688 241.001 -21.2372Z" fill="#24164c"/>
<path fill-rule="evenodd" clip-rule="evenodd" d="M246.216 54.7479C252.87 53.1249 260.546 54.0279 265.606 58.5967C270.808 63.2927 272.805 70.8862 271.71 77.765C270.733 83.9 265.596 88.3298 260.332 91.7191C256.17 94.3985 251.154 93.6444 246.216 94.1774C240.152 94.8321 232.808 99.5433 228.639 95.1407C224.449 90.7154 229.473 83.7085 230.676 77.765C231.514 73.6255 232.13 69.6954 234.501 66.1841C237.668 61.493 240.677 56.099 246.216 54.7479Z" fill="#F18902"/>
<path fill-rule="evenodd" clip-rule="evenodd" d="M170.863 -27.9795C178.72 -28.3779 187.509 -34.1134 193.554 -28.6613C199.682 -23.1351 197.269 -12.716 197.364 -4.07902C197.462 4.73008 200.029 15.0649 194.102 21.0974C188.219 27.0867 178.72 24.9106 170.863 22.8977C164.857 21.3589 160.36 16.6962 156.513 11.4672C153.194 6.95601 151.962 1.59806 151.018 -4.07902C149.746 -11.7185 145.409 -20.6918 150.201 -26.463C155 -32.2429 163.695 -27.616 170.863 -27.9795Z" fill="#97D8C4"/>
<path d="M32.2946 36.7514L32.3137 36.7397L32.4017 36.687C32.9484 36.3713 33.516 36.0948 34.1003 35.8594C35.2441 35.4007 36.7935 34.9518 38.4767 34.9518C40.16 34.9518 41.7094 35.4007 42.8551 35.8594C43.4388 36.0948 44.0057 36.3713 44.5518 36.687C44.5919 36.7104 44.6206 36.726 44.6378 36.7397L44.657 36.7514H44.6589C44.8729 36.8843 45.1294 36.9262 45.3733 36.8681C45.6172 36.81 45.8291 36.6566 45.9634 36.4409C46.0976 36.2251 46.1436 35.9642 46.0914 35.7143C46.0392 35.4643 45.893 35.2452 45.6841 35.1041H45.6822L45.6784 35.1002L45.6688 35.0943L45.6344 35.0728C45.4555 34.9637 45.2737 34.8596 45.0893 34.7605C44.591 34.4935 44.0789 34.2544 43.5552 34.0442C42.2736 33.527 40.4756 33 38.4767 33C36.476 33 34.6799 33.527 33.3983 34.0442C32.7229 34.3157 32.0671 34.6353 31.4358 35.0006C31.3966 35.0243 31.3577 35.0484 31.3191 35.0728L31.2847 35.0924L31.2751 35.1002L31.2713 35.1021C31.0569 35.2406 30.9053 35.4603 30.8497 35.7128C30.7941 35.9654 30.8391 36.2302 30.9748 36.4489C31.1105 36.6676 31.3258 36.8223 31.5733 36.8791C31.8208 36.9358 32.0803 36.8899 32.2946 36.7514ZM30.8256 38.8555C29.811 38.8555 28.8379 39.2668 28.1205 39.9988C27.4031 40.7309 27 41.7238 27 42.7591V50.5664C27 51.6018 27.4031 52.5947 28.1205 53.3267C28.8379 54.0588 29.811 54.4701 30.8256 54.4701H39.4331C40.4477 54.4701 41.4208 54.0588 42.1382 53.3267C42.8557 52.5947 43.2587 51.6018 43.2587 50.5664V50.2971L48.5227 53.3654C48.6681 53.4501 48.8328 53.4944 49.0003 53.4939C49.1678 53.4933 49.3322 53.4478 49.4771 53.3621C49.6219 53.2763 49.7422 53.1532 49.8258 53.0051C49.9094 52.8571 49.9534 52.6892 49.9535 52.5183V40.8073C49.9534 40.6364 49.9094 40.4685 49.8258 40.3204C49.7422 40.1724 49.6219 40.0493 49.4771 39.9635C49.3322 39.8777 49.1678 39.8323 49.0003 39.8317C48.8328 39.8311 48.6681 39.8754 48.5227 39.9602L43.2587 43.0285V42.7591C43.2587 41.7238 42.8557 40.7309 42.1382 39.9988C41.4208 39.2668 40.4477 38.8555 39.4331 38.8555H30.8256ZM43.2587 45.277L48.0407 42.4898V50.8358L43.2587 48.0486V45.277ZM28.9128 42.7591C28.9128 42.2415 29.1143 41.745 29.473 41.379C29.8318 41.0129 30.3183 40.8073 30.8256 40.8073H39.4331C39.9404 40.8073 40.427 41.0129 40.7857 41.379C41.1444 41.745 41.3459 42.2415 41.3459 42.7591V50.5664C41.3459 51.0841 41.1444 51.5806 40.7857 51.9466C40.427 52.3126 39.9404 52.5183 39.4331 52.5183H30.8256C30.3183 52.5183 29.8318 52.3126 29.473 51.9466C29.1143 51.5806 28.9128 51.0841 28.9128 50.5664V42.7591ZM32.2965 56.5761L32.2946 56.5742C32.0806 56.4413 31.8241 56.3994 31.5802 56.4575C31.3363 56.5155 31.1244 56.6689 30.9901 56.8847C30.8558 57.1004 30.8099 57.3613 30.8621 57.6113C30.9143 57.8613 31.0605 58.0804 31.2693 58.2215H31.2713L31.2751 58.2254L31.2847 58.2313L31.3191 58.2527C31.3459 58.2723 31.386 58.2937 31.4358 58.325C31.5371 58.3835 31.6806 58.4674 31.8642 58.567C32.2296 58.7622 32.7537 59.0218 33.3983 59.2814C34.6799 59.7966 36.4779 60.3256 38.4767 60.3256C40.4775 60.3256 42.2736 59.7986 43.5552 59.2814C44.2305 59.0099 44.8863 58.6903 45.5177 58.325L45.6344 58.2527L45.6688 58.2332L45.6784 58.2254L45.6822 58.2235H45.6841C45.8985 58.0847 46.05 57.8648 46.1054 57.612C46.1609 57.3593 46.1156 57.0944 45.9797 56.8757C45.8437 56.657 45.6282 56.5024 45.3805 56.4458C45.1328 56.3893 44.8732 56.4354 44.6589 56.5742L44.6398 56.5878L44.5518 56.6386C44.0051 56.9543 43.4375 57.2308 42.8532 57.4662C41.7094 57.9248 40.16 58.3738 38.4767 58.3738C36.7935 58.3738 35.2441 57.9248 34.0984 57.4662C33.5148 57.2306 32.9479 56.9541 32.4017 56.6386C32.3729 56.6213 32.3442 56.6037 32.3156 56.5859L32.2965 56.5761Z" fill="#24164c"/>
<path d="M78.078 44.613C78.1807 44.613 78.2717 44.6527 78.351 44.732L79.093 45.537C78.6823 46.0457 78.176 46.4353 77.574 46.706C76.9767 46.9767 76.258 47.112 75.418 47.112C74.6667 47.112 73.99 46.9837 73.388 46.727C72.7907 46.4703 72.2797 46.1133 71.855 45.656C71.4303 45.1987 71.1037 44.6527 70.875 44.018C70.651 43.3833 70.539 42.6903 70.539 41.939C70.539 41.1783 70.6603 40.483 70.903 39.853C71.1457 39.2183 71.4863 38.6723 71.925 38.215C72.3683 37.7577 72.8957 37.403 73.507 37.151C74.1183 36.8943 74.795 36.766 75.537 36.766C76.2743 36.766 76.9277 36.8873 77.497 37.13C78.071 37.3727 78.5587 37.69 78.96 38.082L78.33 38.957C78.2927 39.013 78.2437 39.062 78.183 39.104C78.127 39.146 78.0477 39.167 77.945 39.167C77.875 39.167 77.8027 39.1483 77.728 39.111C77.6533 39.069 77.5717 39.02 77.483 38.964C77.3943 38.9033 77.2917 38.838 77.175 38.768C77.0583 38.698 76.923 38.635 76.769 38.579C76.615 38.5183 76.4353 38.4693 76.23 38.432C76.0293 38.39 75.796 38.369 75.53 38.369C75.0773 38.369 74.662 38.4507 74.284 38.614C73.9107 38.7727 73.5887 39.006 73.318 39.314C73.0473 39.6173 72.8373 39.9907 72.688 40.434C72.5387 40.8727 72.464 41.3743 72.464 41.939C72.464 42.5083 72.5433 43.0147 72.702 43.458C72.8653 43.9013 73.0847 44.2747 73.36 44.578C73.6353 44.8813 73.9597 45.1147 74.333 45.278C74.7063 45.4367 75.1077 45.516 75.537 45.516C75.7937 45.516 76.0247 45.502 76.23 45.474C76.44 45.446 76.6313 45.4017 76.804 45.341C76.9813 45.2803 77.147 45.2033 77.301 45.11C77.4597 45.012 77.616 44.893 77.77 44.753C77.8167 44.711 77.8657 44.6783 77.917 44.655C77.9683 44.627 78.022 44.613 78.078 44.613ZM81.7135 41.064C81.9375 40.6347 82.2035 40.2987 82.5115 40.056C82.8195 39.8087 83.1835 39.685 83.6035 39.685C83.9348 39.685 84.2008 39.7573 84.4015 39.902L84.2895 41.197C84.2662 41.281 84.2312 41.3417 84.1845 41.379C84.1425 41.4117 84.0842 41.428 84.0095 41.428C83.9395 41.428 83.8345 41.4163 83.6945 41.393C83.5592 41.3697 83.4262 41.358 83.2955 41.358C83.1042 41.358 82.9338 41.386 82.7845 41.442C82.6352 41.498 82.4998 41.5797 82.3785 41.687C82.2618 41.7897 82.1568 41.9157 82.0635 42.065C81.9748 42.2143 81.8908 42.3847 81.8115 42.576V47H80.0825V39.818H81.0975C81.2748 39.818 81.3985 39.8507 81.4685 39.916C81.5385 39.9767 81.5852 40.0887 81.6085 40.252L81.7135 41.064ZM89.7271 42.583C89.7271 42.359 89.6944 42.149 89.6291 41.953C89.5684 41.7523 89.4751 41.5773 89.3491 41.428C89.2231 41.2787 89.0621 41.162 88.8661 41.078C88.6748 40.9893 88.4508 40.945 88.1941 40.945C87.6948 40.945 87.3004 41.0873 87.0111 41.372C86.7264 41.6567 86.5444 42.0603 86.4651 42.583H89.7271ZM86.4301 43.626C86.4581 43.9947 86.5234 44.3143 86.6261 44.585C86.7288 44.851 86.8641 45.0727 87.0321 45.25C87.2001 45.4227 87.3984 45.5533 87.6271 45.642C87.8604 45.726 88.1171 45.768 88.3971 45.768C88.6771 45.768 88.9174 45.7353 89.1181 45.67C89.3234 45.6047 89.5008 45.5323 89.6501 45.453C89.8041 45.3737 89.9371 45.3013 90.0491 45.236C90.1658 45.1707 90.2778 45.138 90.3851 45.138C90.5298 45.138 90.6371 45.1917 90.7071 45.299L91.2041 45.929C91.0128 46.153 90.7981 46.342 90.5601 46.496C90.3221 46.6453 90.0724 46.7667 89.8111 46.86C89.5544 46.9487 89.2908 47.0117 89.0201 47.049C88.7541 47.0863 88.4951 47.105 88.2431 47.105C87.7438 47.105 87.2794 47.0233 86.8501 46.86C86.4208 46.692 86.0474 46.447 85.7301 46.125C85.4128 45.7983 85.1631 45.397 84.9811 44.921C84.7991 44.4403 84.7081 43.885 84.7081 43.255C84.7081 42.765 84.7874 42.3053 84.9461 41.876C85.1048 41.442 85.3311 41.0663 85.6251 40.749C85.9238 40.427 86.2854 40.1727 86.7101 39.986C87.1394 39.7993 87.6224 39.706 88.1591 39.706C88.6118 39.706 89.0294 39.7783 89.4121 39.923C89.7948 40.0677 90.1238 40.28 90.3991 40.56C90.6744 40.8353 90.8891 41.176 91.0431 41.582C91.2018 41.9833 91.2811 42.443 91.2811 42.961C91.2811 43.2223 91.2531 43.3997 91.1971 43.493C91.1411 43.5817 91.0338 43.626 90.8751 43.626H86.4301ZM96.3726 43.934C95.8733 43.9573 95.4533 44.0017 95.1126 44.067C94.7719 44.1277 94.4989 44.207 94.2936 44.305C94.0883 44.403 93.9413 44.5173 93.8526 44.648C93.7639 44.7787 93.7196 44.921 93.7196 45.075C93.7196 45.3783 93.8083 45.5953 93.9856 45.726C94.1676 45.8567 94.4033 45.922 94.6926 45.922C95.0473 45.922 95.3529 45.859 95.6096 45.733C95.8709 45.6023 96.1253 45.4063 96.3726 45.145V43.934ZM92.4106 40.819C93.2366 40.063 94.2306 39.685 95.3926 39.685C95.8126 39.685 96.1883 39.755 96.5196 39.895C96.8509 40.0303 97.1309 40.2217 97.3596 40.469C97.5883 40.7117 97.7609 41.0033 97.8776 41.344C97.9989 41.6847 98.0596 42.058 98.0596 42.464V47H97.2756C97.1123 47 96.9863 46.9767 96.8976 46.93C96.8089 46.8787 96.7389 46.7783 96.6876 46.629L96.5336 46.111C96.3516 46.2743 96.1743 46.419 96.0016 46.545C95.8289 46.6663 95.6493 46.769 95.4626 46.853C95.2759 46.937 95.0753 47 94.8606 47.042C94.6506 47.0887 94.4173 47.112 94.1606 47.112C93.8573 47.112 93.5773 47.0723 93.3206 46.993C93.0639 46.909 92.8423 46.7853 92.6556 46.622C92.4689 46.4587 92.3243 46.2557 92.2216 46.013C92.1189 45.7703 92.0676 45.488 92.0676 45.166C92.0676 44.984 92.0979 44.8043 92.1586 44.627C92.2193 44.445 92.3173 44.2723 92.4526 44.109C92.5926 43.9457 92.7723 43.7917 92.9916 43.647C93.2109 43.5023 93.4793 43.3763 93.7966 43.269C94.1186 43.1617 94.4919 43.0753 94.9166 43.01C95.3413 42.94 95.8266 42.898 96.3726 42.884V42.464C96.3726 41.9833 96.2699 41.6287 96.0646 41.4C95.8593 41.1667 95.5629 41.05 95.1756 41.05C94.8956 41.05 94.6623 41.0827 94.4756 41.148C94.2936 41.2133 94.1326 41.288 93.9926 41.372C93.8526 41.4513 93.7243 41.5237 93.6076 41.589C93.4956 41.6543 93.3696 41.687 93.2296 41.687C93.1083 41.687 93.0056 41.6567 92.9216 41.596C92.8376 41.5307 92.7699 41.456 92.7186 41.372L92.4106 40.819ZM101.986 47.112C101.361 47.112 100.88 46.937 100.544 46.587C100.213 46.2323 100.047 45.7447 100.047 45.124V41.113H99.3123C99.2189 41.113 99.1396 41.0827 99.0743 41.022C99.0089 40.9613 98.9763 40.8703 98.9763 40.749V40.063L100.131 39.874L100.495 37.914C100.519 37.8207 100.563 37.7483 100.628 37.697C100.694 37.6457 100.778 37.62 100.88 37.62H101.776V39.881H103.694V41.113H101.776V45.005C101.776 45.229 101.83 45.404 101.937 45.53C102.049 45.656 102.201 45.719 102.392 45.719C102.5 45.719 102.588 45.7073 102.658 45.684C102.733 45.656 102.796 45.628 102.847 45.6C102.903 45.572 102.952 45.5463 102.994 45.523C103.036 45.495 103.078 45.481 103.12 45.481C103.172 45.481 103.214 45.495 103.246 45.523C103.279 45.5463 103.314 45.5837 103.351 45.635L103.869 46.475C103.617 46.685 103.328 46.8437 103.001 46.951C102.675 47.0583 102.336 47.112 101.986 47.112ZM109.374 42.583C109.374 42.359 109.341 42.149 109.276 41.953C109.215 41.7523 109.122 41.5773 108.996 41.428C108.87 41.2787 108.709 41.162 108.513 41.078C108.321 40.9893 108.097 40.945 107.841 40.945C107.341 40.945 106.947 41.0873 106.658 41.372C106.373 41.6567 106.191 42.0603 106.112 42.583H109.374ZM106.077 43.626C106.105 43.9947 106.17 44.3143 106.273 44.585C106.375 44.851 106.511 45.0727 106.679 45.25C106.847 45.4227 107.045 45.5533 107.274 45.642C107.507 45.726 107.764 45.768 108.044 45.768C108.324 45.768 108.564 45.7353 108.765 45.67C108.97 45.6047 109.147 45.5323 109.297 45.453C109.451 45.3737 109.584 45.3013 109.696 45.236C109.812 45.1707 109.924 45.138 110.032 45.138C110.176 45.138 110.284 45.1917 110.354 45.299L110.851 45.929C110.659 46.153 110.445 46.342 110.207 46.496C109.969 46.6453 109.719 46.7667 109.458 46.86C109.201 46.9487 108.937 47.0117 108.667 47.049C108.401 47.0863 108.142 47.105 107.89 47.105C107.39 47.105 106.926 47.0233 106.497 46.86C106.067 46.692 105.694 46.447 105.377 46.125C105.059 45.7983 104.81 45.397 104.628 44.921C104.446 44.4403 104.355 43.885 104.355 43.255C104.355 42.765 104.434 42.3053 104.593 41.876C104.751 41.442 104.978 41.0663 105.272 40.749C105.57 40.427 105.932 40.1727 106.357 39.986C106.786 39.7993 107.269 39.706 107.806 39.706C108.258 39.706 108.676 39.7783 109.059 39.923C109.441 40.0677 109.77 40.28 110.046 40.56C110.321 40.8353 110.536 41.176 110.69 41.582C110.848 41.9833 110.928 42.443 110.928 42.961C110.928 43.2223 110.9 43.3997 110.844 43.493C110.788 43.5817 110.68 43.626 110.522 43.626H106.077ZM119.423 43.934C118.924 43.9573 118.504 44.0017 118.163 44.067C117.823 44.1277 117.55 44.207 117.344 44.305C117.139 44.403 116.992 44.5173 116.903 44.648C116.815 44.7787 116.77 44.921 116.77 45.075C116.77 45.3783 116.859 45.5953 117.036 45.726C117.218 45.8567 117.454 45.922 117.743 45.922C118.098 45.922 118.404 45.859 118.66 45.733C118.922 45.6023 119.176 45.4063 119.423 45.145V43.934ZM115.461 40.819C116.287 40.063 117.281 39.685 118.443 39.685C118.863 39.685 119.239 39.755 119.57 39.895C119.902 40.0303 120.182 40.2217 120.41 40.469C120.639 40.7117 120.812 41.0033 120.928 41.344C121.05 41.6847 121.11 42.058 121.11 42.464V47H120.326C120.163 47 120.037 46.9767 119.948 46.93C119.86 46.8787 119.79 46.7783 119.738 46.629L119.584 46.111C119.402 46.2743 119.225 46.419 119.052 46.545C118.88 46.6663 118.7 46.769 118.513 46.853C118.327 46.937 118.126 47 117.911 47.042C117.701 47.0887 117.468 47.112 117.211 47.112C116.908 47.112 116.628 47.0723 116.371 46.993C116.115 46.909 115.893 46.7853 115.706 46.622C115.52 46.4587 115.375 46.2557 115.272 46.013C115.17 45.7703 115.118 45.488 115.118 45.166C115.118 44.984 115.149 44.8043 115.209 44.627C115.27 44.445 115.368 44.2723 115.503 44.109C115.643 43.9457 115.823 43.7917 116.042 43.647C116.262 43.5023 116.53 43.3763 116.847 43.269C117.169 43.1617 117.543 43.0753 117.967 43.01C118.392 42.94 118.877 42.898 119.423 42.884V42.464C119.423 41.9833 119.321 41.6287 119.115 41.4C118.91 41.1667 118.614 41.05 118.226 41.05C117.946 41.05 117.713 41.0827 117.526 41.148C117.344 41.2133 117.183 41.288 117.043 41.372C116.903 41.4513 116.775 41.5237 116.658 41.589C116.546 41.6543 116.42 41.687 116.28 41.687C116.159 41.687 116.056 41.6567 115.972 41.596C115.888 41.5307 115.821 41.456 115.769 41.372L115.461 40.819ZM124.356 40.7C124.5 40.5553 124.652 40.4223 124.811 40.301C124.974 40.175 125.144 40.07 125.322 39.986C125.504 39.8973 125.697 39.8297 125.903 39.783C126.108 39.7317 126.332 39.706 126.575 39.706C126.967 39.706 127.314 39.7737 127.618 39.909C127.921 40.0397 128.173 40.2263 128.374 40.469C128.579 40.707 128.733 40.994 128.836 41.33C128.943 41.6613 128.997 42.0277 128.997 42.429V47H127.268V42.429C127.268 41.9903 127.167 41.652 126.967 41.414C126.766 41.1713 126.46 41.05 126.05 41.05C125.751 41.05 125.471 41.1177 125.21 41.253C124.948 41.3883 124.701 41.5727 124.468 41.806V47H122.739V39.818H123.796C124.02 39.818 124.167 39.923 124.237 40.133L124.356 40.7ZM135.837 39.818V47H134.101V39.818H135.837ZM136.075 37.725C136.075 37.8743 136.045 38.0143 135.984 38.145C135.924 38.2757 135.842 38.39 135.739 38.488C135.641 38.586 135.525 38.6653 135.389 38.726C135.254 38.782 135.109 38.81 134.955 38.81C134.806 38.81 134.664 38.782 134.528 38.726C134.398 38.6653 134.283 38.586 134.185 38.488C134.087 38.39 134.008 38.2757 133.947 38.145C133.891 38.0143 133.863 37.8743 133.863 37.725C133.863 37.571 133.891 37.4263 133.947 37.291C134.008 37.1557 134.087 37.039 134.185 36.941C134.283 36.843 134.398 36.766 134.528 36.71C134.664 36.6493 134.806 36.619 134.955 36.619C135.109 36.619 135.254 36.6493 135.389 36.71C135.525 36.766 135.641 36.843 135.739 36.941C135.842 37.039 135.924 37.1557 135.984 37.291C136.045 37.4263 136.075 37.571 136.075 37.725ZM139.217 40.7C139.362 40.5553 139.513 40.4223 139.672 40.301C139.835 40.175 140.006 40.07 140.183 39.986C140.365 39.8973 140.559 39.8297 140.764 39.783C140.969 39.7317 141.193 39.706 141.436 39.706C141.828 39.706 142.176 39.7737 142.479 39.909C142.782 40.0397 143.034 40.2263 143.235 40.469C143.44 40.707 143.594 40.994 143.697 41.33C143.804 41.6613 143.858 42.0277 143.858 42.429V47H142.129V42.429C142.129 41.9903 142.029 41.652 141.828 41.414C141.627 41.1713 141.322 41.05 140.911 41.05C140.612 41.05 140.332 41.1177 140.071 41.253C139.81 41.3883 139.562 41.5727 139.329 41.806V47H137.6V39.818H138.657C138.881 39.818 139.028 39.923 139.098 40.133L139.217 40.7ZM149.884 41.218C149.838 41.2927 149.789 41.3463 149.737 41.379C149.686 41.407 149.621 41.421 149.541 41.421C149.457 41.421 149.366 41.3977 149.268 41.351C149.175 41.3043 149.065 41.253 148.939 41.197C148.813 41.1363 148.669 41.0827 148.505 41.036C148.347 40.9893 148.158 40.966 147.938 40.966C147.598 40.966 147.329 41.0383 147.133 41.183C146.942 41.3277 146.846 41.5167 146.846 41.75C146.846 41.904 146.895 42.0347 146.993 42.142C147.096 42.2447 147.229 42.3357 147.392 42.415C147.56 42.4943 147.749 42.5667 147.959 42.632C148.169 42.6927 148.382 42.7603 148.596 42.835C148.816 42.9097 149.03 42.996 149.24 43.094C149.45 43.1873 149.637 43.3087 149.8 43.458C149.968 43.6027 150.101 43.7777 150.199 43.983C150.302 44.1883 150.353 44.4357 150.353 44.725C150.353 45.0703 150.29 45.39 150.164 45.684C150.043 45.9733 149.861 46.2253 149.618 46.44C149.376 46.65 149.075 46.8157 148.715 46.937C148.361 47.0537 147.95 47.112 147.483 47.112C147.236 47.112 146.993 47.0887 146.755 47.042C146.522 47 146.296 46.9393 146.076 46.86C145.862 46.7807 145.661 46.6873 145.474 46.58C145.292 46.4727 145.131 46.356 144.991 46.23L145.39 45.572C145.442 45.4927 145.502 45.432 145.572 45.39C145.642 45.348 145.731 45.327 145.838 45.327C145.946 45.327 146.046 45.3573 146.139 45.418C146.237 45.4787 146.349 45.544 146.475 45.614C146.601 45.684 146.748 45.7493 146.916 45.81C147.089 45.8707 147.306 45.901 147.567 45.901C147.773 45.901 147.948 45.8777 148.092 45.831C148.242 45.7797 148.363 45.7143 148.456 45.635C148.554 45.5557 148.624 45.4647 148.666 45.362C148.713 45.2547 148.736 45.145 148.736 45.033C148.736 44.865 148.685 44.7273 148.582 44.62C148.484 44.5127 148.351 44.4193 148.183 44.34C148.02 44.2607 147.831 44.1907 147.616 44.13C147.406 44.0647 147.189 43.9947 146.965 43.92C146.746 43.8453 146.529 43.759 146.314 43.661C146.104 43.5583 145.915 43.43 145.747 43.276C145.584 43.122 145.451 42.933 145.348 42.709C145.25 42.485 145.201 42.2143 145.201 41.897C145.201 41.603 145.26 41.323 145.376 41.057C145.493 40.791 145.663 40.56 145.887 40.364C146.116 40.1633 146.398 40.0047 146.734 39.888C147.075 39.7667 147.467 39.706 147.91 39.706C148.405 39.706 148.855 39.7877 149.261 39.951C149.667 40.1143 150.006 40.329 150.276 40.595L149.884 41.218ZM154.049 47.112C153.423 47.112 152.943 46.937 152.607 46.587C152.275 46.2323 152.11 45.7447 152.11 45.124V41.113H151.375C151.281 41.113 151.202 41.0827 151.137 41.022C151.071 40.9613 151.039 40.8703 151.039 40.749V40.063L152.194 39.874L152.558 37.914C152.581 37.8207 152.625 37.7483 152.691 37.697C152.756 37.6457 152.84 37.62 152.943 37.62H153.839V39.881H155.757V41.113H153.839V45.005C153.839 45.229 153.892 45.404 154 45.53C154.112 45.656 154.263 45.719 154.455 45.719C154.562 45.719 154.651 45.7073 154.721 45.684C154.795 45.656 154.858 45.628 154.91 45.6C154.966 45.572 155.015 45.5463 155.057 45.523C155.099 45.495 155.141 45.481 155.183 45.481C155.234 45.481 155.276 45.495 155.309 45.523C155.341 45.5463 155.376 45.5837 155.414 45.635L155.932 46.475C155.68 46.685 155.39 46.8437 155.064 46.951C154.737 47.0583 154.399 47.112 154.049 47.112ZM160.658 43.934C160.158 43.9573 159.738 44.0017 159.398 44.067C159.057 44.1277 158.784 44.207 158.579 44.305C158.373 44.403 158.226 44.5173 158.138 44.648C158.049 44.7787 158.005 44.921 158.005 45.075C158.005 45.3783 158.093 45.5953 158.271 45.726C158.453 45.8567 158.688 45.922 158.978 45.922C159.332 45.922 159.638 45.859 159.895 45.733C160.156 45.6023 160.41 45.4063 160.658 45.145V43.934ZM156.696 40.819C157.522 40.063 158.516 39.685 159.678 39.685C160.098 39.685 160.473 39.755 160.805 39.895C161.136 40.0303 161.416 40.2217 161.645 40.469C161.873 40.7117 162.046 41.0033 162.163 41.344C162.284 41.6847 162.345 42.058 162.345 42.464V47H161.561C161.397 47 161.271 46.9767 161.183 46.93C161.094 46.8787 161.024 46.7783 160.973 46.629L160.819 46.111C160.637 46.2743 160.459 46.419 160.287 46.545C160.114 46.6663 159.934 46.769 159.748 46.853C159.561 46.937 159.36 47 159.146 47.042C158.936 47.0887 158.702 47.112 158.446 47.112C158.142 47.112 157.862 47.0723 157.606 46.993C157.349 46.909 157.127 46.7853 156.941 46.622C156.754 46.4587 156.609 46.2557 156.507 46.013C156.404 45.7703 156.353 45.488 156.353 45.166C156.353 44.984 156.383 44.8043 156.444 44.627C156.504 44.445 156.602 44.2723 156.738 44.109C156.878 43.9457 157.057 43.7917 157.277 43.647C157.496 43.5023 157.764 43.3763 158.082 43.269C158.404 43.1617 158.777 43.0753 159.202 43.01C159.626 42.94 160.112 42.898 160.658 42.884V42.464C160.658 41.9833 160.555 41.6287 160.35 41.4C160.144 41.1667 159.848 41.05 159.461 41.05C159.181 41.05 158.947 41.0827 158.761 41.148C158.579 41.2133 158.418 41.288 158.278 41.372C158.138 41.4513 158.009 41.5237 157.893 41.589C157.781 41.6543 157.655 41.687 157.515 41.687C157.393 41.687 157.291 41.6567 157.207 41.596C157.123 41.5307 157.055 41.456 157.004 41.372L156.696 40.819ZM165.59 40.7C165.735 40.5553 165.886 40.4223 166.045 40.301C166.208 40.175 166.379 40.07 166.556 39.986C166.738 39.8973 166.932 39.8297 167.137 39.783C167.342 39.7317 167.566 39.706 167.809 39.706C168.201 39.706 168.549 39.7737 168.852 39.909C169.155 40.0397 169.407 40.2263 169.608 40.469C169.813 40.707 169.967 40.994 170.07 41.33C170.177 41.6613 170.231 42.0277 170.231 42.429V47H168.502V42.429C168.502 41.9903 168.402 41.652 168.201 41.414C168 41.1713 167.695 41.05 167.284 41.05C166.985 41.05 166.705 41.1177 166.444 41.253C166.183 41.3883 165.935 41.5727 165.702 41.806V47H163.973V39.818H165.03C165.254 39.818 165.401 39.923 165.471 40.133L165.59 40.7ZM174.174 47.112C173.548 47.112 173.068 46.937 172.732 46.587C172.4 46.2323 172.235 45.7447 172.235 45.124V41.113H171.5C171.406 41.113 171.327 41.0827 171.262 41.022C171.196 40.9613 171.164 40.8703 171.164 40.749V40.063L172.319 39.874L172.683 37.914C172.706 37.8207 172.75 37.7483 172.816 37.697C172.881 37.6457 172.965 37.62 173.068 37.62H173.964V39.881H175.882V41.113H173.964V45.005C173.964 45.229 174.017 45.404 174.125 45.53C174.237 45.656 174.388 45.719 174.58 45.719C174.687 45.719 174.776 45.7073 174.846 45.684C174.92 45.656 174.983 45.628 175.035 45.6C175.091 45.572 175.14 45.5463 175.182 45.523C175.224 45.495 175.266 45.481 175.308 45.481C175.359 45.481 175.401 45.495 175.434 45.523C175.466 45.5463 175.501 45.5837 175.539 45.635L176.057 46.475C175.805 46.685 175.515 46.8437 175.189 46.951C174.862 47.0583 174.524 47.112 174.174 47.112ZM182.143 36.598V47H180.414V36.598H182.143ZM185.658 39.818V47H183.922V39.818H185.658ZM185.896 37.725C185.896 37.8743 185.865 38.0143 185.805 38.145C185.744 38.2757 185.662 38.39 185.56 38.488C185.462 38.586 185.345 38.6653 185.21 38.726C185.074 38.782 184.93 38.81 184.776 38.81C184.626 38.81 184.484 38.782 184.349 38.726C184.218 38.6653 184.104 38.586 184.006 38.488C183.908 38.39 183.828 38.2757 183.768 38.145C183.712 38.0143 183.684 37.8743 183.684 37.725C183.684 37.571 183.712 37.4263 183.768 37.291C183.828 37.1557 183.908 37.039 184.006 36.941C184.104 36.843 184.218 36.766 184.349 36.71C184.484 36.6493 184.626 36.619 184.776 36.619C184.93 36.619 185.074 36.6493 185.21 36.71C185.345 36.766 185.462 36.843 185.56 36.941C185.662 37.039 185.744 37.1557 185.805 37.291C185.865 37.4263 185.896 37.571 185.896 37.725ZM193.895 39.818L191.046 47H189.478L186.629 39.818H188.057C188.188 39.818 188.295 39.8483 188.379 39.909C188.468 39.9697 188.526 40.0467 188.554 40.14L189.94 43.976C190.015 44.2 190.08 44.4193 190.136 44.634C190.192 44.8487 190.241 45.0633 190.283 45.278C190.33 45.0633 190.381 44.8487 190.437 44.634C190.493 44.4193 190.561 44.2 190.64 43.976L192.054 40.14C192.087 40.0467 192.145 39.9697 192.229 39.909C192.313 39.8483 192.414 39.818 192.53 39.818H193.895ZM199.225 42.583C199.225 42.359 199.192 42.149 199.127 41.953C199.066 41.7523 198.973 41.5773 198.847 41.428C198.721 41.2787 198.56 41.162 198.364 41.078C198.173 40.9893 197.949 40.945 197.692 40.945C197.193 40.945 196.798 41.0873 196.509 41.372C196.224 41.6567 196.042 42.0603 195.963 42.583H199.225ZM195.928 43.626C195.956 43.9947 196.021 44.3143 196.124 44.585C196.227 44.851 196.362 45.0727 196.53 45.25C196.698 45.4227 196.896 45.5533 197.125 45.642C197.358 45.726 197.615 45.768 197.895 45.768C198.175 45.768 198.415 45.7353 198.616 45.67C198.821 45.6047 198.999 45.5323 199.148 45.453C199.302 45.3737 199.435 45.3013 199.547 45.236C199.664 45.1707 199.776 45.138 199.883 45.138C200.028 45.138 200.135 45.1917 200.205 45.299L200.702 45.929C200.511 46.153 200.296 46.342 200.058 46.496C199.82 46.6453 199.57 46.7667 199.309 46.86C199.052 46.9487 198.789 47.0117 198.518 47.049C198.252 47.0863 197.993 47.105 197.741 47.105C197.242 47.105 196.777 47.0233 196.348 46.86C195.919 46.692 195.545 46.447 195.228 46.125C194.911 45.7983 194.661 45.397 194.479 44.921C194.297 44.4403 194.206 43.885 194.206 43.255C194.206 42.765 194.285 42.3053 194.444 41.876C194.603 41.442 194.829 41.0663 195.123 40.749C195.422 40.427 195.783 40.1727 196.208 39.986C196.637 39.7993 197.12 39.706 197.657 39.706C198.11 39.706 198.527 39.7783 198.91 39.923C199.293 40.0677 199.622 40.28 199.897 40.56C200.172 40.8353 200.387 41.176 200.541 41.582C200.7 41.9833 200.779 42.443 200.779 42.961C200.779 43.2223 200.751 43.3997 200.695 43.493C200.639 43.5817 200.532 43.626 200.373 43.626H195.928ZM75.481 59.583C75.481 59.359 75.4483 59.149 75.383 58.953C75.3223 58.7523 75.229 58.5773 75.103 58.428C74.977 58.2787 74.816 58.162 74.62 58.078C74.4287 57.9893 74.2047 57.945 73.948 57.945C73.4487 57.945 73.0543 58.0873 72.765 58.372C72.4803 58.6567 72.2983 59.0603 72.219 59.583H75.481ZM72.184 60.626C72.212 60.9947 72.2773 61.3143 72.38 61.585C72.4827 61.851 72.618 62.0727 72.786 62.25C72.954 62.4227 73.1523 62.5533 73.381 62.642C73.6143 62.726 73.871 62.768 74.151 62.768C74.431 62.768 74.6713 62.7353 74.872 62.67C75.0773 62.6047 75.2547 62.5323 75.404 62.453C75.558 62.3737 75.691 62.3013 75.803 62.236C75.9197 62.1707 76.0317 62.138 76.139 62.138C76.2837 62.138 76.391 62.1917 76.461 62.299L76.958 62.929C76.7667 63.153 76.552 63.342 76.314 63.496C76.076 63.6453 75.8263 63.7667 75.565 63.86C75.3083 63.9487 75.0447 64.0117 74.774 64.049C74.508 64.0863 74.249 64.105 73.997 64.105C73.4977 64.105 73.0333 64.0233 72.604 63.86C72.1747 63.692 71.8013 63.447 71.484 63.125C71.1667 62.7983 70.917 62.397 70.735 61.921C70.553 61.4403 70.462 60.885 70.462 60.255C70.462 59.765 70.5413 59.3053 70.7 58.876C70.8587 58.442 71.085 58.0663 71.379 57.749C71.6777 57.427 72.0393 57.1727 72.464 56.986C72.8933 56.7993 73.3763 56.706 73.913 56.706C74.3657 56.706 74.7833 56.7783 75.166 56.923C75.5487 57.0677 75.8777 57.28 76.153 57.56C76.4283 57.8353 76.643 58.176 76.797 58.582C76.9557 58.9833 77.035 59.443 77.035 59.961C77.035 60.2223 77.007 60.3997 76.951 60.493C76.895 60.5817 76.7877 60.626 76.629 60.626H72.184ZM84.6298 56.818L81.7808 64H80.2128L77.3638 56.818H78.7918C78.9224 56.818 79.0298 56.8483 79.1138 56.909C79.2024 56.9697 79.2608 57.0467 79.2888 57.14L80.6748 60.976C80.7494 61.2 80.8148 61.4193 80.8708 61.634C80.9268 61.8487 80.9758 62.0633 81.0178 62.278C81.0644 62.0633 81.1158 61.8487 81.1718 61.634C81.2278 61.4193 81.2954 61.2 81.3748 60.976L82.7888 57.14C82.8214 57.0467 82.8798 56.9697 82.9638 56.909C83.0478 56.8483 83.1481 56.818 83.2648 56.818H84.6298ZM89.9595 59.583C89.9595 59.359 89.9268 59.149 89.8615 58.953C89.8008 58.7523 89.7075 58.5773 89.5815 58.428C89.4555 58.2787 89.2945 58.162 89.0985 58.078C88.9072 57.9893 88.6832 57.945 88.4265 57.945C87.9272 57.945 87.5328 58.0873 87.2435 58.372C86.9588 58.6567 86.7768 59.0603 86.6975 59.583H89.9595ZM86.6625 60.626C86.6905 60.9947 86.7558 61.3143 86.8585 61.585C86.9612 61.851 87.0965 62.0727 87.2645 62.25C87.4325 62.4227 87.6308 62.5533 87.8595 62.642C88.0928 62.726 88.3495 62.768 88.6295 62.768C88.9095 62.768 89.1498 62.7353 89.3505 62.67C89.5558 62.6047 89.7332 62.5323 89.8825 62.453C90.0365 62.3737 90.1695 62.3013 90.2815 62.236C90.3982 62.1707 90.5102 62.138 90.6175 62.138C90.7622 62.138 90.8695 62.1917 90.9395 62.299L91.4365 62.929C91.2452 63.153 91.0305 63.342 90.7925 63.496C90.5545 63.6453 90.3048 63.7667 90.0435 63.86C89.7868 63.9487 89.5232 64.0117 89.2525 64.049C88.9865 64.0863 88.7275 64.105 88.4755 64.105C87.9762 64.105 87.5118 64.0233 87.0825 63.86C86.6532 63.692 86.2798 63.447 85.9625 63.125C85.6452 62.7983 85.3955 62.397 85.2135 61.921C85.0315 61.4403 84.9405 60.885 84.9405 60.255C84.9405 59.765 85.0198 59.3053 85.1785 58.876C85.3372 58.442 85.5635 58.0663 85.8575 57.749C86.1562 57.427 86.5178 57.1727 86.9425 56.986C87.3718 56.7993 87.8548 56.706 88.3915 56.706C88.8442 56.706 89.2618 56.7783 89.6445 56.923C90.0272 57.0677 90.3562 57.28 90.6315 57.56C90.9068 57.8353 91.1215 58.176 91.2755 58.582C91.4342 58.9833 91.5135 59.443 91.5135 59.961C91.5135 60.2223 91.4855 60.3997 91.4295 60.493C91.3735 60.5817 91.2662 60.626 91.1075 60.626H86.6625ZM94.428 57.7C94.5727 57.5553 94.7244 57.4223 94.883 57.301C95.0464 57.175 95.2167 57.07 95.394 56.986C95.576 56.8973 95.7697 56.8297 95.975 56.783C96.1804 56.7317 96.4044 56.706 96.647 56.706C97.039 56.706 97.3867 56.7737 97.69 56.909C97.9934 57.0397 98.2454 57.2263 98.446 57.469C98.6514 57.707 98.8054 57.994 98.908 58.33C99.0154 58.6613 99.069 59.0277 99.069 59.429V64H97.34V59.429C97.34 58.9903 97.2397 58.652 97.039 58.414C96.8384 58.1713 96.5327 58.05 96.122 58.05C95.8234 58.05 95.5434 58.1177 95.282 58.253C95.0207 58.3883 94.7734 58.5727 94.54 58.806V64H92.811V56.818H93.868C94.092 56.818 94.239 56.923 94.309 57.133L94.428 57.7ZM103.012 64.112C102.386 64.112 101.906 63.937 101.57 63.587C101.238 63.2323 101.073 62.7447 101.073 62.124V58.113H100.338C100.244 58.113 100.165 58.0827 100.1 58.022C100.034 57.9613 100.002 57.8703 100.002 57.749V57.063L101.157 56.874L101.521 54.914C101.544 54.8207 101.588 54.7483 101.654 54.697C101.719 54.6457 101.803 54.62 101.906 54.62H102.802V56.881H104.72V58.113H102.802V62.005C102.802 62.229 102.855 62.404 102.963 62.53C103.075 62.656 103.226 62.719 103.418 62.719C103.525 62.719 103.614 62.7073 103.684 62.684C103.758 62.656 103.821 62.628 103.873 62.6C103.929 62.572 103.978 62.5463 104.02 62.523C104.062 62.495 104.104 62.481 104.146 62.481C104.197 62.481 104.239 62.495 104.272 62.523C104.304 62.5463 104.339 62.5837 104.377 62.635L104.895 63.475C104.643 63.685 104.353 63.8437 104.027 63.951C103.7 64.0583 103.362 64.112 103.012 64.112Z" fill="#24164c"/>
</g>
<defs>
<clipPath id="clip0_2494_1996">
<rect width="254" height="93" rx="20" fill="white"/>
</clipPath>
</defs>
</svg>
