<svg width="18" height="22" viewBox="0 0 18 22" fill="none" xmlns="http://www.w3.org/2000/svg">
<path d="M9.05217 1.88457C9.36717 1.10457 10.2447 0.264573 11.3712 0.578073C12.2562 0.824073 12.8307 1.35807 13.1607 2.07207C13.4667 2.73657 13.5417 3.51957 13.5567 4.26507C13.5717 5.06757 13.4037 6.02907 13.2072 6.87207C13.1194 7.24458 13.0219 7.6147 12.9147 7.98207H14.9922C15.4583 7.9821 15.918 8.09074 16.3348 8.29938C16.7516 8.50801 17.1141 8.8109 17.3934 9.18402C17.6728 9.55714 17.8614 9.99023 17.9442 10.4489C18.0271 10.9076 18.0019 11.3793 17.8707 11.8266L15.8247 18.7956C15.6843 19.2738 15.45 19.7193 15.1355 20.1059C14.821 20.4925 14.4325 20.8126 13.9929 21.0473C13.5532 21.2821 13.0712 21.4269 12.5749 21.4732C12.0787 21.5195 11.5782 21.4664 11.1027 21.3171L3.06867 18.7941C2.63404 18.6576 2.23621 18.4238 1.90535 18.1107C1.5745 17.7975 1.31932 17.4131 1.15917 16.9866L0.37917 14.9106C0.130938 14.2499 0.123599 13.5228 0.358443 12.8572C0.593287 12.1917 1.05528 11.6302 1.66317 11.2716L4.47117 9.61557C4.75413 9.39178 5.01666 9.1433 5.25567 8.87307C5.77167 8.28957 6.48117 7.31907 7.19367 5.80557C7.50117 5.15157 7.75917 4.63707 7.99317 4.17057C8.37267 3.41607 8.69067 2.78457 9.05217 1.88457ZM5.27817 10.8801C5.26977 10.8852 5.26126 10.8902 5.25267 10.8951L2.42517 12.5631C2.12122 12.7424 1.89023 13.0231 1.77281 13.3559C1.65538 13.6887 1.65905 14.0522 1.78317 14.3826L2.56317 16.4586C2.64323 16.672 2.77089 16.8644 2.93646 17.0212C3.10202 17.1779 3.30114 17.2948 3.51867 17.3631L11.5497 19.8861C11.835 19.976 12.1354 20.0081 12.4334 19.9805C12.7313 19.9529 13.0207 19.8662 13.2847 19.7254C13.5486 19.5846 13.7819 19.3926 13.9708 19.1605C14.1597 18.9285 14.3004 18.6611 14.3847 18.3741L16.4292 11.4051C16.4949 11.1813 16.5076 10.9453 16.4662 10.7158C16.4248 10.4863 16.3305 10.2696 16.1907 10.083C16.0509 9.8963 15.8696 9.7448 15.661 9.64049C15.4524 9.53618 15.2224 9.48194 14.9892 9.48207H11.8902C11.7702 9.482 11.6519 9.45315 11.5454 9.39792C11.4389 9.34269 11.3472 9.26271 11.2779 9.16469C11.2087 9.06667 11.164 8.95348 11.1476 8.83461C11.1312 8.71574 11.1436 8.59468 11.1837 8.48157C11.3337 8.05857 11.5617 7.32507 11.7477 6.52857C11.9367 5.72157 12.0702 4.90557 12.0582 4.29357C12.0432 3.59157 11.9697 3.06957 11.7987 2.70057C11.6517 2.37807 11.4222 2.14857 10.9707 2.02257C10.9062 2.00457 10.8297 2.01057 10.7307 2.07507C10.6014 2.16735 10.5023 2.29571 10.4457 2.44407C10.1001 3.28621 9.71727 4.11253 9.29817 4.92057C9.06567 5.38407 8.82117 5.87157 8.55267 6.44307C7.78167 8.08407 6.99267 9.17607 6.37767 9.86757C6.07167 10.2126 5.81067 10.4571 5.61867 10.6206C5.52116 10.7035 5.42006 10.782 5.31567 10.8561L5.29167 10.8711L5.28417 10.8771L5.27967 10.8801H5.27817ZM4.46367 9.62007L4.46217 9.62157L4.46367 9.62007Z" fill="white"/>
</svg>
