<svg width="26" height="26" viewBox="0 0 26 26" fill="none" xmlns="http://www.w3.org/2000/svg">
<path d="M25.371 5.32818C24.9676 4.28552 24.3859 3.34067 23.6585 2.54652C22.9306 1.75 22.0723 1.11702 21.1304 0.682001C20.1537 0.229118 19.1062 -0.0026936 18.0486 2.36135e-05C16.5649 2.36135e-05 15.1172 0.453555 13.8592 1.31023C13.5583 1.51516 13.2724 1.74024 13.0015 1.98549C12.7306 1.74024 12.4447 1.51516 12.1438 1.31023C10.8857 0.453555 9.43812 2.36135e-05 7.95438 2.36135e-05C6.88597 2.36135e-05 5.85067 0.228469 4.87255 0.682001C3.92753 1.11874 3.07581 1.74696 2.34448 2.54652C1.61615 3.33977 1.03433 4.28485 0.632017 5.32818C0.213682 6.4133 0 7.56561 0 8.75151C0 9.87022 0.204653 11.036 0.61095 12.2219C0.951035 13.2129 1.43859 14.2409 2.06158 15.279C3.04873 16.9218 4.40606 18.6351 6.09144 20.372C8.88435 23.2511 11.6502 25.2399 11.7676 25.3205L12.4808 25.8312C12.7968 26.0563 13.2031 26.0563 13.5191 25.8312L14.2324 25.3205C14.3498 25.2366 17.1126 23.2511 19.9085 20.372C21.5939 18.6351 22.9512 16.9218 23.9384 15.279C24.5614 14.2409 25.0519 13.2129 25.389 12.2219C25.7953 11.036 26 9.87022 26 8.75151C26.003 7.56561 25.7893 6.4133 25.371 5.32818Z" fill="#F4B942"/>
</svg>
