<svg width="16" height="19" viewBox="0 0 16 19" fill="none" xmlns="http://www.w3.org/2000/svg">
<path d="M3.60484 2.75142L3.61786 2.74344L3.67777 2.70756C4.05 2.49265 4.43642 2.30437 4.83423 2.14411C5.61302 1.83182 6.66791 1.52617 7.81395 1.52617C8.96 1.52617 10.0149 1.83182 10.795 2.14411C11.1924 2.30437 11.5784 2.49264 11.9501 2.70756C11.9775 2.72351 11.997 2.73414 12.0087 2.74344L12.0218 2.75142H12.0231C12.1688 2.84187 12.3434 2.8704 12.5095 2.83087C12.6756 2.79133 12.8198 2.6869 12.9112 2.54C13.0027 2.3931 13.034 2.21547 12.9984 2.04528C12.9629 1.87508 12.8633 1.72591 12.7211 1.62982H12.7198L12.7172 1.62717L12.7107 1.62318L12.6873 1.60856C12.5654 1.53426 12.4417 1.46336 12.3161 1.39594C11.9769 1.21412 11.6282 1.05131 11.2716 0.908229C10.3991 0.55607 9.17488 0.197266 7.81395 0.197266C6.45172 0.197266 5.22884 0.55607 4.35628 0.908229C3.89647 1.09304 3.44997 1.31063 3.02009 1.55939C2.99346 1.57552 2.96698 1.59191 2.94065 1.60856L2.91721 1.62185L2.9107 1.62717L2.90809 1.62849C2.76216 1.72277 2.65891 1.87235 2.62106 2.04431C2.5832 2.21627 2.61384 2.39653 2.70623 2.54544C2.79863 2.69435 2.94521 2.7997 3.11373 2.83833C3.28225 2.87696 3.45891 2.8457 3.60484 2.75142ZM2.60465 4.18398C1.91385 4.18398 1.25135 4.46399 0.762885 4.96243C0.274418 5.46087 0 6.13689 0 6.84178V12.1574C0 12.8623 0.274418 13.5383 0.762885 14.0368C1.25135 14.5352 1.91385 14.8152 2.60465 14.8152H8.46512C9.15591 14.8152 9.81842 14.5352 10.3069 14.0368C10.7953 13.5383 11.0698 12.8623 11.0698 12.1574V11.974L14.6538 14.063C14.7528 14.1208 14.8649 14.1509 14.9789 14.1505C15.093 14.1501 15.2049 14.1192 15.3035 14.0608C15.4022 14.0024 15.484 13.9186 15.541 13.8178C15.5979 13.717 15.6279 13.6027 15.6279 13.4863V5.51288C15.6279 5.39652 15.5979 5.28221 15.541 5.18139C15.484 5.08057 15.4022 4.99677 15.3035 4.93838C15.2049 4.87998 15.093 4.84904 14.9789 4.84865C14.8649 4.84825 14.7528 4.87842 14.6538 4.93614L11.0698 7.02517V6.84178C11.0698 6.13689 10.7953 5.46087 10.3069 4.96243C9.81842 4.46399 9.15591 4.18398 8.46512 4.18398H2.60465ZM11.0698 8.55607L14.3256 6.65839V12.3408L11.0698 10.4431V8.55607ZM1.30233 6.84178C1.30233 6.48934 1.43953 6.15132 1.68377 5.90211C1.928 5.65289 2.25925 5.51288 2.60465 5.51288H8.46512C8.81051 5.51288 9.14177 5.65289 9.386 5.90211C9.63023 6.15132 9.76744 6.48934 9.76744 6.84178V12.1574C9.76744 12.5098 9.63023 12.8479 9.386 13.0971C9.14177 13.3463 8.81051 13.4863 8.46512 13.4863H2.60465C2.25925 13.4863 1.928 13.3463 1.68377 13.0971C1.43953 12.8479 1.30233 12.5098 1.30233 12.1574V6.84178ZM3.60614 16.2491L3.60484 16.2478C3.45915 16.1573 3.2845 16.1288 3.11843 16.1683C2.95235 16.2078 2.8081 16.3123 2.71668 16.4592C2.62525 16.6061 2.59395 16.7837 2.6295 16.9539C2.66505 17.1241 2.76461 17.2733 2.90679 17.3694H2.90809L2.9107 17.372L2.91721 17.376L2.94065 17.3906C2.95888 17.4039 2.98623 17.4185 3.02009 17.4398C3.08912 17.4797 3.18679 17.5368 3.31181 17.6046C3.56056 17.7375 3.9174 17.9142 4.35628 18.091C5.22884 18.4418 6.45302 18.8019 7.81395 18.8019C9.17619 18.8019 10.3991 18.4431 11.2716 18.091C11.7314 17.9061 12.1779 17.6886 12.6078 17.4398L12.6873 17.3906L12.7107 17.3773L12.7172 17.372L12.7198 17.3707H12.7211C12.867 17.2762 12.9702 17.1265 13.008 16.9544C13.0457 16.7823 13.0149 16.602 12.9223 16.4531C12.8298 16.3042 12.683 16.1989 12.5144 16.1604C12.3457 16.1219 12.169 16.1533 12.0231 16.2478L12.01 16.2571L11.9501 16.2916C11.5779 16.5066 11.1915 16.6948 10.7937 16.8551C10.0149 17.1674 8.96 17.473 7.81395 17.473C6.66791 17.473 5.61302 17.1674 4.83293 16.8551C4.43558 16.6947 4.0496 16.5064 3.67777 16.2916C3.65813 16.2798 3.63859 16.2679 3.61916 16.2557L3.60614 16.2491Z" fill="#4059AD"/>
</svg>
