<svg width="10" height="11" viewBox="0 0 10 11" fill="none" xmlns="http://www.w3.org/2000/svg">
<path d="M8.85754 5.06742C9.05504 5.32575 9.05504 5.6745 8.85754 5.93242C8.23545 6.7445 6.74295 8.41659 5.00045 8.41659C3.25795 8.41659 1.76545 6.7445 1.14337 5.93242C1.04728 5.80872 0.995117 5.65655 0.995117 5.49992C0.995117 5.34329 1.04728 5.19111 1.14337 5.06742C1.76545 4.25534 3.25795 2.58325 5.00045 2.58325C6.74295 2.58325 8.23545 4.25534 8.85754 5.06742V5.06742Z" stroke="white" stroke-linecap="round" stroke-linejoin="round"/>
<path d="M5 6.75C5.69036 6.75 6.25 6.19036 6.25 5.5C6.25 4.80964 5.69036 4.25 5 4.25C4.30964 4.25 3.75 4.80964 3.75 5.5C3.75 6.19036 4.30964 6.75 5 6.75Z" stroke="white" stroke-linecap="round" stroke-linejoin="round"/>
</svg>
