<svg width="23" height="28" viewBox="0 0 23 28" fill="none" xmlns="http://www.w3.org/2000/svg">
<path d="M5.2946 3.75141L5.31373 3.7397L5.40172 3.687C5.94844 3.37134 6.516 3.09482 7.10028 2.85943C8.24413 2.40075 9.79349 1.95183 11.4767 1.95183C13.16 1.95183 14.7094 2.40075 15.8551 2.85943C16.4388 3.09481 17.0057 3.37133 17.5518 3.687C17.5919 3.71042 17.6206 3.72604 17.6378 3.7397L17.657 3.75141H17.6589C17.8729 3.88427 18.1294 3.92616 18.3733 3.8681C18.6172 3.81004 18.8291 3.65664 18.9634 3.44089C19.0976 3.22514 19.1436 2.96424 19.0914 2.71427C19.0392 2.4643 18.893 2.2452 18.6841 2.10407H18.6822L18.6784 2.10017L18.6688 2.09431L18.6344 2.07284C18.4555 1.96371 18.2737 1.85958 18.0893 1.76055C17.591 1.49351 17.0789 1.25438 16.5552 1.04423C15.2736 0.526993 13.4756 0 11.4767 0C9.47596 0 7.67985 0.526993 6.39828 1.04423C5.72294 1.31566 5.06714 1.63525 4.43576 2.00062C4.39664 2.02432 4.35775 2.04839 4.31908 2.07284L4.28465 2.09236L4.27509 2.10017L4.27126 2.10212C4.05693 2.24059 3.90528 2.46028 3.84968 2.71284C3.79407 2.96541 3.83908 3.23017 3.97478 3.44888C4.11048 3.66759 4.32577 3.82233 4.57329 3.87907C4.8208 3.9358 5.08027 3.88988 5.2946 3.75141ZM3.82558 5.85548C2.81097 5.85548 1.83792 6.26676 1.12049 6.99884C0.403051 7.73091 0 8.72382 0 9.75914V17.5664C0 18.6018 0.403051 19.5947 1.12049 20.3267C1.83792 21.0588 2.81097 21.4701 3.82558 21.4701H12.4331C13.4477 21.4701 14.4208 21.0588 15.1382 20.3267C15.8557 19.5947 16.2587 18.6018 16.2587 17.5664V17.2971L21.5227 20.3654C21.6681 20.4501 21.8328 20.4944 22.0003 20.4939C22.1678 20.4933 22.3322 20.4478 22.4771 20.3621C22.6219 20.2763 22.7422 20.1532 22.8258 20.0051C22.9094 19.8571 22.9534 19.6892 22.9535 19.5183V7.80731C22.9534 7.63641 22.9094 7.46852 22.8258 7.32044C22.7422 7.17236 22.6219 7.04927 22.4771 6.96351C22.3322 6.87774 22.1678 6.83229 22.0003 6.83172C21.8328 6.83114 21.6681 6.87545 21.5227 6.96022L16.2587 10.0285V9.75914C16.2587 8.72382 15.8557 7.73091 15.1382 6.99884C14.4208 6.26676 13.4477 5.85548 12.4331 5.85548H3.82558ZM16.2587 12.277L21.0407 9.48978V17.8358L16.2587 15.0486V12.277ZM1.91279 9.75914C1.91279 9.24148 2.11432 8.74502 2.47303 8.37899C2.83175 8.01295 3.31828 7.80731 3.82558 7.80731H12.4331C12.9404 7.80731 13.427 8.01295 13.7857 8.37899C14.1444 8.74502 14.3459 9.24148 14.3459 9.75914V17.5664C14.3459 18.0841 14.1444 18.5806 13.7857 18.9466C13.427 19.3126 12.9404 19.5183 12.4331 19.5183H3.82558C3.31828 19.5183 2.83175 19.3126 2.47303 18.9466C2.11432 18.5806 1.91279 18.0841 1.91279 17.5664V9.75914ZM5.29652 23.5761L5.2946 23.5742C5.08063 23.4413 4.82411 23.3994 4.58019 23.4575C4.33626 23.5155 4.1244 23.6689 3.99012 23.8847C3.85584 24.1004 3.80987 24.3613 3.86208 24.6113C3.91429 24.8613 4.06052 25.0804 4.26935 25.2215H4.27126L4.27509 25.2254L4.28465 25.2313L4.31908 25.2527C4.34586 25.2723 4.38603 25.2937 4.43576 25.325C4.53714 25.3835 4.6806 25.4674 4.86423 25.567C5.22957 25.7622 5.75367 26.0218 6.39828 26.2814C7.67985 26.7966 9.47788 27.3256 11.4767 27.3256C13.4775 27.3256 15.2736 26.7986 16.5552 26.2814C17.2305 26.0099 17.8863 25.6903 18.5177 25.325L18.6344 25.2527L18.6688 25.2332L18.6784 25.2254L18.6822 25.2235H18.6841C18.8985 25.0847 19.05 24.8648 19.1054 24.612C19.1609 24.3593 19.1156 24.0944 18.9797 23.8757C18.8437 23.657 18.6282 23.5024 18.3805 23.4458C18.1328 23.3893 17.8732 23.4354 17.6589 23.5742L17.6398 23.5878L17.5518 23.6386C17.0051 23.9543 16.4375 24.2308 15.8532 24.4662C14.7094 24.9248 13.16 25.3738 11.4767 25.3738C9.79349 25.3738 8.24413 24.9248 7.09837 24.4662C6.51476 24.2306 5.94785 23.9541 5.40172 23.6386C5.37288 23.6213 5.34418 23.6037 5.31564 23.5859L5.29652 23.5761Z" fill="#24164C"/>
</svg>
