<svg width="14" height="14" viewBox="0 0 14 14" fill="none" xmlns="http://www.w3.org/2000/svg">
<path d="M7 7.5835C7.9665 7.5835 8.75 6.79999 8.75 5.8335C8.75 4.867 7.9665 4.0835 7 4.0835C6.0335 4.0835 5.25 4.867 5.25 5.8335C5.25 6.79999 6.0335 7.5835 7 7.5835Z" stroke="#7546f6" stroke-linecap="round" stroke-linejoin="round"/>
<path d="M7.00065 1.16675C5.76297 1.16675 4.57599 1.65841 3.70082 2.53358C2.82565 3.40875 2.33398 4.59574 2.33398 5.83342C2.33398 6.93708 2.56848 7.65925 3.20898 8.45842L7.00065 12.8334L10.7923 8.45842C11.4328 7.65925 11.6673 6.93708 11.6673 5.83342C11.6673 4.59574 11.1757 3.40875 10.3005 2.53358C9.42531 1.65841 8.23833 1.16675 7.00065 1.16675V1.16675Z" stroke="#7546f6" stroke-linecap="round" stroke-linejoin="round"/>
</svg>
