<svg id="Layer_1" data-name="Layer 1" xmlns="http://www.w3.org/2000/svg" viewBox="0 0 512 512"><defs><style>.cls-1{fill:#7546f6;}.cls-2{fill:#f18902;}</style></defs><path class="cls-1" d="M205.38,329.72C238.57,353,284.5,346,310,313.8l6.2-7.84,32.3,23.63-6.75,8.46a122.75,122.75,0,0,1-75.19,44.17c-29.84,5.13-59.45-.92-83.37-17-25.62-17.27-42.95-43.93-48.76-75.07a118.15,118.15,0,0,1,19.29-89.87l6.06-8.7,32.18,23.54-5.68,8.29C162.56,258,171.13,305.73,205.38,329.72Z"/><path class="cls-2" d="M379.66,287l-35.5,5.72L323.48,164.16,194.93,184.85l-5.72-35.5L319,128.45a33.78,33.78,0,0,1,12.42.26l1.27.28a34.23,34.23,0,0,1,26,27.9Z"/><circle class="cls-1" cx="259.48" cy="252.28" r="44.25"/></svg>