<svg width="24" height="19" viewBox="0 0 24 19" fill="none" xmlns="http://www.w3.org/2000/svg">
<path d="M21.2687 0.299225C21.0121 0.133228 20.7186 0.0328028 20.4141 0.00677782C20.1096 -0.0192471 19.8034 0.0299248 19.5224 0.149971L10.3134 3.77684C10.0954 3.86557 9.86225 3.91119 9.62687 3.91117H3.73134C3.23654 3.91117 2.762 4.10773 2.41211 4.45761C2.06223 4.80749 1.86567 5.28203 1.86567 5.77684V5.92609H0V10.4037H1.86567V10.5977C1.87736 11.0847 2.07907 11.5479 2.4277 11.8881C2.77632 12.2284 3.2442 12.4188 3.73134 12.4186L5.97015 17.1649C6.12175 17.4845 6.36042 17.7549 6.65875 17.945C6.95708 18.1351 7.30298 18.2372 7.65672 18.2395H8.59702C9.08923 18.2356 9.55995 18.0373 9.90661 17.6878C10.2533 17.3384 10.4478 16.8661 10.4478 16.3739V12.5977L19.5224 16.2246C19.7456 16.3134 19.9837 16.359 20.2239 16.3589C20.5966 16.3529 20.9595 16.2388 21.2687 16.0306C21.5141 15.8648 21.7166 15.643 21.8594 15.3835C22.0021 15.1239 22.081 14.8341 22.0896 14.538V1.83654C22.0882 1.53283 22.0127 1.23405 21.8696 0.966141C21.7266 0.698233 21.5203 0.4693 21.2687 0.299225ZM8.58209 5.77684V10.5977H3.73134V5.77684H8.58209ZM8.58209 16.3739H7.64179L5.80597 12.4186H8.58209V16.3739ZM11 10.8216C10.8228 10.7311 10.638 10.6561 10.4478 10.5977V5.67236C10.6362 5.63348 10.8209 5.57856 11 5.50818L20.2239 1.83654V14.4933L11 10.8216ZM22.1343 6.29922V10.0306C22.6291 10.0306 23.1037 9.83401 23.4536 9.48413C23.8034 9.13424 24 8.6597 24 8.1649C24 7.67009 23.8034 7.19555 23.4536 6.84567C23.1037 6.49579 22.6291 6.29922 22.1343 6.29922Z" fill="black"/>
</svg>
