<svg width="25" height="25" viewBox="0 0 25 25" fill="none" xmlns="http://www.w3.org/2000/svg">
<g clip-path="url(#clip0_2618_799)">
<path d="M20.3125 12.4995C20.3125 13.3808 20.1656 14.2292 19.8969 15.0199L18.625 13.748C18.7082 13.337 18.7501 12.9188 18.75 12.4995V10.937C18.75 10.7298 18.8323 10.5311 18.9788 10.3846C19.1253 10.2381 19.324 10.1558 19.5312 10.1558C19.7385 10.1558 19.9372 10.2381 20.0837 10.3846C20.2302 10.5311 20.3125 10.7298 20.3125 10.937V12.4995ZM12.5 18.7495C13.7781 18.7495 14.9656 18.3667 15.9563 17.7074L17.0781 18.8308C15.9627 19.6396 14.6524 20.1374 13.2812 20.273V23.437H17.9688C18.176 23.437 18.3747 23.5194 18.5212 23.6659C18.6677 23.8124 18.75 24.0111 18.75 24.2183C18.75 24.4255 18.6677 24.6242 18.5212 24.7707C18.3747 24.9172 18.176 24.9995 17.9688 24.9995H7.03125C6.82405 24.9995 6.62534 24.9172 6.47882 24.7707C6.33231 24.6242 6.25 24.4255 6.25 24.2183C6.25 24.0111 6.33231 23.8124 6.47882 23.6659C6.62534 23.5194 6.82405 23.437 7.03125 23.437H11.7188V20.273C9.79169 20.0793 8.00527 19.1767 6.70606 17.7404C5.40685 16.304 4.68748 14.4363 4.6875 12.4995V10.937C4.6875 10.7298 4.76981 10.5311 4.91632 10.3846C5.06284 10.2381 5.26155 10.1558 5.46875 10.1558C5.67595 10.1558 5.87466 10.2381 6.02118 10.3846C6.16769 10.5311 6.25 10.7298 6.25 10.937V12.4995C6.25 14.1571 6.90848 15.7469 8.08058 16.919C9.25268 18.0911 10.8424 18.7495 12.5 18.7495ZM17.1875 4.68704V12.3105L15.625 10.748V4.68704C15.6286 3.87182 15.3135 3.08746 14.7469 2.50131C14.1803 1.91516 13.4071 1.57362 12.5922 1.54956C11.7774 1.52551 10.9854 1.82084 10.3852 2.37254C9.785 2.92425 9.42418 3.68865 9.37969 4.50266L8.05938 3.18235C8.4171 2.13116 9.13625 1.24103 10.0888 0.670424C11.0414 0.0998133 12.1655 -0.114246 13.2611 0.0663535C14.3567 0.246953 15.3527 0.810491 16.0717 1.65664C16.7907 2.5028 17.1861 3.57665 17.1875 4.68704Z" fill="white"/>
<path d="M14.8223 16.5729L13.6535 15.4041C13.1795 15.5923 12.6666 15.6616 12.1596 15.606C11.6526 15.5504 11.167 15.3715 10.745 15.085C10.3231 14.7985 9.97763 14.4131 9.73889 13.9624C9.50015 13.5117 9.37535 13.0094 9.37539 12.4994V11.1275L7.81289 9.56504V12.4994C7.81265 13.3202 8.02794 14.1267 8.43723 14.8382C8.84652 15.5497 9.43545 16.1412 10.1451 16.5536C10.8548 16.9661 11.6603 17.1849 12.4811 17.1883C13.3019 17.1916 14.1092 16.9794 14.8223 16.5729ZM2.57227 2.11504L21.3223 20.865L22.4285 19.7588L3.67852 1.00879L2.57227 2.11504Z" fill="white"/>
</g>
<defs>
<clipPath id="clip0_2618_799">
<rect width="25" height="25" fill="white"/>
</clipPath>
</defs>
</svg>
