<svg width="29" height="29" viewBox="0 0 29 29" fill="none" xmlns="http://www.w3.org/2000/svg">
<g clip-path="url(#clip0_2514_2473)">
<path d="M9.71094 6.18954C9.71094 4.93631 10.2209 3.73187 11.1328 2.8419C12.0451 1.95152 13.285 1.44922 14.5803 1.44922C15.8755 1.44922 17.1154 1.95152 18.0277 2.8419C18.9396 3.73187 19.4496 4.93631 19.4496 6.18954V14.9234C19.4496 16.1767 18.9396 17.3811 18.0277 18.2711C17.1154 19.1614 15.8755 19.6637 14.5803 19.6637C13.285 19.6637 12.0451 19.1614 11.1328 18.2711C10.2209 17.3811 9.71094 16.1767 9.71094 14.9234V6.18954Z" stroke="white"/>
<path d="M15.4258 23.1165L14.9746 23.1607V23.6141V27.1513V27.6513H15.4746H20.8439C20.9525 27.6513 21.0543 27.6935 21.1275 27.7649C21.2002 27.8359 21.2388 27.9296 21.2388 28.0247C21.2388 28.1197 21.2002 28.2134 21.1275 28.2844C21.0543 28.3559 20.9525 28.3981 20.8439 28.3981H8.31552C8.20692 28.3981 8.10514 28.3559 8.03197 28.2844C7.95921 28.2134 7.92063 28.1197 7.92063 28.0247C7.92063 27.9296 7.95921 27.8359 8.03197 27.7649C8.10514 27.6935 8.20692 27.6513 8.31552 27.6513H13.6848H14.1848V27.1513V23.6141V23.1607L13.7336 23.1165C11.6462 22.9117 9.71363 21.9577 8.30975 20.4429C6.90618 18.9285 6.13083 16.9615 6.13086 14.9239V14.9239V13.1771C6.13086 13.082 6.16943 12.9884 6.24219 12.9173C6.31537 12.8459 6.41715 12.8037 6.52575 12.8037C6.63435 12.8037 6.73612 12.8459 6.8093 12.9173C6.88206 12.9884 6.92063 13.082 6.92063 13.1771V14.9239C6.92063 16.9136 7.7306 18.8192 9.16825 20.2223C10.6055 21.625 12.5523 22.411 14.5797 22.411C16.6072 22.411 18.554 21.625 19.9912 20.2223C21.4288 18.8192 22.2388 16.9136 22.2388 14.9239V13.1771C22.2388 13.082 22.2774 12.9884 22.3501 12.9173C22.4233 12.8459 22.5251 12.8037 22.6337 12.8037C22.7423 12.8037 22.8441 12.8459 22.9173 12.9173C22.99 12.9884 23.0286 13.082 23.0286 13.1771V14.9239C23.0286 16.9615 22.2533 18.9285 20.8497 20.4429C19.4458 21.9577 17.5132 22.9117 15.4258 23.1165Z" stroke="white"/>
</g>
<defs>
<clipPath id="clip0_2514_2473">
<rect width="28.6364" height="27.9484" fill="white" transform="translate(0.261719 0.949219)"/>
</clipPath>
</defs>
</svg>
