<svg width="24" height="24" viewBox="0 0 24 24" fill="none" xmlns="http://www.w3.org/2000/svg">
<path d="M16 6C16 3.79086 14.2091 2 12 2C9.79086 2 8 3.79086 8 6V11C8 13.2091 9.79086 15 12 15C14.2091 15 16 13.2091 16 11V6Z" stroke="black" stroke-width="2" stroke-linecap="round" stroke-linejoin="round"/>
<path d="M10 22H14M18 16.292C17.25 17.1442 16.3269 17.8265 15.2922 18.2935C14.2576 18.7605 13.1352 19.0013 12 19C10.8648 19.0013 9.74243 18.7605 8.70776 18.2935C7.67309 17.8265 6.74995 17.1442 6 16.292H18ZM12 19V22V19Z" stroke="black" stroke-width="2" stroke-linecap="round" stroke-linejoin="round"/>
</svg>
