<svg width="21" height="21" viewBox="0 0 21 21" fill="none" xmlns="http://www.w3.org/2000/svg">
<g clip-path="url(#clip0_2514_2486)">
<path d="M17.5775 2.60449H0.650391V15.6253H17.5775V2.60449ZM16.2754 14.3232H1.95247V3.90658H16.2754V14.3232Z" fill="white"/>
<path d="M18.8802 5.85938V16.9271H3.90625V18.2292H20.1823V5.85938H18.8802Z" fill="white"/>
<path d="M9.11523 12.3075C10.7306 12.3075 12.0449 10.8777 12.0449 9.12036C12.0449 7.363 10.7306 5.93327 9.11523 5.93327C7.49984 5.93327 6.18555 7.36296 6.18555 9.12036C6.18555 10.8778 7.49984 12.3075 9.11523 12.3075ZM9.11523 7.23535C10.0127 7.23535 10.7428 8.08097 10.7428 9.12036C10.7428 10.1597 10.0127 11.0054 9.11523 11.0054C8.21777 11.0054 7.48763 10.1597 7.48763 9.12036C7.48763 8.08097 8.21777 7.23535 9.11523 7.23535ZM3.25586 5.53418H4.55794V12.6956H3.25586V5.53418ZM13.6725 5.53418H14.9746V12.6956H13.6725V5.53418Z" fill="white"/>
</g>
<defs>
<clipPath id="clip0_2514_2486">
<rect width="20.8333" height="20.8333" fill="white"/>
</clipPath>
</defs>
</svg>
