<svg width="17" height="21" viewBox="0 0 17 21" fill="none" xmlns="http://www.w3.org/2000/svg">
<path d="M14.2513 14.667V14.8741L14.3977 15.0205L16.3346 16.9574V17.292H0.667969V16.9574L2.60486 15.0205L2.7513 14.8741V14.667V9.45866C2.7513 6.4247 4.34141 4.00458 7.05408 3.36186L7.4388 3.2707V2.87533V2.16699C7.4388 1.57855 7.91286 1.10449 8.5013 1.10449C9.08974 1.10449 9.5638 1.57855 9.5638 2.16699V2.87533V3.27038L9.94815 3.36176C12.6511 4.00442 14.2513 6.43556 14.2513 9.45866V14.667ZM10.003 19.3337C9.79207 19.9609 9.19655 20.417 8.5013 20.417C8.08138 20.417 7.67865 20.2502 7.38172 19.9532C7.20609 19.7776 7.07598 19.565 6.99899 19.3337H10.003Z" stroke="#323232"/>
</svg>
