<svg width="13" height="15" viewBox="0 0 13 15" fill="none" xmlns="http://www.w3.org/2000/svg">
<path d="M10.2507 10.3333V10.5404L10.3971 10.6868L11.6673 11.957V11.9583H1.33398V11.957L2.6042 10.6868L2.75065 10.5404V10.3333V6.79158C2.75065 4.78429 3.79742 3.21751 5.55343 2.80145L5.93815 2.71029V2.31492V1.83325C5.93815 1.52148 6.18888 1.27075 6.50065 1.27075C6.81243 1.27075 7.06315 1.52148 7.06315 1.83325V2.31492V2.70998L7.44749 2.80136C9.1971 3.21735 10.2507 4.79182 10.2507 6.79158V10.3333ZM7.26732 13.6666C7.10294 13.9168 6.81978 14.0833 6.50065 14.0833C6.25754 14.0833 6.02438 13.9867 5.85247 13.8148C5.80704 13.7693 5.76687 13.7196 5.73235 13.6666H7.26732Z" stroke="white"/>
</svg>
