<svg width="16" height="19" viewBox="0 0 16 19" fill="none" xmlns="http://www.w3.org/2000/svg">
<path d="M8.00008 18.6667C9.00842 18.6667 9.83342 17.8417 9.83342 16.8334H6.16675C6.16675 17.3196 6.3599 17.786 6.70372 18.1298C7.04754 18.4736 7.51385 18.6667 8.00008 18.6667ZM13.5001 13.1667V8.58342C13.5001 5.76925 11.9967 3.41341 9.37508 2.79008V2.16675C9.37508 1.40591 8.76091 0.791748 8.00008 0.791748C7.23925 0.791748 6.62508 1.40591 6.62508 2.16675V2.79008C3.99425 3.41341 2.50008 5.76008 2.50008 8.58342V13.1667L0.666748 15.0001V15.9167H15.3334V15.0001L13.5001 13.1667Z" fill="#24164C"/>
</svg>
