<svg width="25" height="25" viewBox="0 0 25 25" fill="none" xmlns="http://www.w3.org/2000/svg">
<path d="M18.2501 16.6667V16.8739L18.3965 17.0203L20.3334 18.9572V19.2917H4.66675V18.9572L6.60363 17.0203L6.75008 16.8739V16.6667V11.4584C6.75008 8.42445 8.34019 6.00433 11.0529 5.36161L11.4376 5.27046V4.87508V4.16675C11.4376 3.57831 11.9116 3.10425 12.5001 3.10425C13.0885 3.10425 13.5626 3.57831 13.5626 4.16675V4.87508V5.27014L13.9469 5.36152C16.6499 6.00418 18.2501 8.43531 18.2501 11.4584V16.6667ZM14.0018 21.3334C13.7908 21.9607 13.1953 22.4167 12.5001 22.4167C12.0802 22.4167 11.6774 22.2499 11.3805 21.953C11.2049 21.7774 11.0748 21.5647 10.9978 21.3334H14.0018Z" />
</svg>
