<svg width="24" height="24" viewBox="0 0 24 24" fill="none" xmlns="http://www.w3.org/2000/svg">
<path d="M23.0004 7.00008C21.2378 6.9031 19.4891 7.36125 18.0004 8.31008C17.6404 7.90008 17.2704 7.49008 16.8804 7.10008L16.5904 6.83008L16.7304 6.71008C17.2195 6.29029 17.568 5.73059 17.7289 5.10651C17.8898 4.48244 17.8555 3.82401 17.6304 3.22008C17.3054 2.53826 16.7893 1.96551 16.1449 1.57142C15.5005 1.17732 14.7555 0.978838 14.0004 1.00008V3.00008C14.3562 2.99513 14.7069 3.08519 15.0163 3.26097C15.3257 3.43676 15.5826 3.6919 15.7604 4.00008C15.9304 4.40008 15.7604 4.84008 15.2904 5.31008L15.0604 5.52008C14.0174 4.65093 12.8723 3.91215 11.6504 3.32008C9.12045 2.18008 7.82044 2.71008 7.18044 3.32008C6.98543 3.51557 6.82933 3.74632 6.72044 4.00008L6.54044 4.53008L5.10044 8.87008C6.24044 11.7101 9.00045 16.7601 15.0004 18.9401L20.0004 17.2801C20.1691 17.2173 20.3176 17.1102 20.4304 16.9701L20.6404 16.7901C22.0704 15.3501 21.1504 12.5801 19.2304 9.89008C20.3705 9.22473 21.6832 8.91484 23.0004 9.00008V7.00008ZM19.2104 15.3701H19.1504C18.4604 15.7401 15.6004 14.8001 12.3604 11.5601C12.0204 11.2201 11.7004 10.8901 11.4104 10.5601C11.3104 10.4501 11.2204 10.3301 11.1204 10.2101L10.5904 9.57008L10.3104 9.18008C10.1704 8.99008 10.0304 8.80008 9.91044 8.62008C9.79044 8.44008 9.75044 8.36008 9.67044 8.23008C9.59045 8.10008 9.45044 7.89008 9.36044 7.72008C9.27044 7.55008 9.23044 7.48008 9.17044 7.35008C9.11045 7.22008 9.00044 7.07008 8.94044 6.93008C8.88044 6.79008 8.85045 6.70008 8.80045 6.59008C8.75044 6.48008 8.69044 6.32008 8.65044 6.19008C8.61044 6.06008 8.60044 6.00008 8.58044 5.90008C8.56044 5.80008 8.52044 5.66008 8.50044 5.56008C8.49564 5.48015 8.49564 5.40001 8.50044 5.32008C8.49062 5.23369 8.49062 5.14647 8.50044 5.06008L8.61044 4.75008C8.78044 4.57008 9.52045 4.52008 10.8404 5.12008C11.7226 5.54386 12.5573 6.06009 13.3304 6.66008C12.9089 6.84611 12.4595 6.961 12.0004 7.00008V9.00008C13.0628 8.9398 14.0936 8.61682 15.0004 8.06008L15.4904 8.52008C15.9304 8.95008 16.3204 9.38008 16.6804 9.79008C16.0775 10.8182 15.838 12.0193 16.0004 13.2001L18.0004 12.8101C17.9329 12.4331 17.9329 12.0471 18.0004 11.6701C19.2904 13.6401 19.5304 15.0601 19.2104 15.3701ZM4.40044 11.0001L2.17044 17.7001C2.00949 18.192 1.96723 18.715 2.04712 19.2264C2.12701 19.7377 2.32677 20.2229 2.63009 20.6423C2.93341 21.0617 3.33166 21.4033 3.7923 21.6393C4.25293 21.8753 4.76288 21.9989 5.28045 22.0001C5.62068 21.9968 5.95823 21.9394 6.28045 21.8301L12.8004 19.6601C9.12058 17.7807 6.16678 14.7355 4.40044 11.0001Z" fill="#323232"/>
</svg>
