<svg width="14" height="14" viewBox="0 0 14 14" fill="none" xmlns="http://www.w3.org/2000/svg">
<path d="M13.125 12.25C13.125 12.25 14 12.25 14 11.375C14 10.5 13.125 7.875 9.625 7.875C6.125 7.875 5.25 10.5 5.25 11.375C5.25 12.25 6.125 12.25 6.125 12.25H13.125ZM6.14425 11.375C6.13779 11.3741 6.13136 11.3729 6.125 11.3715C6.12587 11.1405 6.27113 10.4703 6.79 9.8665C7.273 9.30037 8.12175 8.75 9.625 8.75C11.1274 8.75 11.9761 9.30125 12.46 9.8665C12.9789 10.4703 13.1233 11.1414 13.125 11.3715L13.118 11.3733C13.1139 11.3739 13.1098 11.3745 13.1058 11.375H6.14425ZM9.625 6.125C10.0891 6.125 10.5342 5.94063 10.8624 5.61244C11.1906 5.28425 11.375 4.83913 11.375 4.375C11.375 3.91087 11.1906 3.46575 10.8624 3.13756C10.5342 2.80937 10.0891 2.625 9.625 2.625C9.16087 2.625 8.71575 2.80937 8.38756 3.13756C8.05937 3.46575 7.875 3.91087 7.875 4.375C7.875 4.83913 8.05937 5.28425 8.38756 5.61244C8.71575 5.94063 9.16087 6.125 9.625 6.125ZM12.25 4.375C12.25 4.71972 12.1821 5.06106 12.0502 5.37954C11.9183 5.69802 11.7249 5.9874 11.4812 6.23116C11.2374 6.47491 10.948 6.66827 10.6295 6.80018C10.3111 6.9321 9.96972 7 9.625 7C9.28028 7 8.93894 6.9321 8.62046 6.80018C8.30198 6.66827 8.0126 6.47491 7.76884 6.23116C7.52509 5.9874 7.33173 5.69802 7.19982 5.37954C7.0679 5.06106 7 4.71972 7 4.375C7 3.67881 7.27656 3.01113 7.76884 2.51884C8.26113 2.02656 8.92881 1.75 9.625 1.75C10.3212 1.75 10.9889 2.02656 11.4812 2.51884C11.9734 3.01113 12.25 3.67881 12.25 4.375ZM6.069 8.12C5.71898 8.00978 5.35818 7.93733 4.99275 7.90387C4.78742 7.88435 4.58126 7.87471 4.375 7.875C0.875 7.875 0 10.5 0 11.375C0 11.9586 0.291375 12.25 0.875 12.25H4.564C4.43429 11.9768 4.3696 11.6773 4.375 11.375C4.375 10.4913 4.70487 9.58825 5.32875 8.834C5.54138 8.57675 5.789 8.33612 6.069 8.12ZM4.305 8.75C3.78713 9.52811 3.50739 10.4403 3.5 11.375H0.875C0.875 11.1475 1.0185 10.4738 1.54 9.8665C2.01688 9.31 2.8455 8.7675 4.305 8.75088V8.75ZM1.3125 4.8125C1.3125 4.11631 1.58906 3.44863 2.08134 2.95634C2.57363 2.46406 3.24131 2.1875 3.9375 2.1875C4.63369 2.1875 5.30137 2.46406 5.79366 2.95634C6.28594 3.44863 6.5625 4.11631 6.5625 4.8125C6.5625 5.50869 6.28594 6.17637 5.79366 6.66866C5.30137 7.16094 4.63369 7.4375 3.9375 7.4375C3.24131 7.4375 2.57363 7.16094 2.08134 6.66866C1.58906 6.17637 1.3125 5.50869 1.3125 4.8125ZM3.9375 3.0625C3.47337 3.0625 3.02825 3.24687 2.70006 3.57506C2.37187 3.90325 2.1875 4.34837 2.1875 4.8125C2.1875 5.27663 2.37187 5.72175 2.70006 6.04994C3.02825 6.37813 3.47337 6.5625 3.9375 6.5625C4.40163 6.5625 4.84675 6.37813 5.17494 6.04994C5.50313 5.72175 5.6875 5.27663 5.6875 4.8125C5.6875 4.34837 5.50313 3.90325 5.17494 3.57506C4.84675 3.24687 4.40163 3.0625 3.9375 3.0625Z" fill="#7546f6"/>
</svg>
