<svg width="25" height="25" viewBox="0 0 25 25" fill="none" xmlns="http://www.w3.org/2000/svg">
<path d="M4.68918 21.375L4.69034 21.375L4.68661 21.3749C4.68106 21.3747 4.67062 21.3743 4.65598 21.3732C4.62655 21.3711 4.58124 21.3667 4.52556 21.3574C4.41182 21.3384 4.26781 21.3015 4.12986 21.2325C3.99386 21.1645 3.87307 21.0703 3.78517 20.9385C3.69935 20.8097 3.625 20.6156 3.625 20.3125C3.625 19.6596 3.9659 18.2256 5.23637 16.9551C6.49218 15.6993 8.6992 14.5625 12.5 14.5625C16.3008 14.5625 18.5078 15.6993 19.7636 16.9551C21.0341 18.2256 21.375 19.6596 21.375 20.3125C21.375 20.6156 21.3007 20.8097 21.2148 20.9385C21.1269 21.0703 21.0061 21.1645 20.8701 21.2325C20.7322 21.3015 20.5882 21.3384 20.4744 21.3574C20.4188 21.3667 20.3734 21.3711 20.344 21.3732C20.3294 21.3743 20.3189 21.3747 20.3134 21.3749L20.3097 21.375L20.3108 21.375L20.3116 21.375H20.3096H4.69044H4.68841L4.68918 21.375ZM15.461 10.7735C14.6757 11.5588 13.6106 12 12.5 12C11.3894 12 10.3243 11.5588 9.53899 10.7735C8.75368 9.9882 8.3125 8.92309 8.3125 7.8125C8.3125 6.70191 8.75368 5.6368 9.53899 4.85149C10.3243 4.06618 11.3894 3.625 12.5 3.625C13.6106 3.625 14.6757 4.06618 15.461 4.85149C16.2463 5.6368 16.6875 6.70191 16.6875 7.8125C16.6875 8.92309 16.2463 9.9882 15.461 10.7735Z" />
</svg>
