<svg width="29" height="29" viewBox="0 0 29 29" fill="none" xmlns="http://www.w3.org/2000/svg">
<circle cx="14.5" cy="14.5" r="14.5" fill="white"/>
<path d="M14.9928 19.8773C14.8935 19.8776 14.7954 19.8557 14.7057 19.8131C14.616 19.7706 14.537 19.7085 14.4744 19.6314L11.2645 15.6439C11.1667 15.525 11.1133 15.3758 11.1133 15.2219C11.1133 15.0679 11.1667 14.9188 11.2645 14.7998L14.5874 10.8123C14.7002 10.6766 14.8623 10.5913 15.038 10.5751C15.2138 10.5589 15.3887 10.6131 15.5244 10.726C15.6602 10.8388 15.7455 11.0009 15.7617 11.1766C15.7779 11.3523 15.7236 11.5273 15.6108 11.663L12.6402 15.2252L15.5112 18.7873C15.5924 18.8849 15.644 19.0037 15.6599 19.1297C15.6758 19.2556 15.6552 19.3835 15.6007 19.4982C15.5462 19.6128 15.4599 19.7095 15.3522 19.7767C15.2445 19.8438 15.1197 19.8787 14.9928 19.8773Z" fill="#323232"/>
</svg>
