<svg width="140" height="140" viewBox="0 0 140 140" fill="none" xmlns="http://www.w3.org/2000/svg">
<circle cx="70" cy="70" r="70" fill="#FACB6D" fill-opacity="0.1"/>
<circle cx="70" cy="70" r="56" fill="#FFE8BA" fill-opacity="0.3"/>
<g clip-path="url(#clip0_1646_1614)">
<path d="M70 98.125C62.806 98.125 55.9067 95.2672 50.8197 90.1803C45.7328 85.0933 42.875 78.194 42.875 71C42.875 63.806 45.7328 56.9067 50.8197 51.8197C55.9067 46.7328 62.806 43.875 70 43.875C77.194 43.875 84.0933 46.7328 89.1803 51.8197C94.2672 56.9067 97.125 63.806 97.125 71C97.125 78.194 94.2672 85.0933 89.1803 90.1803C84.0933 95.2672 77.194 98.125 70 98.125ZM70 102C78.2217 102 86.1067 98.7339 91.9203 92.9203C97.7339 87.1067 101 79.2217 101 71C101 62.7783 97.7339 54.8933 91.9203 49.0797C86.1067 43.2661 78.2217 40 70 40C61.7783 40 53.8933 43.2661 48.0797 49.0797C42.2661 54.8933 39 62.7783 39 71C39 79.2217 42.2661 87.1067 48.0797 92.9203C53.8933 98.7339 61.7783 102 70 102Z" fill="#F4B942"/>
<path d="M59.3641 62.4207C59.3588 62.5459 59.3792 62.6708 59.4239 62.7878C59.4687 62.9048 59.5369 63.0114 59.6243 63.101C59.7118 63.1906 59.8167 63.2615 59.9325 63.3091C60.0484 63.3567 60.1727 63.3801 60.298 63.3779H63.4949C64.0296 63.3779 64.4559 62.94 64.5256 62.4091C64.8744 59.8671 66.6181 58.0149 69.7259 58.0149C72.3841 58.0149 74.8176 59.344 74.8176 62.5409C74.8176 65.0015 73.3684 66.133 71.0782 67.8535C68.4704 69.7484 66.405 71.961 66.5522 75.5531L66.5639 76.394C66.5679 76.6482 66.6718 76.8907 66.853 77.069C67.0343 77.2473 67.2783 77.3473 67.5326 77.3472H70.6752C70.9322 77.3472 71.1786 77.2452 71.3602 77.0635C71.5419 76.8818 71.644 76.6354 71.644 76.3785V75.9716C71.644 73.1894 72.7019 72.3795 75.5577 70.2134C77.9176 68.4192 80.3782 66.4275 80.3782 62.2464C80.3782 56.3913 75.4337 53.5625 70.0204 53.5625C65.1107 53.5625 59.7322 55.8487 59.3641 62.4207ZM65.3975 84.7524C65.3975 86.8177 67.0444 88.3445 69.3112 88.3445C71.6711 88.3445 73.2947 86.8177 73.2947 84.7524C73.2947 82.6134 71.6672 81.1099 69.3074 81.1099C67.0444 81.1099 65.3975 82.6134 65.3975 84.7524Z" fill="#F4B942"/>
</g>
<defs>
<clipPath id="clip0_1646_1614">
<rect width="62" height="62" fill="white" transform="translate(39 40)"/>
</clipPath>
</defs>
</svg>
