<svg width="10" height="10" viewBox="0 0 10 10" fill="none" xmlns="http://www.w3.org/2000/svg">
<path d="M3.30799 1.02259C3.19082 1.1398 3.125 1.29874 3.125 1.46447C3.125 1.63019 3.19082 1.78914 3.30799 1.90634L6.40174 5.00009L3.30799 8.09384C3.19414 8.21172 3.13115 8.36959 3.13257 8.53347C3.13399 8.69734 3.19972 8.8541 3.3156 8.96998C3.43148 9.08586 3.58824 9.15159 3.75212 9.15301C3.91599 9.15444 4.07386 9.09144 4.19174 8.97759L7.72737 5.44197C7.84454 5.32476 7.91036 5.16582 7.91036 5.00009C7.91036 4.83436 7.84454 4.67542 7.72737 4.55822L4.19174 1.02259C4.07454 0.905422 3.91559 0.8396 3.74987 0.8396C3.58414 0.8396 3.4252 0.905422 3.30799 1.02259Z" fill="black"/>
</svg>
