<svg width="27" height="27" viewBox="0 0 27 27" fill="none" xmlns="http://www.w3.org/2000/svg">
<path d="M13.4887 2.25C7.27875 2.25 2.25 7.29 2.25 13.5C2.25 19.71 7.27875 24.75 13.4887 24.75C19.71 24.75 24.75 19.71 24.75 13.5C24.75 7.29 19.71 2.25 13.4887 2.25ZM13.5 22.5C8.5275 22.5 4.5 18.4725 4.5 13.5C4.5 8.5275 8.5275 4.5 13.5 4.5C18.4725 4.5 22.5 8.5275 22.5 13.5C22.5 18.4725 18.4725 22.5 13.5 22.5Z" fill="white"/>
<path d="M14.0625 7.875H12.375V14.625L18.2812 18.1687L19.125 16.785L14.0625 13.7812V7.875Z" fill="white"/>
</svg>
