<svg width="254" height="93" viewBox="0 0 254 93" fill="none" xmlns="http://www.w3.org/2000/svg">
<g clip-path="url(#clip0_2494_2002)">
<rect width="254" height="93" rx="20" fill="#24164c"/>
<path fill-rule="evenodd" clip-rule="evenodd" d="M245.001 -19.2372C254.508 -19.0172 264.981 -28.5627 272.257 -22.4352C279.492 -16.3422 274.104 -4.60947 273.588 4.83874C273.12 13.4197 275.068 22.8019 269.434 29.2878C263.556 36.0539 253.931 37.0237 245.001 37.7475C234.971 38.5604 222.337 41.6233 216.26 33.5978C210.193 25.5845 220.05 14.8921 220.084 4.83874C220.117 -5.13925 209.281 -16.7951 216.454 -23.7262C223.658 -30.6863 234.99 -19.4688 245.001 -19.2372Z" fill="#F18902"/>
<path fill-rule="evenodd" clip-rule="evenodd" d="M246.216 54.7479C252.87 53.1249 260.546 54.0279 265.606 58.5967C270.808 63.2927 272.805 70.8862 271.71 77.765C270.733 83.9 265.596 88.3298 260.332 91.7191C256.17 94.3985 251.154 93.6444 246.216 94.1774C240.152 94.8321 232.808 99.5433 228.639 95.1407C224.449 90.7154 229.473 83.7085 230.676 77.765C231.514 73.6255 232.13 69.6954 234.501 66.1841C237.668 61.493 240.677 56.099 246.216 54.7479Z" fill="#E1EBF3"/>
<path fill-rule="evenodd" clip-rule="evenodd" d="M176.863 -23.1952C184.72 -23.5652 193.509 -28.891 199.554 -23.8284C205.682 -18.6969 203.269 -9.02199 203.364 -1.00195C203.462 7.17793 206.029 16.7745 200.102 22.3762C194.219 27.9376 184.72 25.9169 176.863 24.0478C170.857 22.6189 166.36 18.2893 162.513 13.4338C159.194 9.24486 157.962 4.26963 157.018 -1.00195C155.746 -8.09573 151.409 -16.4281 156.201 -21.7871C161 -27.1542 169.695 -22.8577 176.863 -23.1952Z" fill="#97D8C4"/>
<rect width="254" height="93" fill="black" fill-opacity="0.1"/>
<path d="M38.4887 35.25C32.2787 35.25 27.25 40.29 27.25 46.5C27.25 52.71 32.2787 57.75 38.4887 57.75C44.71 57.75 49.75 52.71 49.75 46.5C49.75 40.29 44.71 35.25 38.4887 35.25ZM38.5 55.5C33.5275 55.5 29.5 51.4725 29.5 46.5C29.5 41.5275 33.5275 37.5 38.5 37.5C43.4725 37.5 47.5 41.5275 47.5 46.5C47.5 51.4725 43.4725 55.5 38.5 55.5Z" fill="white"/>
<path d="M39.0625 40.875H37.375V47.625L43.2812 51.1687L44.125 49.785L39.0625 46.7812V40.875Z" fill="white"/>
<path d="M80.517 43.719C80.461 43.817 80.4003 43.8893 80.335 43.936C80.2743 43.978 80.1973 43.999 80.104 43.999C80.006 43.999 79.8987 43.964 79.782 43.894C79.67 43.8193 79.5347 43.7377 79.376 43.649C79.2173 43.5603 79.0307 43.481 78.816 43.411C78.606 43.3363 78.3563 43.299 78.067 43.299C77.8057 43.299 77.577 43.3317 77.381 43.397C77.185 43.4577 77.0193 43.544 76.884 43.656C76.7533 43.768 76.6553 43.9033 76.59 44.062C76.5247 44.216 76.492 44.3863 76.492 44.573C76.492 44.811 76.5573 45.0093 76.688 45.168C76.8233 45.3267 77.0007 45.462 77.22 45.574C77.4393 45.686 77.689 45.7863 77.969 45.875C78.249 45.9637 78.536 46.0593 78.83 46.162C79.124 46.26 79.411 46.3767 79.691 46.512C79.971 46.6427 80.2207 46.8107 80.44 47.016C80.6593 47.2167 80.8343 47.464 80.965 47.758C81.1003 48.052 81.168 48.409 81.168 48.829C81.168 49.2863 81.0887 49.7157 80.93 50.117C80.776 50.5137 80.5473 50.8613 80.244 51.16C79.9453 51.454 79.579 51.6873 79.145 51.86C78.711 52.028 78.214 52.112 77.654 52.112C77.332 52.112 77.0147 52.0793 76.702 52.014C76.3893 51.9533 76.0883 51.8647 75.799 51.748C75.5143 51.6313 75.246 51.4913 74.994 51.328C74.742 51.1647 74.518 50.9827 74.322 50.782L74.875 49.879C74.9217 49.8137 74.9823 49.76 75.057 49.718C75.1317 49.6713 75.211 49.648 75.295 49.648C75.4117 49.648 75.5377 49.697 75.673 49.795C75.8083 49.8883 75.9693 49.9933 76.156 50.11C76.3427 50.2267 76.5597 50.334 76.807 50.432C77.059 50.5253 77.36 50.572 77.71 50.572C78.2467 50.572 78.662 50.446 78.956 50.194C79.25 49.9373 79.397 49.571 79.397 49.095C79.397 48.829 79.3293 48.612 79.194 48.444C79.0633 48.276 78.8883 48.136 78.669 48.024C78.4497 47.9073 78.2 47.8093 77.92 47.73C77.64 47.6507 77.3553 47.5643 77.066 47.471C76.7767 47.3777 76.492 47.2657 76.212 47.135C75.932 47.0043 75.6823 46.834 75.463 46.624C75.2437 46.414 75.0663 46.1527 74.931 45.84C74.8003 45.5227 74.735 45.133 74.735 44.671C74.735 44.3023 74.8073 43.943 74.952 43.593C75.1013 43.243 75.316 42.9327 75.596 42.662C75.876 42.3913 76.2213 42.1743 76.632 42.011C77.0427 41.8477 77.514 41.766 78.046 41.766C78.6433 41.766 79.194 41.8593 79.698 42.046C80.202 42.2327 80.6313 42.494 80.986 42.83L80.517 43.719ZM87.6553 46.337C87.6039 46.4023 87.5526 46.4537 87.5013 46.491C87.4546 46.5283 87.3846 46.547 87.2913 46.547C87.2026 46.547 87.1163 46.5213 87.0323 46.47C86.9483 46.414 86.8479 46.3533 86.7313 46.288C86.6146 46.218 86.4746 46.1573 86.3113 46.106C86.1526 46.05 85.9543 46.022 85.7163 46.022C85.4129 46.022 85.1469 46.078 84.9183 46.19C84.6896 46.2973 84.4983 46.4537 84.3443 46.659C84.1949 46.8643 84.0829 47.114 84.0083 47.408C83.9336 47.6973 83.8963 48.0263 83.8963 48.395C83.8963 48.7777 83.9359 49.1183 84.0153 49.417C84.0993 49.7157 84.2183 49.9677 84.3723 50.173C84.5263 50.3737 84.7129 50.5277 84.9323 50.635C85.1516 50.7377 85.3989 50.789 85.6743 50.789C85.9496 50.789 86.1713 50.7563 86.3393 50.691C86.5119 50.621 86.6566 50.5463 86.7733 50.467C86.8899 50.383 86.9903 50.3083 87.0743 50.243C87.1629 50.173 87.2609 50.138 87.3683 50.138C87.5083 50.138 87.6133 50.1917 87.6833 50.299L88.1803 50.929C87.9889 51.153 87.7813 51.342 87.5573 51.496C87.3333 51.6453 87.0999 51.7667 86.8573 51.86C86.6193 51.9487 86.3719 52.0117 86.1153 52.049C85.8633 52.0863 85.6113 52.105 85.3593 52.105C84.9159 52.105 84.4983 52.0233 84.1063 51.86C83.7143 51.692 83.3713 51.4493 83.0773 51.132C82.7833 50.8147 82.5499 50.4273 82.3773 49.97C82.2093 49.508 82.1253 48.983 82.1253 48.395C82.1253 47.8677 82.1999 47.38 82.3493 46.932C82.5033 46.4793 82.7273 46.0897 83.0213 45.763C83.3153 45.4317 83.6793 45.1727 84.1133 44.986C84.5473 44.7993 85.0466 44.706 85.6112 44.706C86.1479 44.706 86.6169 44.7923 87.0183 44.965C87.4243 45.1377 87.7883 45.385 88.1103 45.707L87.6553 46.337ZM90.9932 45.588C91.2732 45.3267 91.5812 45.1143 91.9172 44.951C92.2532 44.7877 92.6475 44.706 93.1002 44.706C93.4922 44.706 93.8398 44.7737 94.1432 44.909C94.4465 45.0397 94.6985 45.2263 94.8992 45.469C95.1045 45.707 95.2585 45.994 95.3612 46.33C95.4685 46.6613 95.5222 47.0277 95.5222 47.429V52H93.7932V47.429C93.7932 46.9903 93.6928 46.652 93.4922 46.414C93.2915 46.1713 92.9858 46.05 92.5752 46.05C92.2765 46.05 91.9965 46.1177 91.7352 46.253C91.4738 46.3883 91.2265 46.5727 90.9932 46.806V52H89.2642V41.598H90.9932V45.588ZM101.794 47.583C101.794 47.359 101.761 47.149 101.696 46.953C101.635 46.7523 101.542 46.5773 101.416 46.428C101.29 46.2787 101.129 46.162 100.933 46.078C100.741 45.9893 100.517 45.945 100.261 45.945C99.7612 45.945 99.3668 46.0873 99.0775 46.372C98.7928 46.6567 98.6108 47.0603 98.5315 47.583H101.794ZM98.4965 48.626C98.5245 48.9947 98.5898 49.3143 98.6925 49.585C98.7952 49.851 98.9305 50.0727 99.0985 50.25C99.2665 50.4227 99.4648 50.5533 99.6935 50.642C99.9268 50.726 100.184 50.768 100.464 50.768C100.744 50.768 100.984 50.7353 101.185 50.67C101.39 50.6047 101.567 50.5323 101.717 50.453C101.871 50.3737 102.004 50.3013 102.116 50.236C102.232 50.1707 102.344 50.138 102.452 50.138C102.596 50.138 102.704 50.1917 102.774 50.299L103.271 50.929C103.079 51.153 102.865 51.342 102.627 51.496C102.389 51.6453 102.139 51.7667 101.878 51.86C101.621 51.9487 101.357 52.0117 101.087 52.049C100.821 52.0863 100.562 52.105 100.31 52.105C99.8102 52.105 99.3458 52.0233 98.9165 51.86C98.4872 51.692 98.1138 51.447 97.7965 51.125C97.4792 50.7983 97.2295 50.397 97.0475 49.921C96.8655 49.4403 96.7745 48.885 96.7745 48.255C96.7745 47.765 96.8538 47.3053 97.0125 46.876C97.1712 46.442 97.3975 46.0663 97.6915 45.749C97.9902 45.427 98.3518 45.1727 98.7765 44.986C99.2058 44.7993 99.6888 44.706 100.226 44.706C100.678 44.706 101.096 44.7783 101.479 44.923C101.861 45.0677 102.19 45.28 102.466 45.56C102.741 45.8353 102.956 46.176 103.11 46.582C103.268 46.9833 103.347 47.443 103.347 47.961C103.347 48.2223 103.32 48.3997 103.264 48.493C103.208 48.5817 103.1 48.626 102.942 48.626H98.4965ZM109.153 46.652C108.957 46.414 108.742 46.246 108.509 46.148C108.28 46.05 108.033 46.001 107.767 46.001C107.506 46.001 107.27 46.05 107.06 46.148C106.85 46.246 106.67 46.3953 106.521 46.596C106.372 46.792 106.257 47.044 106.178 47.352C106.099 47.6553 106.059 48.0147 106.059 48.43C106.059 48.85 106.092 49.207 106.157 49.501C106.227 49.7903 106.325 50.0283 106.451 50.215C106.577 50.397 106.731 50.53 106.913 50.614C107.095 50.6933 107.298 50.733 107.522 50.733C107.881 50.733 108.187 50.6583 108.439 50.509C108.691 50.3597 108.929 50.1473 109.153 49.872V46.652ZM110.882 41.598V52H109.825C109.596 52 109.452 51.895 109.391 51.685L109.244 50.992C108.955 51.3233 108.621 51.5917 108.243 51.797C107.87 52.0023 107.433 52.105 106.934 52.105C106.542 52.105 106.183 52.0233 105.856 51.86C105.529 51.6967 105.247 51.461 105.009 51.153C104.776 50.8403 104.594 50.4553 104.463 49.998C104.337 49.5407 104.274 49.018 104.274 48.43C104.274 47.898 104.346 47.4033 104.491 46.946C104.636 46.4887 104.843 46.092 105.114 45.756C105.385 45.42 105.709 45.1587 106.087 44.972C106.465 44.7807 106.89 44.685 107.361 44.685C107.762 44.685 108.105 44.748 108.39 44.874C108.675 45 108.929 45.1703 109.153 45.385V41.598H110.882ZM118.776 44.818V52H117.719C117.491 52 117.346 51.895 117.285 51.685L117.166 51.111C116.872 51.4097 116.548 51.6523 116.193 51.839C115.839 52.021 115.421 52.112 114.94 52.112C114.548 52.112 114.201 52.0467 113.897 51.916C113.599 51.7807 113.347 51.5917 113.141 51.349C112.936 51.1063 112.78 50.8193 112.672 50.488C112.57 50.152 112.518 49.7833 112.518 49.382V44.818H114.247V49.382C114.247 49.8207 114.348 50.1613 114.548 50.404C114.754 50.642 115.059 50.761 115.465 50.761C115.764 50.761 116.044 50.6957 116.305 50.565C116.567 50.4297 116.814 50.2453 117.047 50.012V44.818H118.776ZM122.241 41.598V52H120.512V41.598H122.241ZM128.59 47.583C128.59 47.359 128.558 47.149 128.492 46.953C128.432 46.7523 128.338 46.5773 128.212 46.428C128.086 46.2787 127.925 46.162 127.729 46.078C127.538 45.9893 127.314 45.945 127.057 45.945C126.558 45.945 126.164 46.0873 125.874 46.372C125.59 46.6567 125.408 47.0603 125.328 47.583H128.59ZM125.293 48.626C125.321 48.9947 125.387 49.3143 125.489 49.585C125.592 49.851 125.727 50.0727 125.895 50.25C126.063 50.4227 126.262 50.5533 126.49 50.642C126.724 50.726 126.98 50.768 127.26 50.768C127.54 50.768 127.781 50.7353 127.981 50.67C128.187 50.6047 128.364 50.5323 128.513 50.453C128.667 50.3737 128.8 50.3013 128.912 50.236C129.029 50.1707 129.141 50.138 129.248 50.138C129.393 50.138 129.5 50.1917 129.57 50.299L130.067 50.929C129.876 51.153 129.661 51.342 129.423 51.496C129.185 51.6453 128.936 51.7667 128.674 51.86C128.418 51.9487 128.154 52.0117 127.883 52.049C127.617 52.0863 127.358 52.105 127.106 52.105C126.607 52.105 126.143 52.0233 125.713 51.86C125.284 51.692 124.911 51.447 124.593 51.125C124.276 50.7983 124.026 50.397 123.844 49.921C123.662 49.4403 123.571 48.885 123.571 48.255C123.571 47.765 123.651 47.3053 123.809 46.876C123.968 46.442 124.194 46.0663 124.488 45.749C124.787 45.427 125.149 45.1727 125.573 44.986C126.003 44.7993 126.486 44.706 127.022 44.706C127.475 44.706 127.893 44.7783 128.275 44.923C128.658 45.0677 128.987 45.28 129.262 45.56C129.538 45.8353 129.752 46.176 129.906 46.582C130.065 46.9833 130.144 47.443 130.144 47.961C130.144 48.2223 130.116 48.3997 130.06 48.493C130.004 48.5817 129.897 48.626 129.738 48.626H125.293ZM138.64 48.934C138.141 48.9573 137.721 49.0017 137.38 49.067C137.04 49.1277 136.767 49.207 136.561 49.305C136.356 49.403 136.209 49.5173 136.12 49.648C136.032 49.7787 135.987 49.921 135.987 50.075C135.987 50.3783 136.076 50.5953 136.253 50.726C136.435 50.8567 136.671 50.922 136.96 50.922C137.315 50.922 137.621 50.859 137.877 50.733C138.139 50.6023 138.393 50.4063 138.64 50.145V48.934ZM134.678 45.819C135.504 45.063 136.498 44.685 137.66 44.685C138.08 44.685 138.456 44.755 138.787 44.895C139.119 45.0303 139.399 45.2217 139.627 45.469C139.856 45.7117 140.029 46.0033 140.145 46.344C140.267 46.6847 140.327 47.058 140.327 47.464V52H139.543C139.38 52 139.254 51.9767 139.165 51.93C139.077 51.8787 139.007 51.7783 138.955 51.629L138.801 51.111C138.619 51.2743 138.442 51.419 138.269 51.545C138.097 51.6663 137.917 51.769 137.73 51.853C137.544 51.937 137.343 52 137.128 52.042C136.918 52.0887 136.685 52.112 136.428 52.112C136.125 52.112 135.845 52.0723 135.588 51.993C135.332 51.909 135.11 51.7853 134.923 51.622C134.737 51.4587 134.592 51.2557 134.489 51.013C134.387 50.7703 134.335 50.488 134.335 50.166C134.335 49.984 134.366 49.8043 134.426 49.627C134.487 49.445 134.585 49.2723 134.72 49.109C134.86 48.9457 135.04 48.7917 135.259 48.647C135.479 48.5023 135.747 48.3763 136.064 48.269C136.386 48.1617 136.76 48.0753 137.184 48.01C137.609 47.94 138.094 47.898 138.64 47.884V47.464C138.64 46.9833 138.538 46.6287 138.332 46.4C138.127 46.1667 137.831 46.05 137.443 46.05C137.163 46.05 136.93 46.0827 136.743 46.148C136.561 46.2133 136.4 46.288 136.26 46.372C136.12 46.4513 135.992 46.5237 135.875 46.589C135.763 46.6543 135.637 46.687 135.497 46.687C135.376 46.687 135.273 46.6567 135.189 46.596C135.105 46.5307 135.038 46.456 134.986 46.372L134.678 45.819ZM147.11 41.598V52H145.381V41.598H147.11ZM150.625 44.818V52H148.889V44.818H150.625ZM150.863 42.725C150.863 42.8743 150.832 43.0143 150.772 43.145C150.711 43.2757 150.629 43.39 150.527 43.488C150.429 43.586 150.312 43.6653 150.177 43.726C150.041 43.782 149.897 43.81 149.743 43.81C149.593 43.81 149.451 43.782 149.316 43.726C149.185 43.6653 149.071 43.586 148.973 43.488C148.875 43.39 148.795 43.2757 148.735 43.145C148.679 43.0143 148.651 42.8743 148.651 42.725C148.651 42.571 148.679 42.4263 148.735 42.291C148.795 42.1557 148.875 42.039 148.973 41.941C149.071 41.843 149.185 41.766 149.316 41.71C149.451 41.6493 149.593 41.619 149.743 41.619C149.897 41.619 150.041 41.6493 150.177 41.71C150.312 41.766 150.429 41.843 150.527 41.941C150.629 42.039 150.711 42.1557 150.772 42.291C150.832 42.4263 150.863 42.571 150.863 42.725ZM158.862 44.818L156.013 52H154.445L151.596 44.818H153.024C153.155 44.818 153.262 44.8483 153.346 44.909C153.435 44.9697 153.493 45.0467 153.521 45.14L154.907 48.976C154.982 49.2 155.047 49.4193 155.103 49.634C155.159 49.8487 155.208 50.0633 155.25 50.278C155.297 50.0633 155.348 49.8487 155.404 49.634C155.46 49.4193 155.528 49.2 155.607 48.976L157.021 45.14C157.054 45.0467 157.112 44.9697 157.196 44.909C157.28 44.8483 157.381 44.818 157.497 44.818H158.862ZM164.192 47.583C164.192 47.359 164.159 47.149 164.094 46.953C164.033 46.7523 163.94 46.5773 163.814 46.428C163.688 46.2787 163.527 46.162 163.331 46.078C163.14 45.9893 162.916 45.945 162.659 45.945C162.16 45.945 161.765 46.0873 161.476 46.372C161.191 46.6567 161.009 47.0603 160.93 47.583H164.192ZM160.895 48.626C160.923 48.9947 160.988 49.3143 161.091 49.585C161.194 49.851 161.329 50.0727 161.497 50.25C161.665 50.4227 161.863 50.5533 162.092 50.642C162.325 50.726 162.582 50.768 162.862 50.768C163.142 50.768 163.382 50.7353 163.583 50.67C163.788 50.6047 163.966 50.5323 164.115 50.453C164.269 50.3737 164.402 50.3013 164.514 50.236C164.631 50.1707 164.743 50.138 164.85 50.138C164.995 50.138 165.102 50.1917 165.172 50.299L165.669 50.929C165.478 51.153 165.263 51.342 165.025 51.496C164.787 51.6453 164.537 51.7667 164.276 51.86C164.019 51.9487 163.756 52.0117 163.485 52.049C163.219 52.0863 162.96 52.105 162.708 52.105C162.209 52.105 161.744 52.0233 161.315 51.86C160.886 51.692 160.512 51.447 160.195 51.125C159.878 50.7983 159.628 50.397 159.446 49.921C159.264 49.4403 159.173 48.885 159.173 48.255C159.173 47.765 159.252 47.3053 159.411 46.876C159.57 46.442 159.796 46.0663 160.09 45.749C160.389 45.427 160.75 45.1727 161.175 44.986C161.604 44.7993 162.087 44.706 162.624 44.706C163.077 44.706 163.494 44.7783 163.877 44.923C164.26 45.0677 164.589 45.28 164.864 45.56C165.139 45.8353 165.354 46.176 165.508 46.582C165.667 46.9833 165.746 47.443 165.746 47.961C165.746 48.2223 165.718 48.3997 165.662 48.493C165.606 48.5817 165.499 48.626 165.34 48.626H160.895ZM175.075 47.583C175.075 47.359 175.042 47.149 174.977 46.953C174.916 46.7523 174.823 46.5773 174.697 46.428C174.571 46.2787 174.41 46.162 174.214 46.078C174.022 45.9893 173.798 45.945 173.542 45.945C173.042 45.945 172.648 46.0873 172.359 46.372C172.074 46.6567 171.892 47.0603 171.813 47.583H175.075ZM171.778 48.626C171.806 48.9947 171.871 49.3143 171.974 49.585C172.076 49.851 172.212 50.0727 172.38 50.25C172.548 50.4227 172.746 50.5533 172.975 50.642C173.208 50.726 173.465 50.768 173.745 50.768C174.025 50.768 174.265 50.7353 174.466 50.67C174.671 50.6047 174.848 50.5323 174.998 50.453C175.152 50.3737 175.285 50.3013 175.397 50.236C175.513 50.1707 175.625 50.138 175.733 50.138C175.877 50.138 175.985 50.1917 176.055 50.299L176.552 50.929C176.36 51.153 176.146 51.342 175.908 51.496C175.67 51.6453 175.42 51.7667 175.159 51.86C174.902 51.9487 174.638 52.0117 174.368 52.049C174.102 52.0863 173.843 52.105 173.591 52.105C173.091 52.105 172.627 52.0233 172.198 51.86C171.768 51.692 171.395 51.447 171.078 51.125C170.76 50.7983 170.511 50.397 170.329 49.921C170.147 49.4403 170.056 48.885 170.056 48.255C170.056 47.765 170.135 47.3053 170.294 46.876C170.452 46.442 170.679 46.0663 170.973 45.749C171.271 45.427 171.633 45.1727 172.058 44.986C172.487 44.7993 172.97 44.706 173.507 44.706C173.959 44.706 174.377 44.7783 174.76 44.923C175.142 45.0677 175.471 45.28 175.747 45.56C176.022 45.8353 176.237 46.176 176.391 46.582C176.549 46.9833 176.629 47.443 176.629 47.961C176.629 48.2223 176.601 48.3997 176.545 48.493C176.489 48.5817 176.381 48.626 176.223 48.626H171.778ZM184.224 44.818L181.375 52H179.807L176.958 44.818H178.386C178.516 44.818 178.624 44.8483 178.708 44.909C178.796 44.9697 178.855 45.0467 178.883 45.14L180.269 48.976C180.343 49.2 180.409 49.4193 180.465 49.634C180.521 49.8487 180.57 50.0633 180.612 50.278C180.658 50.0633 180.71 49.8487 180.766 49.634C180.822 49.4193 180.889 49.2 180.969 48.976L182.383 45.14C182.415 45.0467 182.474 44.9697 182.558 44.909C182.642 44.8483 182.742 44.818 182.859 44.818H184.224ZM189.553 47.583C189.553 47.359 189.521 47.149 189.455 46.953C189.395 46.7523 189.301 46.5773 189.175 46.428C189.049 46.2787 188.888 46.162 188.692 46.078C188.501 45.9893 188.277 45.945 188.02 45.945C187.521 45.945 187.127 46.0873 186.837 46.372C186.553 46.6567 186.371 47.0603 186.291 47.583H189.553ZM186.256 48.626C186.284 48.9947 186.35 49.3143 186.452 49.585C186.555 49.851 186.69 50.0727 186.858 50.25C187.026 50.4227 187.225 50.5533 187.453 50.642C187.687 50.726 187.943 50.768 188.223 50.768C188.503 50.768 188.744 50.7353 188.944 50.67C189.15 50.6047 189.327 50.5323 189.476 50.453C189.63 50.3737 189.763 50.3013 189.875 50.236C189.992 50.1707 190.104 50.138 190.211 50.138C190.356 50.138 190.463 50.1917 190.533 50.299L191.03 50.929C190.839 51.153 190.624 51.342 190.386 51.496C190.148 51.6453 189.899 51.7667 189.637 51.86C189.381 51.9487 189.117 52.0117 188.846 52.049C188.58 52.0863 188.321 52.105 188.069 52.105C187.57 52.105 187.106 52.0233 186.676 51.86C186.247 51.692 185.874 51.447 185.556 51.125C185.239 50.7983 184.989 50.397 184.807 49.921C184.625 49.4403 184.534 48.885 184.534 48.255C184.534 47.765 184.614 47.3053 184.772 46.876C184.931 46.442 185.157 46.0663 185.451 45.749C185.75 45.427 186.112 45.1727 186.536 44.986C186.966 44.7993 187.449 44.706 187.985 44.706C188.438 44.706 188.856 44.7783 189.238 44.923C189.621 45.0677 189.95 45.28 190.225 45.56C190.501 45.8353 190.715 46.176 190.869 46.582C191.028 46.9833 191.107 47.443 191.107 47.961C191.107 48.2223 191.079 48.3997 191.023 48.493C190.967 48.5817 190.86 48.626 190.701 48.626H186.256ZM194.022 45.7C194.166 45.5553 194.318 45.4223 194.477 45.301C194.64 45.175 194.81 45.07 194.988 44.986C195.17 44.8973 195.363 44.8297 195.569 44.783C195.774 44.7317 195.998 44.706 196.241 44.706C196.633 44.706 196.98 44.7737 197.284 44.909C197.587 45.0397 197.839 45.2263 198.04 45.469C198.245 45.707 198.399 45.994 198.502 46.33C198.609 46.6613 198.663 47.0277 198.663 47.429V52H196.934V47.429C196.934 46.9903 196.833 46.652 196.633 46.414C196.432 46.1713 196.126 46.05 195.716 46.05C195.417 46.05 195.137 46.1177 194.876 46.253C194.614 46.3883 194.367 46.5727 194.134 46.806V52H192.405V44.818H193.462C193.686 44.818 193.833 44.923 193.903 45.133L194.022 45.7ZM202.605 52.112C201.98 52.112 201.499 51.937 201.163 51.587C200.832 51.2323 200.666 50.7447 200.666 50.124V46.113H199.931C199.838 46.113 199.759 46.0827 199.693 46.022C199.628 45.9613 199.595 45.8703 199.595 45.749V45.063L200.75 44.874L201.114 42.914C201.138 42.8207 201.182 42.7483 201.247 42.697C201.313 42.6457 201.397 42.62 201.499 42.62H202.395V44.881H204.313V46.113H202.395V50.005C202.395 50.229 202.449 50.404 202.556 50.53C202.668 50.656 202.82 50.719 203.011 50.719C203.119 50.719 203.207 50.7073 203.277 50.684C203.352 50.656 203.415 50.628 203.466 50.6C203.522 50.572 203.571 50.5463 203.613 50.523C203.655 50.495 203.697 50.481 203.739 50.481C203.791 50.481 203.833 50.495 203.865 50.523C203.898 50.5463 203.933 50.5837 203.97 50.635L204.488 51.475C204.236 51.685 203.947 51.8437 203.62 51.951C203.294 52.0583 202.955 52.112 202.605 52.112Z" fill="white"/>
</g>
<defs>
<clipPath id="clip0_2494_2002">
<rect width="254" height="93" rx="20" fill="white"/>
</clipPath>
</defs>
</svg>
