<svg width="18" height="18" viewBox="0 0 18 18" fill="none" xmlns="http://www.w3.org/2000/svg">
<path d="M17.4975 0.371924C17.5729 0.447525 17.6245 0.543638 17.6459 0.648322C17.6672 0.753006 17.6573 0.861648 17.6174 0.960753L11.2722 16.8232C11.2163 16.9629 11.1229 17.0844 11.0024 17.1745C10.8818 17.2645 10.7388 17.3196 10.5889 17.3335C10.4391 17.3475 10.2883 17.3199 10.1532 17.2537C10.0181 17.1875 9.90384 17.0853 9.82304 16.9584L6.35767 11.5117L0.910995 8.04634C0.783762 7.96563 0.681299 7.85134 0.614912 7.71608C0.548525 7.58082 0.520795 7.42985 0.534782 7.27983C0.548769 7.1298 0.603929 6.98656 0.694176 6.86591C0.784423 6.74525 0.906247 6.65187 1.04621 6.59607L16.9086 0.253067C17.0077 0.213171 17.1164 0.20327 17.2211 0.224595C17.3257 0.245919 17.4219 0.297529 17.4975 0.373014V0.371924ZM7.44591 11.1933L10.4566 15.9236L15.6176 3.02166L7.44591 11.1933ZM14.8466 2.25073L1.94472 7.41171L6.67607 10.4213L14.8477 2.25073H14.8466Z" fill="#24164C"/>
</svg>
