<svg width="75" height="75" viewBox="0 0 75 75" fill="none" xmlns="http://www.w3.org/2000/svg">
<path d="M37.4994 4.16675C30.9067 4.16675 24.462 6.12171 18.9804 9.78443C13.4987 13.4471 9.2263 18.6531 6.70338 24.744C4.18046 30.8348 3.52035 37.5371 4.80652 44.0031C6.0927 50.4691 9.26739 56.4086 13.9291 61.0703C18.5909 65.7321 24.5303 68.9068 30.9964 70.1929C37.4624 71.4791 44.1646 70.819 50.2555 68.2961C56.3463 65.7731 61.5523 61.5007 65.215 56.0191C68.8777 50.5374 70.8327 44.0928 70.8327 37.5001C70.8327 28.6595 67.3208 20.1811 61.0696 13.9299C54.8184 7.67864 46.3399 4.16675 37.4994 4.16675ZM37.4994 66.6667C31.7307 66.6667 26.0917 64.9562 21.2952 61.7513C16.4988 58.5464 12.7604 53.9912 10.5529 48.6617C8.34532 43.3322 7.76772 37.4677 8.89313 31.8099C10.0185 26.1522 12.7964 20.9552 16.8754 16.8761C20.9544 12.7971 26.1515 10.0192 31.8092 8.89384C37.467 7.76844 43.3315 8.34604 48.661 10.5536C53.9905 12.7612 58.5457 16.4995 61.7506 21.2959C64.9554 26.0924 66.666 31.7315 66.666 37.5001C66.666 45.2356 63.5931 52.6542 58.1233 58.124C52.6535 63.5938 45.2348 66.6667 37.4994 66.6667Z" fill="#26AA6B"/>
<path d="M58.3336 25.2084C57.9433 24.8203 57.4152 24.6025 56.8649 24.6025C56.3145 24.6025 55.7864 24.8203 55.3961 25.2084L32.2711 48.2292L19.7711 35.7292C19.3899 35.3176 18.8607 35.0742 18.3 35.0527C17.7394 35.0312 17.1932 35.2334 16.7815 35.6146C16.3699 35.9959 16.1266 36.525 16.1051 37.0857C16.0836 37.6463 16.2857 38.1926 16.6669 38.6042L32.2711 54.1667L58.3336 28.1667C58.5289 27.973 58.6839 27.7426 58.7896 27.4887C58.8954 27.2349 58.9499 26.9626 58.9499 26.6875C58.9499 26.4125 58.8954 26.1402 58.7896 25.8863C58.6839 25.6325 58.5289 25.402 58.3336 25.2084Z" fill="#26AA6B"/>
</svg>
