<svg width="23" height="23" viewBox="0 0 23 23" fill="none" xmlns="http://www.w3.org/2000/svg">
<path d="M11.5 0.5C14.4174 0.5 17.2153 1.65893 19.2782 3.72183C21.3411 5.78473 22.5 8.58262 22.5 11.5C22.5 14.4174 21.3411 17.2153 19.2782 19.2782C17.2153 21.3411 14.4174 22.5 11.5 22.5C8.58262 22.5 5.78473 21.3411 3.72183 19.2782C1.65893 17.2153 0.5 14.4174 0.5 11.5C0.5 8.58262 1.65893 5.78473 3.72183 3.72183C5.78473 1.65893 8.58262 0.5 11.5 0.5ZM10.1297 13.6701L7.68614 11.225C7.59854 11.1374 7.49454 11.0679 7.38009 11.0205C7.26563 10.9731 7.14296 10.9487 7.01907 10.9487C6.89518 10.9487 6.77251 10.9731 6.65805 11.0205C6.5436 11.0679 6.4396 11.1374 6.352 11.225C6.17508 11.4019 6.07569 11.6419 6.07569 11.8921C6.07569 12.1423 6.17508 12.3822 6.352 12.5591L9.46343 15.6706C9.55078 15.7586 9.6547 15.8285 9.76919 15.8762C9.88368 15.9239 10.0065 15.9484 10.1305 15.9484C10.2545 15.9484 10.3773 15.9239 10.4918 15.8762C10.6063 15.8285 10.7102 15.7586 10.7976 15.6706L17.2404 9.22614C17.3292 9.1389 17.3998 9.03495 17.4482 8.92029C17.4966 8.80562 17.5218 8.6825 17.5224 8.55804C17.523 8.43358 17.4989 8.31024 17.4516 8.19513C17.4043 8.08001 17.3346 7.97541 17.2467 7.88735C17.1587 7.79929 17.0542 7.72952 16.9391 7.68205C16.8241 7.63459 16.7007 7.61038 16.5763 7.61081C16.4518 7.61124 16.3287 7.63631 16.214 7.68457C16.0992 7.73283 15.9952 7.80333 15.9079 7.892L10.1297 13.6701Z" fill="#26AA6B"/>
</svg>
