<svg width="20" height="21" viewBox="0 0 20 21" fill="none" xmlns="http://www.w3.org/2000/svg">
<path d="M9.99102 2.16699C5.39102 2.16699 1.66602 5.90033 1.66602 10.5003C1.66602 15.1003 5.39102 18.8337 9.99102 18.8337C14.5993 18.8337 18.3327 15.1003 18.3327 10.5003C18.3327 5.90033 14.5993 2.16699 9.99102 2.16699ZM9.99935 17.167C6.31602 17.167 3.33268 14.1837 3.33268 10.5003C3.33268 6.81699 6.31602 3.83366 9.99935 3.83366C13.6827 3.83366 16.666 6.81699 16.666 10.5003C16.666 14.1837 13.6827 17.167 9.99935 17.167Z" fill="#4059AD"/>
<path d="M10.416 6.33301H9.16602V11.333L13.541 13.958L14.166 12.933L10.416 10.708V6.33301Z" fill="#4059AD"/>
</svg>
