<svg width="25" height="25" viewBox="0 0 25 25" fill="none" xmlns="http://www.w3.org/2000/svg">
<g clip-path="url(#clip0_677_1220)">
<path d="M9.375 8.09375H0.5V5.46875C0.5 4.97976 0.694252 4.51079 1.04002 4.16502C1.38579 3.81925 1.85476 3.625 2.34375 3.625H22.6562C23.1452 3.625 23.6142 3.81925 23.96 4.16502C24.3057 4.51079 24.5 4.97976 24.5 5.46875V8.09375H15.625C15.2852 8.09375 14.9593 8.22874 14.719 8.46902C14.4787 8.7093 14.3438 9.03519 14.3438 9.375C14.3438 9.68996 14.2388 10.1922 13.9598 10.5798L13.9596 10.5801C13.7292 10.9007 13.3327 11.2188 12.5 11.2188C11.6673 11.2188 11.2708 10.9007 11.0404 10.5801L11.0402 10.5798C10.7612 10.1922 10.6562 9.68996 10.6562 9.375C10.6562 9.03519 10.5213 8.7093 10.281 8.46902C10.0407 8.22874 9.71481 8.09375 9.375 8.09375Z" />
<path d="M16.0402 12.0765L16.0428 12.0729C16.3475 11.6414 16.5766 11.1623 16.7211 10.6562H24.5V19.5312C24.5 20.0202 24.3057 20.4892 23.96 20.835C23.6142 21.1807 23.1452 21.375 22.6562 21.375H2.34375C1.85476 21.375 1.38579 21.1807 1.04002 20.835C0.694252 20.4892 0.5 20.0202 0.5 19.5312V10.6562H8.27897C8.42347 11.1623 8.65248 11.6413 8.95722 12.0728L8.9572 12.0728L8.95982 12.0765C9.66663 13.0584 10.8324 13.7812 12.5 13.7812C14.1676 13.7812 15.3334 13.0584 16.0402 12.0765Z" />
</g>
<defs>
<clipPath id="clip0_677_1220">
<rect width="25" height="25" fill="white"/>
</clipPath>
</defs>
</svg>
