<svg width="75" height="75" viewBox="0 0 75 75" fill="none" xmlns="http://www.w3.org/2000/svg">
<path d="M33.9843 52.7344C33.9843 53.6668 34.3547 54.561 35.014 55.2203C35.6733 55.8796 36.5675 56.25 37.4999 56.25C38.4323 56.25 39.3265 55.8796 39.9858 55.2203C40.6451 54.561 41.0155 53.6668 41.0155 52.7344C41.0155 51.802 40.6451 50.9078 39.9858 50.2485C39.3265 49.5891 38.4323 49.2188 37.4999 49.2188C36.5675 49.2188 35.6733 49.5891 35.014 50.2485C34.3547 50.9078 33.9843 51.802 33.9843 52.7344ZM35.1562 30.4688V43.9453C35.1562 44.2676 35.4198 44.5312 35.7421 44.5312H39.2577C39.58 44.5312 39.8437 44.2676 39.8437 43.9453V30.4688C39.8437 30.1465 39.58 29.8828 39.2577 29.8828H35.7421C35.4198 29.8828 35.1562 30.1465 35.1562 30.4688ZM69.9975 62.6953L39.5287 9.96094C39.0746 9.17725 38.2909 8.78906 37.4999 8.78906C36.7089 8.78906 35.9179 9.17725 35.4711 9.96094L5.00234 62.6953C4.10147 64.2627 5.22939 66.2109 7.03115 66.2109H67.9687C69.7704 66.2109 70.8983 64.2627 69.9975 62.6953ZM12.6122 60.6519L37.4999 17.5708L62.3876 60.6519H12.6122Z" fill="#D82B2B"/>
</svg>
