<svg width="24" height="24" viewBox="0 0 24 24" fill="none" xmlns="http://www.w3.org/2000/svg">
<path d="M6.96839 6.96912C7.03806 6.89927 7.12082 6.84386 7.21194 6.80605C7.30305 6.76824 7.40074 6.74878 7.49939 6.74878C7.59804 6.74878 7.69572 6.76824 7.78684 6.80605C7.87796 6.84386 7.96072 6.89927 8.03039 6.96912L11.9994 10.9396L15.9684 6.96912C16.0381 6.89939 16.1209 6.84407 16.212 6.80633C16.3031 6.7686 16.4008 6.74917 16.4994 6.74917C16.598 6.74917 16.6957 6.7686 16.7868 6.80633C16.8779 6.84407 16.9607 6.89939 17.0304 6.96912C17.1001 7.03885 17.1554 7.12164 17.1932 7.21274C17.2309 7.30385 17.2503 7.4015 17.2503 7.50012C17.2503 7.59874 17.2309 7.69639 17.1932 7.7875C17.1554 7.8786 17.1001 7.96139 17.0304 8.03112L13.0599 12.0001L17.0304 15.9691C17.1001 16.0389 17.1554 16.1216 17.1932 16.2127C17.2309 16.3039 17.2503 16.4015 17.2503 16.5001C17.2503 16.5987 17.2309 16.6964 17.1932 16.7875C17.1554 16.8786 17.1001 16.9614 17.0304 17.0311C16.9607 17.1009 16.8779 17.1562 16.7868 17.1939C16.6957 17.2316 16.598 17.2511 16.4994 17.2511C16.4008 17.2511 16.3031 17.2316 16.212 17.1939C16.1209 17.1562 16.0381 17.1009 15.9684 17.0311L11.9994 13.0606L8.03039 17.0311C7.96066 17.1009 7.87787 17.1562 7.78676 17.1939C7.69565 17.2316 7.598 17.2511 7.49939 17.2511C7.40077 17.2511 7.30312 17.2316 7.21201 17.1939C7.1209 17.1562 7.03812 17.1009 6.96839 17.0311C6.89866 16.9614 6.84334 16.8786 6.8056 16.7875C6.76786 16.6964 6.74844 16.5987 6.74844 16.5001C6.74844 16.4015 6.76786 16.3039 6.8056 16.2127C6.84334 16.1216 6.89866 16.0389 6.96839 15.9691L10.9389 12.0001L6.96839 8.03112C6.89854 7.96145 6.84313 7.87869 6.80532 7.78757C6.76751 7.69645 6.74805 7.59877 6.74805 7.50012C6.74805 7.40147 6.76751 7.30379 6.80532 7.21267C6.84313 7.12155 6.89854 7.03879 6.96839 6.96912Z" fill="#323232"/>
</svg>
