<svg width="16" height="12" viewBox="0 0 16 12" fill="none" xmlns="http://www.w3.org/2000/svg">
<path d="M15.875 5.95098C15.875 5.9123 15.875 5.86836 15.8732 5.81738C15.8715 5.675 15.868 5.51504 15.8645 5.34453C15.8504 4.8541 15.8258 4.36543 15.7871 3.90488C15.7344 3.27031 15.657 2.74121 15.5516 2.34395C15.4403 1.92936 15.2221 1.55126 14.9189 1.24742C14.6156 0.943574 14.238 0.724641 13.8236 0.6125C13.3262 0.478906 12.3523 0.396289 10.9812 0.345312C10.3291 0.320703 9.63125 0.304883 8.9334 0.296094C8.68906 0.292578 8.46231 0.29082 8.2584 0.289062H7.7416C7.53769 0.29082 7.31094 0.292578 7.0666 0.296094C6.36875 0.304883 5.6709 0.320703 5.01875 0.345312C3.64766 0.398047 2.67207 0.480664 2.17637 0.6125C1.76188 0.724366 1.38407 0.943207 1.0808 1.24709C0.777533 1.55097 0.559461 1.92923 0.448438 2.34395C0.341211 2.74121 0.265625 3.27031 0.212891 3.90488C0.174219 4.36543 0.149609 4.8541 0.135547 5.34453C0.130273 5.51504 0.128516 5.675 0.126758 5.81738C0.126758 5.86836 0.125 5.9123 0.125 5.95098V6.04941C0.125 6.08809 0.125 6.13203 0.126758 6.18301C0.128516 6.32539 0.132031 6.48535 0.135547 6.65586C0.149609 7.14629 0.174219 7.63496 0.212891 8.09551C0.265625 8.73008 0.342969 9.25918 0.448438 9.65645C0.673438 10.4984 1.33437 11.1629 2.17637 11.3879C2.67207 11.5215 3.64766 11.6041 5.01875 11.6551C5.6709 11.6797 6.36875 11.6955 7.0666 11.7043C7.31094 11.7078 7.53769 11.7096 7.7416 11.7113H8.2584C8.46231 11.7096 8.68906 11.7078 8.9334 11.7043C9.63125 11.6955 10.3291 11.6797 10.9812 11.6551C12.3523 11.6023 13.3279 11.5197 13.8236 11.3879C14.6656 11.1629 15.3266 10.5002 15.5516 9.65645C15.6588 9.25918 15.7344 8.73008 15.7871 8.09551C15.8258 7.63496 15.8504 7.14629 15.8645 6.65586C15.8697 6.48535 15.8715 6.32539 15.8732 6.18301C15.8732 6.13203 15.875 6.08809 15.875 6.04941V5.95098ZM14.6094 6.04238C14.6094 6.0793 14.6094 6.11973 14.6076 6.16719C14.6059 6.3043 14.6023 6.45547 14.5988 6.61895C14.5865 7.08652 14.5619 7.5541 14.525 7.98828C14.4775 8.5543 14.4107 9.01836 14.3281 9.32949C14.2191 9.73555 13.8992 10.0572 13.4949 10.1645C13.1258 10.2629 12.1959 10.342 10.932 10.3895C10.2922 10.4141 9.60312 10.4299 8.91582 10.4387C8.675 10.4422 8.45176 10.4439 8.25137 10.4439H7.74863L7.08418 10.4387C6.39687 10.4299 5.70957 10.4141 5.06797 10.3895C3.8041 10.3402 2.87246 10.2629 2.50508 10.1645C2.10078 10.0555 1.78086 9.73555 1.67188 9.32949C1.58926 9.01836 1.52246 8.5543 1.475 7.98828C1.43809 7.5541 1.41523 7.08652 1.40117 6.61895C1.3959 6.45547 1.39414 6.30254 1.39238 6.16719C1.39238 6.11973 1.39062 6.07754 1.39062 6.04238V5.95801C1.39062 5.92109 1.39063 5.88066 1.39238 5.8332C1.39414 5.69609 1.39766 5.54492 1.40117 5.38144C1.41348 4.91387 1.43809 4.44629 1.475 4.01211C1.52246 3.44609 1.58926 2.98203 1.67188 2.6709C1.78086 2.26484 2.10078 1.94316 2.50508 1.83594C2.87422 1.7375 3.8041 1.6584 5.06797 1.61094C5.70781 1.58633 6.39687 1.57051 7.08418 1.56172C7.325 1.5582 7.54824 1.55645 7.74863 1.55645H8.25137L8.91582 1.56172C9.60312 1.57051 10.2904 1.58633 10.932 1.61094C12.1959 1.66016 13.1275 1.7375 13.4949 1.83594C13.8992 1.94492 14.2191 2.26484 14.3281 2.6709C14.4107 2.98203 14.4775 3.44609 14.525 4.01211C14.5619 4.44629 14.5848 4.91387 14.5988 5.38144C14.6041 5.54492 14.6059 5.69785 14.6076 5.8332C14.6076 5.88066 14.6094 5.92285 14.6094 5.95801V6.04238ZM6.43555 8.35566L10.5137 5.98262L6.43555 3.64473V8.35566Z" fill="#323232"/>
</svg>
